<svg width="188" height="75" viewBox="0 0 188 75" fill="none" xmlns="http://www.w3.org/2000/svg">
<path d="M8.26046 24.492V41.5233H0V12.0638H7.87265V17.2614H8.22168C8.88097 15.5481 9.98624 14.1927 11.5375 13.1954C13.0888 12.1853 14.9697 11.6802 17.1802 11.6802C19.2486 11.6802 21.0519 12.1277 22.5902 13.0228C24.1286 13.9178 25.3243 15.1964 26.1775 16.8587C27.0307 18.5081 27.4573 20.4772 27.4573 22.7659V41.5233H19.1969V24.2235C19.2098 22.4207 18.7444 21.0142 17.8007 20.0041C16.857 18.9812 15.5579 18.4697 13.9032 18.4697C12.7914 18.4697 11.809 18.7063 10.9558 19.1794C10.1155 19.6524 9.45623 20.3429 8.97792 21.2507C8.51254 22.1458 8.27339 23.2262 8.26046 24.492Z" fill="black"/>
<path d="M44.6451 42.0795C42.7448 42.0795 41.0513 41.7535 39.5647 41.1014C38.0781 40.4365 36.9017 39.4583 36.0356 38.1669C35.1824 36.8627 34.7558 35.2389 34.7558 33.2954C34.7558 31.6587 35.0596 30.2842 35.6672 29.1718C36.2747 28.0594 37.1021 27.1644 38.1492 26.4867C39.1963 25.809 40.3856 25.2976 41.7171 24.9523C43.0615 24.6071 44.4706 24.3642 45.9443 24.2235C47.6765 24.0445 49.0726 23.8783 50.1327 23.7249C51.1927 23.5586 51.9619 23.3157 52.4402 22.996C52.9185 22.6764 53.1576 22.2033 53.1576 21.5768V21.4617C53.1576 20.247 52.7698 19.3072 51.9942 18.6423C51.2315 17.9775 50.1456 17.645 48.7365 17.645C47.2499 17.645 46.0671 17.9711 45.188 18.6232C44.309 19.2625 43.7273 20.068 43.4429 21.0398L35.8029 20.426C36.1907 18.6359 36.9534 17.0888 38.091 15.7846C39.2286 14.4676 40.6958 13.4575 42.4927 12.7543C44.3025 12.0382 46.3967 11.6802 48.7753 11.6802C50.43 11.6802 52.0136 11.872 53.5261 12.2556C55.0515 12.6392 56.4024 13.2338 57.5787 14.0393C58.768 14.8448 59.7052 15.8805 60.3904 17.1463C61.0755 18.3994 61.4181 19.9018 61.4181 21.6535V41.5233H53.5842V37.4381H53.3515C52.8732 38.3587 52.2333 39.1706 51.4319 39.8739C50.6304 40.5643 49.6673 41.1077 48.5426 41.5041C47.418 41.8877 46.1188 42.0795 44.6451 42.0795ZM47.0108 36.4408C48.2259 36.4408 49.2989 36.2042 50.2296 35.7311C51.1604 35.2453 51.8908 34.5932 52.4208 33.7748C52.9508 32.9565 53.2158 32.0295 53.2158 30.9938V27.8676C52.9573 28.0338 52.6018 28.1873 52.1493 28.3279C51.7098 28.4558 51.2121 28.5772 50.6562 28.6923C50.1004 28.7946 49.5445 28.8905 48.9886 28.98C48.4328 29.0567 47.9286 29.1271 47.4761 29.191C46.5066 29.3316 45.6599 29.5554 44.936 29.8623C44.212 30.1691 43.6497 30.5847 43.249 31.1089C42.8482 31.6204 42.6478 32.2597 42.6478 33.0269C42.6478 34.1393 43.055 34.9895 43.8695 35.5777C44.6968 36.1531 45.7439 36.4408 47.0108 36.4408Z" fill="black"/>
<path d="M85.8532 12.0638V18.2012H67.9167V12.0638H85.8532ZM71.9888 5.00581H80.2492V32.4706C80.2492 33.225 80.3656 33.8132 80.5983 34.2352C80.831 34.6443 81.1542 34.932 81.5678 35.0982C81.9944 35.2644 82.4856 35.3476 83.0415 35.3476C83.4293 35.3476 83.8171 35.3156 84.205 35.2517C84.5928 35.1749 84.8901 35.1174 85.0969 35.079L86.3961 41.1589C85.9825 41.2868 85.4007 41.4338 84.6509 41.6C83.9012 41.779 82.9898 41.8877 81.9169 41.9261C79.9261 42.0028 78.1809 41.7407 76.6813 41.1397C75.1947 40.5388 74.0377 39.6054 73.2104 38.3395C72.3831 37.0737 71.9759 35.4754 71.9888 33.5447V5.00581Z" fill="black"/>
<path d="M93.4183 41.5233V12.0638H101.679V41.5233H93.4183ZM97.5679 8.2663C96.3398 8.2663 95.2863 7.86354 94.4072 7.058C93.5411 6.23968 93.108 5.26154 93.108 4.12356C93.108 2.99837 93.5411 2.03301 94.4072 1.22748C95.2863 0.40916 96.3398 0 97.5679 0C98.796 0 99.8431 0.40916 100.709 1.22748C101.588 2.03301 102.028 2.99837 102.028 4.12356C102.028 5.26154 101.588 6.23968 100.709 7.058C99.8431 7.86354 98.796 8.2663 97.5679 8.2663Z" fill="black"/>
<path d="M138.248 12.0638L127.835 41.5233H118.527L108.114 12.0638H116.84L123.026 33.1419H123.336L129.502 12.0638H138.248Z" fill="black"/>
<path d="M157.273 42.0987C154.209 42.0987 151.572 41.4849 149.361 40.2575C147.164 39.0172 145.47 37.2655 144.281 35.0023C143.092 32.7264 142.497 30.0349 142.497 26.9278C142.497 23.8975 143.092 21.2379 144.281 18.9492C145.47 16.6605 147.144 14.8768 149.303 13.5982C151.475 12.3195 154.021 11.6802 156.943 11.6802C158.908 11.6802 160.737 11.9935 162.431 12.62C164.137 13.2338 165.624 14.1608 166.89 15.401C168.17 16.6413 169.166 18.2012 169.877 20.0808C170.588 21.9476 170.943 24.134 170.943 26.6401V28.8841H145.793V23.8208H163.167C163.167 22.6444 162.909 21.6024 162.392 20.6945C161.875 19.7867 161.157 19.0771 160.239 18.5656C159.335 18.0414 158.281 17.7793 157.079 17.7793C155.825 17.7793 154.713 18.067 153.744 18.6423C152.787 19.2049 152.037 19.9657 151.494 20.9247C150.951 21.8709 150.673 22.9257 150.66 24.0893V28.9033C150.66 30.3609 150.932 31.6204 151.475 32.6816C152.031 33.7429 152.813 34.5612 153.821 35.1366C154.829 35.712 156.025 35.9997 157.408 35.9997C158.326 35.9997 159.166 35.8718 159.929 35.6161C160.692 35.3603 161.345 34.9768 161.888 34.4653C162.431 33.9539 162.844 33.3273 163.129 32.5857L170.769 33.0844C170.381 34.9 169.586 36.4855 168.384 37.8409C167.194 39.1834 165.656 40.2319 163.769 40.9863C161.894 41.7279 159.729 42.0987 157.273 42.0987Z" fill="black"/>
<path d="M183.346 42.022C182.066 42.022 180.968 41.5744 180.05 40.6794C179.145 39.7716 178.692 38.6848 178.692 37.4189C178.692 36.1659 179.145 35.0918 180.05 34.1968C180.968 33.3018 182.066 32.8542 183.346 32.8542C184.587 32.8542 185.673 33.3018 186.604 34.1968C187.535 35.0918 188 36.1659 188 37.4189C188 38.2628 187.78 39.0364 187.341 39.7396C186.914 40.4301 186.352 40.9863 185.654 41.4082C184.956 41.8174 184.186 42.022 183.346 42.022Z" fill="black"/>
<path d="M48.2535 71.2199C47.5671 71.2199 46.9466 71.0944 46.3919 70.8433C45.8372 70.5876 45.3977 70.2179 45.0734 69.7344C44.7537 69.2508 44.5939 68.658 44.5939 67.9559C44.5939 67.3515 44.7114 66.854 44.9464 66.4634C45.1815 66.0729 45.4988 65.7637 45.8984 65.5359C46.2979 65.308 46.7445 65.136 47.2381 65.0198C47.7317 64.9035 48.2346 64.8152 48.747 64.7547C49.3957 64.6803 49.9222 64.6199 50.3265 64.5734C50.7308 64.5223 51.0246 64.4409 51.2079 64.3293C51.3912 64.2177 51.4829 64.0364 51.4829 63.7853V63.7365C51.4829 63.1274 51.309 62.6555 50.9611 62.3207C50.6179 61.9859 50.1056 61.8186 49.4239 61.8186C48.7141 61.8186 48.1547 61.9743 47.7458 62.2858C47.3415 62.5927 47.0618 62.9344 46.9067 63.3111L44.9253 62.8647C45.1603 62.2138 45.5035 61.6884 45.9548 61.2885C46.4107 60.884 46.9349 60.5911 47.5272 60.4097C48.1195 60.2238 48.7423 60.1308 49.3957 60.1308C49.8282 60.1308 50.2865 60.1819 50.7707 60.2842C51.2596 60.3818 51.7156 60.5632 52.1387 60.8282C52.5664 61.0932 52.9166 61.4722 53.1893 61.965C53.4619 62.4532 53.5982 63.0879 53.5982 63.869V70.9828H51.5393V69.5182H51.4547C51.3184 69.7879 51.1139 70.0529 50.8412 70.3133C50.5686 70.5736 50.2184 70.7898 49.7906 70.9619C49.3628 71.1339 48.8505 71.2199 48.2535 71.2199ZM48.7118 69.5461C49.2947 69.5461 49.793 69.4322 50.2066 69.2043C50.625 68.9765 50.9423 68.6789 51.1585 68.3116C51.3795 67.9397 51.4899 67.5421 51.4899 67.119V65.7381C51.4147 65.8125 51.269 65.8822 51.0528 65.9473C50.8412 66.0078 50.5991 66.0613 50.3265 66.1078C50.0539 66.1496 49.7883 66.1891 49.5297 66.2263C49.2712 66.2589 49.0549 66.2868 48.881 66.31C48.472 66.3612 48.0983 66.4472 47.7599 66.5681C47.4261 66.6889 47.1582 66.8633 46.956 67.0911C46.7586 67.3143 46.6599 67.6119 46.6599 67.9838C46.6599 68.4999 46.8526 68.8905 47.2381 69.1555C47.6235 69.4159 48.1148 69.5461 48.7118 69.5461Z" fill="black"/>
<path d="M64.9194 62.8856L63.0085 63.2204C62.9286 62.9786 62.8017 62.7485 62.6278 62.5299C62.4586 62.3114 62.2282 62.1324 61.9368 61.9929C61.6453 61.8534 61.281 61.7837 60.8438 61.7837C60.2468 61.7837 59.7485 61.9162 59.349 62.1812C58.9494 62.4416 58.7496 62.7787 58.7496 63.1925C58.7496 63.5505 58.8836 63.8388 59.1516 64.0573C59.4195 64.2758 59.852 64.4548 60.449 64.5943L62.1695 64.9849C63.166 65.2127 63.9087 65.5638 64.3976 66.038C64.8865 66.5123 65.131 67.1283 65.131 67.8862C65.131 68.5278 64.9429 69.0997 64.5669 69.6019C64.1955 70.0994 63.6761 70.4899 63.0085 70.7736C62.3457 71.0572 61.5772 71.199 60.7028 71.199C59.49 71.199 58.5005 70.9433 57.7343 70.4318C56.968 69.9157 56.498 69.1834 56.324 68.2349L58.3618 67.928C58.4887 68.4534 58.7496 68.851 59.1445 69.1207C59.5394 69.3857 60.0541 69.5182 60.6887 69.5182C61.3797 69.5182 61.9321 69.3764 62.3457 69.0928C62.7594 68.8045 62.9662 68.4534 62.9662 68.0396C62.9662 67.7049 62.8393 67.4236 62.5855 67.1957C62.3363 66.9679 61.9532 66.7959 61.4361 66.6796L59.6028 66.2821C58.5922 66.0543 57.8447 65.6916 57.3605 65.1941C56.8811 64.6966 56.6413 64.0666 56.6413 63.3041C56.6413 62.6717 56.82 62.1184 57.1772 61.6442C57.5345 61.1699 58.0281 60.8003 58.658 60.5353C59.2879 60.2656 60.0094 60.1308 60.8227 60.1308C61.9932 60.1308 62.9145 60.3818 63.5867 60.884C64.259 61.3815 64.7032 62.0487 64.9194 62.8856Z" fill="black"/>
<path d="M74.8308 75C74.5159 75 74.2291 74.9744 73.9706 74.9233C73.7121 74.8768 73.5193 74.8256 73.3924 74.7698L73.9001 73.0611C74.2856 73.1634 74.6287 73.2076 74.9296 73.1937C75.2304 73.1797 75.496 73.0681 75.7263 72.8589C75.9614 72.6497 76.1682 72.3079 76.3469 71.8337L76.6077 71.1223L72.645 60.2703H74.9014L77.6443 68.5836H77.7571L80.5 60.2703H82.7634L78.3 72.4125C78.0932 72.9705 77.8299 73.4424 77.5103 73.8283C77.1906 74.2189 76.8099 74.5118 76.368 74.7071C75.9261 74.9024 75.4137 75 74.8308 75Z" fill="black"/>
<path d="M89.3356 71.199C88.3203 71.199 87.4342 70.9688 86.6773 70.5085C85.9205 70.0482 85.3329 69.4043 84.9145 68.5767C84.4962 67.749 84.287 66.7819 84.287 65.6753C84.287 64.5641 84.4962 63.5924 84.9145 62.7601C85.3329 61.9278 85.9205 61.2815 86.6773 60.8212C87.4342 60.3609 88.3203 60.1308 89.3356 60.1308C90.351 60.1308 91.2371 60.3609 91.9939 60.8212C92.7508 61.2815 93.3384 61.9278 93.7567 62.7601C94.1751 63.5924 94.3843 64.5641 94.3843 65.6753C94.3843 66.7819 94.1751 67.749 93.7567 68.5767C93.3384 69.4043 92.7508 70.0482 91.9939 70.5085C91.2371 70.9688 90.351 71.199 89.3356 71.199ZM89.3427 69.4484C90.0008 69.4484 90.5461 69.2764 90.9786 68.9324C91.411 68.5883 91.7307 68.1303 91.9375 67.5584C92.1491 66.9865 92.2548 66.3565 92.2548 65.6684C92.2548 64.9849 92.1491 64.3572 91.9375 63.7853C91.7307 63.2088 91.411 62.7461 90.9786 62.3974C90.5461 62.0487 90.0008 61.8743 89.3427 61.8743C88.6799 61.8743 88.1299 62.0487 87.6927 62.3974C87.2602 62.7461 86.9382 63.2088 86.7267 63.7853C86.5199 64.3572 86.4164 64.9849 86.4164 65.6684C86.4164 66.3565 86.5199 66.9865 86.7267 67.5584C86.9382 68.1303 87.2602 68.5883 87.6927 68.9324C88.1299 69.2764 88.6799 69.4484 89.3427 69.4484Z" fill="black"/>
<path d="M103.996 66.5402V60.2703H106.111V70.9828H104.038V69.1276H103.925C103.676 69.6995 103.276 70.1761 102.726 70.5574C102.181 70.934 101.502 71.1223 100.689 71.1223C99.9928 71.1223 99.377 70.9712 98.8411 70.669C98.3099 70.3621 97.8916 69.9088 97.586 69.309C97.2852 68.7092 97.1347 67.9676 97.1347 67.0842V60.2703H99.243V66.8331C99.243 67.5631 99.4475 68.1443 99.8565 68.5767C100.265 69.0091 100.797 69.2253 101.45 69.2253C101.845 69.2253 102.237 69.1276 102.628 68.9324C103.022 68.7371 103.349 68.4418 103.608 68.0466C103.871 67.6514 104 67.1493 103.996 66.5402Z" fill="black"/>
<path d="M118.145 71.2199C117.458 71.2199 116.838 71.0944 116.283 70.8433C115.729 70.5876 115.289 70.2179 114.965 69.7344C114.645 69.2508 114.485 68.658 114.485 67.9559C114.485 67.3515 114.603 66.854 114.838 66.4634C115.073 66.0729 115.39 65.7637 115.79 65.5359C116.189 65.308 116.636 65.136 117.129 65.0198C117.623 64.9035 118.126 64.8152 118.638 64.7547C119.287 64.6803 119.814 64.6199 120.218 64.5734C120.622 64.5223 120.916 64.4409 121.099 64.3293C121.283 64.2177 121.374 64.0364 121.374 63.7853V63.7365C121.374 63.1274 121.2 62.6555 120.852 62.3207C120.509 61.9859 119.997 61.8186 119.315 61.8186C118.605 61.8186 118.046 61.9743 117.637 62.2858C117.233 62.5927 116.953 62.9344 116.798 63.3111L114.817 62.8647C115.052 62.2138 115.395 61.6884 115.846 61.2885C116.302 60.884 116.826 60.5911 117.418 60.4097C118.011 60.2238 118.634 60.1308 119.287 60.1308C119.719 60.1308 120.178 60.1819 120.662 60.2842C121.151 60.3818 121.607 60.5632 122.03 60.8282C122.458 61.0932 122.808 61.4722 123.081 61.965C123.353 62.4532 123.49 63.0879 123.49 63.869V70.9828H121.431V69.5182H121.346C121.21 69.7879 121.005 70.0529 120.733 70.3133C120.46 70.5736 120.11 70.7898 119.682 70.9619C119.254 71.1339 118.742 71.2199 118.145 71.2199ZM118.603 69.5461C119.186 69.5461 119.684 69.4322 120.098 69.2043C120.516 68.9765 120.834 68.6789 121.05 68.3116C121.271 67.9397 121.381 67.5421 121.381 67.119V65.7381C121.306 65.8125 121.16 65.8822 120.944 65.9473C120.733 66.0078 120.49 66.0613 120.218 66.1078C119.945 66.1496 119.68 66.1891 119.421 66.2263C119.162 66.2589 118.946 66.2868 118.772 66.31C118.363 66.3612 117.99 66.4472 117.651 66.5681C117.317 66.6889 117.049 66.8633 116.847 67.0911C116.65 67.3143 116.551 67.6119 116.551 67.9838C116.551 68.4999 116.744 68.8905 117.129 69.1555C117.515 69.4159 118.006 69.5461 118.603 69.5461Z" fill="black"/>
<path d="M126.695 70.9828V60.2703H128.733V61.972H128.845C129.043 61.3954 129.391 60.9421 129.889 60.612C130.392 60.2772 130.961 60.1098 131.595 60.1098C131.727 60.1098 131.882 60.1145 132.061 60.1238C132.244 60.1331 132.387 60.1447 132.491 60.1587V62.1533C132.406 62.1301 132.256 62.1045 132.04 62.0766C131.823 62.0441 131.607 62.0278 131.391 62.0278C130.893 62.0278 130.448 62.1324 130.058 62.3416C129.673 62.5462 129.367 62.8321 129.142 63.1995C128.916 63.5621 128.803 63.9759 128.803 64.4409V70.9828H126.695Z" fill="black"/>
<path d="M138.993 71.199C137.925 71.199 137.006 70.9735 136.236 70.5225C135.469 70.0668 134.877 69.4275 134.459 68.6046C134.045 67.7769 133.838 66.8075 133.838 65.6963C133.838 64.599 134.045 63.6319 134.459 62.795C134.877 61.958 135.46 61.3048 136.207 60.8352C136.959 60.3656 137.839 60.1308 138.844 60.1308C139.456 60.1308 140.048 60.2307 140.621 60.4307C141.195 60.6306 141.71 60.9444 142.166 61.3722C142.622 61.8 142.981 62.3556 143.244 63.0391C143.508 63.7179 143.639 64.5432 143.639 65.5149V66.2542H135.03V64.692H141.573C141.573 64.1433 141.46 63.6574 141.235 63.2343C141.009 62.8066 140.692 62.4695 140.283 62.2231C139.879 61.9766 139.404 61.8534 138.859 61.8534C138.266 61.8534 137.749 61.9976 137.307 62.2858C136.87 62.5695 136.532 62.9414 136.292 63.4017C136.057 63.8574 135.939 64.3525 135.939 64.8872V66.1078C135.939 66.8238 136.066 67.4329 136.32 67.935C136.579 68.4372 136.938 68.8208 137.399 69.0858C137.86 69.3462 138.398 69.4763 139.014 69.4763C139.413 69.4763 139.778 69.4205 140.107 69.309C140.436 69.1927 140.72 69.0207 140.96 68.7929C141.2 68.565 141.383 68.2837 141.51 67.949L143.505 68.3047C143.345 68.8859 143.059 69.395 142.645 69.832C142.236 70.2644 141.721 70.6015 141.101 70.8433C140.485 71.0804 139.782 71.199 138.993 71.199Z" fill="black"/>
</svg>
