<svg width="170" height="170" viewBox="0 0 170 170" fill="none" xmlns="http://www.w3.org/2000/svg">
<path d="M82.586 133.584L6.63003 88.7044C4.21603 87.3444 2.14203 85.1004 4.48803 83.6384L80.716 39.7104C81.872 38.9964 83.606 38.5544 84.762 39.2004L164.492 85.4744C166.906 86.8684 167.348 90.8124 164.934 92.2064L92.582 133.482C89.522 135.284 85.714 135.318 82.586 133.584Z" fill="#5297A4"/>
<path d="M139.196 93.5339L149.022 87.7199C149.736 87.3119 149.974 86.3939 149.566 85.6799C149.464 85.4759 149.294 85.3059 149.09 85.1699L140.93 79.8999C140.08 79.3559 138.992 79.3559 138.142 79.9339L128.52 86.3939C127.84 86.8699 127.636 87.7879 128.112 88.4679C128.248 88.6379 128.384 88.8079 128.588 88.9099L136.272 93.4999C137.156 94.0779 138.278 94.0779 139.196 93.5339Z" fill="#F15A24"/>
<path d="M139.196 92.65L149.022 86.836C149.736 86.428 149.974 85.476 149.532 84.762C149.43 84.558 149.26 84.388 149.056 84.252L140.93 78.982C140.08 78.438 138.992 78.438 138.142 79.016L128.52 85.51C127.84 85.986 127.636 86.904 128.112 87.584C128.248 87.754 128.384 87.924 128.588 88.026L136.272 92.616C137.156 93.194 138.278 93.194 139.196 92.65Z" fill="#FF8522"/>
<path d="M137.564 69.3242L132.362 85.8142C132.362 85.8142 131.104 89.9962 138.924 89.5882C146.744 89.1802 145.724 85.3042 145.724 85.3042L140.488 69.3582" fill="#FF8522"/>
<path d="M135.626 75.4471C135.626 75.4471 136.646 76.5011 139.026 76.5011C142.018 76.5011 142.324 75.0391 142.324 75.0391L143.412 78.3711C143.412 78.3711 142.63 80.2411 139.026 80.2071C135.762 80.1391 134.504 78.9831 134.504 78.9831" fill="white"/>
<path d="M133.688 81.7034C135.116 83.0634 136.986 83.8114 138.958 83.8114C142.834 83.7774 144.262 81.0234 144.262 81.0234L145.418 84.5254C145.418 84.5254 143.752 87.1094 138.992 87.4494C134.504 87.7894 132.566 85.2734 132.566 85.2734" fill="white"/>
<path opacity="0.3" d="M138.686 69.4297H137.564L132.362 85.9197C132.362 85.9197 131.172 89.8297 138.142 89.6937C138.278 82.9617 138.618 76.1957 138.686 69.4297Z" fill="#FF9948"/>
<path d="M139.026 70.2781C139.852 70.2781 140.522 69.8976 140.522 69.4281C140.522 68.9587 139.852 68.5781 139.026 68.5781C138.2 68.5781 137.53 68.9587 137.53 69.4281C137.53 69.8976 138.2 70.2781 139.026 70.2781Z" fill="#F9D5B1"/>
<path d="M63.4096 82.3155L64.5996 81.5675V77.2835L33.9996 58.8555L32.5376 59.4335" fill="#F15A24"/>
<path d="M44.0638 81.9062V83.7763L33.4558 89.9303L30.2258 88.0262L29.9878 85.7823" fill="#F15A24"/>
<path d="M40.5958 79.6289L29.9878 85.7829L33.2518 88.0609L44.0638 81.9069L40.5958 79.6289Z" fill="#FF8522"/>
<path d="M66.2659 95.168V97.038L55.6579 103.192L52.4279 101.254L52.1899 99.01" fill="#F15A24"/>
<path d="M62.7979 92.8906L52.1899 99.0106L55.4199 101.323L66.2659 95.1686L62.7979 92.8906Z" fill="#FF8522"/>
<path d="M37.7737 66.4364V84.1164C37.7737 84.1164 37.2637 85.0344 35.4277 84.1164V65.4844" fill="#F15A24"/>
<path d="M60.7239 79.5614V97.2414C60.7239 97.2414 60.2139 98.1594 58.3779 97.2414V78.6094" fill="#F15A24"/>
<path d="M63.4096 77.6576V82.3156L32.5376 64.3636V59.4336L63.4096 77.6576Z" fill="#FF8522"/>
<path d="M22.2021 55.6945C22.7801 55.3545 23.2561 55.7625 23.2561 56.5785C23.2561 57.3945 22.7801 58.3125 22.2021 58.6525C21.6241 58.9925 21.1821 58.5845 21.1481 57.7685C21.1141 56.9525 21.6241 56.0345 22.2021 55.6945Z" fill="#F15A24"/>
<path d="M29.58 52.6334C29.886 53.1094 29.92 53.9254 29.648 54.7414C29.444 55.4894 29.002 56.1354 28.356 56.5774L16.15 63.4794C15.606 63.7854 15.096 63.6494 14.824 63.1394C14.552 62.6294 14.552 61.7794 14.858 60.9634C16.694 55.7614 19.21 48.6554 20.842 44.1674C21.046 43.4874 21.488 42.9094 22.1 42.5014C22.474 42.2294 23.018 42.2974 23.324 42.6714C23.358 42.7054 23.358 42.7054 23.358 42.7394L29.58 52.6334ZM21.726 45.5614C21.318 45.8674 21.08 46.3434 21.114 46.8534L21.522 54.0614C21.556 54.5034 21.828 54.7074 22.168 54.5374L22.27 54.4694C22.644 54.1974 22.882 53.7554 22.882 53.2794L23.154 45.7314C23.188 45.1874 22.882 44.9494 22.508 45.1534L21.726 45.5614ZM22.202 58.6514C22.78 58.3114 23.256 57.3934 23.256 56.5774C23.256 55.7614 22.78 55.3534 22.202 55.6934C21.624 56.0334 21.182 56.9514 21.182 57.7674C21.182 58.5834 21.658 58.9574 22.202 58.6514Z" fill="white"/>
<path d="M30.1239 51.8169C30.5659 52.5309 30.5999 53.6529 30.2259 54.8769C29.8519 56.1009 29.1379 57.0869 28.3559 57.5289L16.1499 64.3969C15.3679 64.8389 14.6539 64.6689 14.2459 63.8869C13.8379 63.1049 13.8719 61.9489 14.3139 60.7589C16.1499 55.5909 18.6999 48.4509 20.2979 43.9629C20.7059 42.8749 21.3519 41.9909 22.0999 41.5829C22.8479 41.1749 23.5279 41.3109 23.9019 41.9569L30.1239 51.8169ZM29.6479 54.7409C29.9199 53.8909 29.8859 53.1089 29.5799 52.6329L23.3579 42.7729C23.1199 42.3649 22.5759 42.2289 22.1679 42.4669C22.1339 42.4669 22.1339 42.5009 22.0999 42.5009C21.4879 42.9089 21.0799 43.4869 20.8419 44.1669C19.2099 48.6549 16.6939 55.7609 14.8239 60.9629C14.5179 61.7789 14.5179 62.5949 14.7899 63.1389C15.0619 63.6829 15.5719 63.8189 16.1159 63.4789L28.3219 56.5769C28.9679 56.1349 29.4439 55.4889 29.6479 54.7409Z" fill="#F15A24"/>
<path d="M21.5221 54.0609L21.1141 46.8869C21.0801 46.3769 21.3181 45.8669 21.7261 45.5609L22.5081 45.1189C22.8821 44.9149 23.1541 45.1869 23.1541 45.6969L22.8821 53.2449C22.8821 53.7209 22.6441 54.1629 22.2701 54.4349L22.1681 54.5029C21.8281 54.7069 21.5221 54.5029 21.5221 54.0609Z" fill="#F15A24"/>
<path d="M50.6939 57.0197C50.0819 57.3597 47.4639 69.2257 58.3779 69.4297C69.2919 69.6337 71.8079 65.1117 74.1539 72.5238C75.9899 78.4058 79.6959 87.4157 87.6859 84.1177C94.1459 81.4657 92.6839 69.5658 101.32 70.5518C112.268 71.7757 125.494 73.3398 124.338 62.1537L85.2039 39.4417C83.9459 38.7278 82.4159 38.7278 81.1579 39.4417L50.6939 57.0197Z" fill="#754C24"/>
<path d="M82.9258 40.0875V84.6955C82.9258 84.6955 88.6378 86.2255 91.4598 80.5815C94.2818 74.9375 95.5058 70.4495 99.0078 70.5855C102.51 70.7215 118.252 72.9315 121.72 69.3275C125.188 65.7235 124.338 62.1875 124.338 62.1875L84.5918 39.1355C84.0818 38.8295 83.4018 38.9995 83.0958 39.5435C82.9938 39.7135 82.9258 39.8835 82.9258 40.0875Z" fill="#754C24"/>
<path opacity="0.3" d="M82.9258 40.0875V84.6955C82.9258 84.6955 88.6378 86.2255 91.4598 80.5815C94.2818 74.9375 95.5058 70.4495 99.0078 70.5855C102.51 70.7215 118.252 72.9315 121.72 69.3275C125.188 65.7235 124.338 62.1875 124.338 62.1875L84.5918 39.1355C84.0818 38.8295 83.4018 38.9995 83.0958 39.5435C82.9938 39.7135 82.9258 39.8835 82.9258 40.0875Z" fill="black"/>
<path d="M117.13 93.9451C117.13 93.9451 116.892 97.4811 116.586 97.8551C116.28 98.2291 112.778 99.4871 112.2 100.439C111.622 101.391 112.812 104.043 115.464 103.397C118.116 102.751 121.788 100.847 122.264 100.439C122.74 100.031 122.264 92.7891 122.264 92.7891L117.13 93.9451Z" fill="black"/>
<path d="M129.166 87.9272C129.166 87.9272 130.56 91.1572 130.458 91.6672C130.356 92.1772 127.704 93.6732 127.636 94.7612C127.568 96.0192 128.316 97.2432 129.608 96.9372C129.948 96.8352 130.288 96.6652 130.594 96.4612C132.124 95.5092 133.79 94.6592 135.184 93.5032C136.748 92.2112 135.456 89.9672 134.946 88.4032C134.47 86.9072 133.96 85.4452 133.45 83.9492L129.166 87.9272Z" fill="black"/>
<path d="M128.18 57.4258C128.18 57.4258 131.07 73.0318 132.43 76.3298C133.79 79.6278 135.558 85.5438 135.558 85.5438C135.558 85.5438 132.974 90.4398 127.874 88.6718L121.516 67.8638" fill="#68E1FD"/>
<path opacity="0.25" d="M128.18 57.4258C128.18 57.4258 131.07 73.0318 132.43 76.3298C133.79 79.6278 135.558 85.5438 135.558 85.5438C135.558 85.5438 132.974 90.4398 127.874 88.6718L121.516 67.8638" fill="black"/>
<path d="M117.708 65.2486C117.402 69.1586 117.028 74.0206 116.756 76.5366C116.144 82.0446 115.43 94.6926 115.43 94.6926C117.98 95.9846 121.006 95.9846 123.556 94.6926C123.556 94.6926 125.324 79.3926 126.242 76.8426C126.786 75.2786 127.466 69.3966 127.908 64.9766C124.576 65.5206 121.108 65.4526 117.708 65.2486Z" fill="#68E1FD"/>
<path d="M129.506 46.8886C128.792 43.9646 125.63 43.6926 125.63 43.6926C125.63 43.6926 120.088 40.0886 117.946 45.6646C116.382 49.7446 115.872 54.6066 115.872 54.6066L112.234 58.6526C112.234 58.6526 115.804 59.6386 116.586 60.4886L120.292 56.6126L125.052 57.1566L121.244 60.4886C121.89 60.5906 122.502 60.8966 123.012 61.3046C123.488 61.7126 123.828 62.2566 123.998 62.8686L124.236 63.0726C124.236 63.0726 130.526 60.4546 130.764 58.4826C131.002 56.5106 130.22 49.8126 129.506 46.8886Z" fill="#68E1FD"/>
<path d="M118.558 39.984C118.558 39.984 118.218 44.778 120.938 45.798C123.658 46.818 126.14 40.63 124.236 38.25" fill="#FF5153"/>
<path d="M121.312 41.6522C121.652 41.6182 121.618 42.4342 122.706 42.5022C123.794 42.5702 123.59 42.9782 123.794 43.5562C123.998 44.1342 124.134 44.6102 124.95 44.5422C125.766 44.4742 126.344 43.6582 126.004 42.9442C125.664 42.2302 126.412 41.8562 126.344 41.2782C126.276 40.7002 125.8 38.8642 124.61 38.6602" fill="black"/>
<path d="M118.15 38.5586C118.15 38.5586 116.722 39.2726 116.722 40.8366C116.722 42.4006 119.85 43.2506 122.774 41.9586C125.698 40.6666 125.902 39.7826 125.902 39.7826" fill="#F9D5B1"/>
<path d="M117.436 39.7814C117.436 39.7814 117.368 36.0414 120.326 35.3274C123.284 34.6134 125.222 36.0754 125.596 37.5374C125.8 38.2514 125.902 38.9994 125.868 39.7474C125.868 39.7474 124.61 41.6854 121.652 41.8894C118.694 42.0934 117.368 40.5974 117.436 39.7814Z" fill="#FF8522"/>
<path d="M124.61 36.0425C124.542 35.9745 124.032 36.0425 123.896 36.0425C122.978 36.0425 122.06 36.2805 121.244 36.7565C120.326 37.3685 119.918 38.3885 119.714 39.4085C119.68 39.5785 119.646 39.7825 119.646 39.9525C119.544 40.2245 119.204 40.3605 118.932 40.2585C118.422 40.0545 118.558 39.2385 118.558 39.2385C118.966 36.9265 121.074 35.1585 123.454 35.3965C123.862 35.5665 124.236 35.8045 124.61 36.0425Z" fill="#F9D5B1"/>
<path d="M118.524 55.3203C118.524 55.3203 117.81 60.7263 117.708 65.2483C117.708 65.2483 125.018 65.9623 127.908 64.9763L128.758 60.4203L126.684 55.3203H118.524Z" fill="#68E1FD"/>
<path d="M89.8664 118.448C91.2466 114.554 89.4387 110.361 85.8283 109.081C82.2179 107.801 78.1722 109.92 76.792 113.813C75.4118 117.707 77.2198 121.901 80.8301 123.181C84.4405 124.46 88.4862 122.342 89.8664 118.448Z" fill="black"/>
<path d="M87.0296 117.767C87.8075 115.573 86.9317 113.26 85.0735 112.601C83.2152 111.942 81.0781 113.187 80.3002 115.382C79.5222 117.576 80.398 119.889 82.2563 120.548C84.1146 121.207 86.2517 119.962 87.0296 117.767Z" fill="white"/>
<path d="M83.6403 108.837C84.1843 108.837 84.7283 108.871 85.2383 108.973C85.8503 108.565 86.0883 108.429 86.1563 108.395L85.8163 107.715L85.5103 107.035C85.4423 107.069 85.2723 107.137 82.6543 108.803C82.9943 108.837 83.3343 108.837 83.6403 108.837Z" fill="#754C24"/>
<path d="M121.618 65.7912C121.448 64.7032 120.768 63.7852 119.782 63.3092L114.24 60.6572C113.152 60.1472 111.894 60.2492 110.908 60.9292C108.324 62.7652 106.42 65.4512 105.536 68.4772C104.006 73.9852 99.96 85.2732 99.926 85.3752L101.32 85.8852C101.354 85.7832 105.4 74.4612 106.93 68.8852C107.746 66.1652 109.412 63.7852 111.724 62.1192C112.268 61.7452 112.948 61.6772 113.56 61.9832L119.102 64.6352C119.646 64.8732 120.02 65.3832 120.122 65.9952C120.224 66.5732 120.02 67.1512 119.612 67.5592C118.456 68.6812 117.436 69.9392 116.586 71.2992C115.634 72.8632 111.248 85.6812 109.922 89.5572C109.888 89.6932 109.82 89.8632 109.82 89.9992L107.27 103.395C107.168 103.871 107.202 104.347 107.304 104.823C108.358 108.937 108.596 113.323 106.794 113.833C104.992 114.343 100.742 113.425 95.404 111.419C94.418 111.045 93.33 111.147 92.446 111.725L79.696 119.885C79.084 120.259 78.302 120.259 77.69 119.851L75.378 118.287C74.562 117.709 74.324 116.587 74.902 115.771C75.038 115.567 75.208 115.397 75.412 115.261L76.67 114.445C76.806 113.527 77.214 112.677 77.758 111.963L74.596 114.003C73.066 114.989 72.624 117.063 73.61 118.593C73.848 118.967 74.154 119.273 74.528 119.545L76.84 121.109C77.928 121.857 79.39 121.891 80.478 121.143L93.228 112.983C93.704 112.677 94.316 112.609 94.86 112.813C98.226 114.105 104.244 116.111 107.168 115.295C110.772 114.275 109.446 107.407 108.732 104.483C108.664 104.245 108.664 103.973 108.698 103.701L111.248 90.3052C111.248 90.2372 111.282 90.1352 111.316 90.0672C114.104 81.8732 117.198 73.1692 117.844 72.0812C118.626 70.8232 119.578 69.6672 120.632 68.6472C121.448 67.9672 121.788 66.8792 121.618 65.7912Z" fill="#754C24"/>
<path d="M68.5781 96.5599C68.5781 96.5599 94.9621 81.0899 95.2681 81.1919C95.5741 81.2939 114.308 91.4599 114.308 91.4599L102.612 103.904L87.9921 108.392L68.5781 96.5599Z" fill="#FF5153"/>
<g opacity="0.3">
<path d="M68.5781 96.5599C68.5781 96.5599 94.9621 81.0899 95.2681 81.1919C95.5741 81.2939 114.308 91.4599 114.308 91.4599L102.612 103.904L87.9921 108.392L68.5781 96.5599Z" fill="black"/>
</g>
<path d="M110.704 103.294L114.308 91.4961L87.958 107.238L93.976 113.46L110.704 103.294Z" fill="#FF5153"/>
<g opacity="0.2">
<path d="M110.704 103.294L114.308 91.4961L87.958 107.238L93.976 113.46L110.704 103.294Z" fill="white"/>
</g>
<path d="M87.9581 107.238L68.5781 96.5625L74.6301 103.124L93.9761 113.461L87.9581 107.238Z" fill="#FF5153"/>
<path d="M110.33 92.8547C110.296 91.8687 109.31 90.9167 108.222 91.4947C107.984 91.2227 107.678 91.0187 107.338 90.9167C106.896 90.7807 106.42 90.8147 105.978 90.9847C105.774 90.5087 105.4 90.1347 104.958 89.8627C104.482 89.5907 103.904 89.4887 103.36 89.5907C103.19 88.8087 102.714 88.1287 102.068 87.6867C101.218 87.1427 100.164 87.0747 99.2799 87.5167C98.9399 87.3467 98.5659 87.2787 98.1919 87.2787C97.5459 87.3127 96.8999 87.6187 96.4579 88.0947C95.5739 87.5167 94.4179 87.5847 93.6359 88.3327C93.1939 87.8227 92.5479 87.5507 91.9019 87.6187C90.9499 87.6867 90.4739 88.2647 90.0319 88.9107C89.2499 88.4687 88.2979 88.4347 87.4819 88.8427C86.6659 89.2847 86.1219 90.1007 85.9859 91.0187C84.5919 91.0187 83.3679 91.9367 82.9939 93.2967C82.5519 93.2627 82.1099 93.3647 81.6679 93.5007C81.1239 93.7387 80.6479 94.1127 80.3079 94.5887C79.4579 94.2487 78.4719 94.3507 77.6899 94.8607C76.6359 95.5747 76.0239 96.7987 76.1259 98.0567C75.0719 99.0087 74.3579 99.7907 74.3579 99.7907L87.9579 107.271L110.568 93.7387C110.534 93.4327 110.432 93.1607 110.33 92.8547Z" fill="#F9D5B1"/>
<g opacity="0.5">
<path d="M95.3364 90.2719C93.6364 89.8639 91.4944 89.7959 90.5764 91.6319C90.1684 92.4819 91.4264 93.264 91.8684 92.38C92.4464 91.19 93.9084 91.462 94.9284 91.7C95.8464 91.904 96.2544 90.4759 95.3364 90.2719Z" fill="#754C24"/>
</g>
<g opacity="0.5">
<path d="M104.38 92.1741C103.156 90.7461 101.252 91.3581 99.858 92.2081C99.042 92.7181 99.79 94.0101 100.606 93.5001C101.422 92.9901 102.544 92.3441 103.326 93.2281C103.938 93.9761 104.992 92.9221 104.38 92.1741Z" fill="#754C24"/>
</g>
<g opacity="0.5">
<path d="M96.3559 96.0498C95.2679 95.1318 93.7379 95.0638 92.5479 95.8118C91.7319 96.3218 92.4799 97.6138 93.2959 97.1038C93.9079 96.6618 94.6899 96.6618 95.3019 97.1038C96.0499 97.6818 97.1039 96.6278 96.3559 96.0498Z" fill="#754C24"/>
</g>
<path opacity="0.5" d="M87.9919 95.0317C86.4959 94.2157 84.6599 94.5218 83.5379 95.7798C82.8919 96.4938 83.9459 97.5477 84.5919 96.8337C85.2379 96.0517 86.3599 95.8477 87.2439 96.3237C88.0599 96.7657 88.8079 95.5077 87.9919 95.0317Z" fill="#754C24"/>
<path opacity="0.5" d="M88.1283 99.2798C86.8363 99.2118 85.6123 99.6878 84.6943 100.572C84.0143 101.252 85.0683 102.306 85.7483 101.626C86.3943 101.014 87.2443 100.708 88.1283 100.776C89.0803 100.81 89.0803 99.3138 88.1283 99.2798Z" fill="#754C24"/>
<path opacity="0.5" d="M95.438 100.131C94.656 99.5868 93.636 99.4508 92.718 99.7908C91.834 100.131 92.208 101.559 93.126 101.219C93.636 100.981 94.248 101.083 94.69 101.423C95.472 101.967 96.22 100.675 95.438 100.131Z" fill="#754C24"/>
<path opacity="0.5" d="M80.9543 97.6847C80.3083 97.7527 79.6623 97.9567 79.0843 98.2287C78.2343 98.6707 78.9823 99.9627 79.8323 99.5207C80.1723 99.3507 80.5463 99.2147 80.9543 99.1807C81.9063 99.0787 81.9063 97.5827 80.9543 97.6847Z" fill="#754C24"/>
<path d="M122.298 62.4922C122.026 62.0502 121.618 61.7102 121.142 61.5742C121.074 61.5742 121.006 61.5742 120.904 61.5742C120.53 61.7782 120.122 61.9142 119.714 61.9482C119.374 61.9482 119 61.9142 118.66 61.8122C118.286 61.7442 117.844 61.5742 117.504 61.7442C117.266 61.8122 117.13 62.0502 117.198 62.2882C117.232 62.3902 117.3 62.4922 117.402 62.5262C117.504 62.5942 117.64 62.6622 117.776 62.6962C117.47 63.0362 117.334 63.5122 117.47 63.9882C117.606 64.3282 117.912 64.5662 118.286 64.5322C118.286 64.6682 118.286 64.7702 118.32 64.9062C118.422 65.4502 118.898 65.4502 119.306 65.2802C119.408 65.5862 119.714 65.7222 120.02 65.6542C120.394 65.6202 120.7 65.4162 120.904 65.1102C121.006 64.9742 121.142 64.8382 121.278 64.7022C121.312 64.7022 121.312 64.7022 121.346 64.7022C121.618 64.0902 122.06 63.5462 122.604 63.1722C122.536 62.9342 122.434 62.6962 122.298 62.4922Z" fill="#FF5153"/>
<path d="M116.28 58.276C115.362 57.732 114.58 57.46 113.594 57.97C112.778 58.412 112.064 59.024 111.486 59.772L111.452 59.806C111.418 59.84 111.384 59.908 111.35 59.942C111.316 59.976 111.316 60.01 111.282 60.044L111.248 60.078L111.214 60.112C111.044 60.35 110.976 60.622 111.01 60.928C111.078 61.336 111.282 61.506 111.554 61.54C111.52 61.982 111.622 62.39 112.166 62.39C112.302 62.39 112.404 62.356 112.54 62.356C112.608 62.696 112.914 62.968 113.288 63.002C113.764 63.036 114.206 62.798 114.478 62.39C114.546 62.492 114.648 62.594 114.75 62.696C114.92 62.866 115.192 62.866 115.396 62.696C115.464 62.628 115.532 62.526 115.532 62.39C115.634 61.982 115.362 61.608 115.192 61.268C115.158 61.166 115.09 61.098 115.056 60.996C115.702 60.486 116.178 59.84 116.45 59.058C116.484 58.99 116.484 58.922 116.45 58.854C116.552 58.684 116.484 58.412 116.28 58.276Z" fill="#FF5153"/>
</svg>
