<svg width="215" height="215" viewBox="0 0 215 215" fill="none" xmlns="http://www.w3.org/2000/svg">
<path d="M110.553 185.589L207.045 128.571C210.098 126.851 212.764 124.013 209.754 122.164L112.918 66.3499C111.456 65.4469 109.263 64.8449 107.801 65.7049L6.53602 124.486C3.44002 126.249 2.92402 131.237 5.97702 133.043L97.825 185.503C101.781 187.782 106.597 187.825 110.553 185.589Z" fill="#ADCE46"/>
<path d="M182.535 106.342L70.8639 170.799L29.7129 146.848L141.126 82.3906L182.535 106.342Z" fill="#31333F"/>
<path d="M51.9438 158.198L55.2978 160.133L75.5078 148.179C75.5078 148.179 72.0678 146.416 71.7668 146.244C71.4658 146.072 51.9438 158.198 51.9438 158.198Z" fill="white"/>
<path d="M149.726 99.6308L153.08 101.566L173.29 89.6118L169.549 87.6768C169.205 87.5478 149.726 99.6308 149.726 99.6308Z" fill="white"/>
<path d="M179.224 127.494V50.0938H181.116V127.494" fill="#31333F"/>
<path d="M179.998 101.135C182.207 101.135 183.997 100.308 183.997 99.2865C183.997 98.2653 182.207 97.4375 179.998 97.4375C177.789 97.4375 175.999 98.2653 175.999 99.2865C175.999 100.308 177.789 101.135 179.998 101.135Z" fill="#31333F"/>
<path d="M180.17 56.028C184.872 56.028 188.684 52.2162 188.684 47.514C188.684 42.8118 184.872 39 180.17 39C175.468 39 171.656 42.8118 171.656 47.514C171.656 52.2162 175.468 56.028 180.17 56.028Z" fill="#FFC745"/>
<path d="M175.01 92.5782C175.01 92.5352 169.721 127.494 169.721 127.494C169.721 127.494 172 130.891 179.955 131.364C187.91 131.837 191.35 127.451 191.35 126.419C191.35 125.387 184.857 92.5782 184.857 92.5782" fill="#31333F"/>
<path d="M24.166 114.338C26.359 116.832 24.08 118.767 24.209 122.723C24.209 123.024 24.295 123.369 24.381 123.67C26.402 125.218 28.81 126.25 31.304 126.637C31.39 123.584 36.593 121.347 36.378 117.778C36.163 114.08 31.175 116.102 32.981 112.017C34.787 107.932 34.142 102.728 31.261 100.793C29.111 99.3745 26.66 96.2355 25.542 94.6875C25.542 95.1175 25.542 95.5475 25.542 96.0205C25.757 98.4285 24.768 101.095 23.521 102.987C22.36 104.75 20.726 106.212 19.823 108.147C19.737 108.362 19.651 108.533 19.565 108.748C18.791 111.93 22.274 112.188 24.166 114.338Z" fill="#CFE217"/>
<path d="M26.531 106.984C27.004 109.091 28.595 110.682 29.412 112.617C30.401 115.025 29.326 117.304 28.939 119.669C28.509 122.206 29.498 124.313 30.745 126.42L31.218 126.506C30.53 125.474 29.971 124.356 29.541 123.238C29.111 121.991 29.068 120.615 29.369 119.325C29.799 117.175 30.659 115.068 29.928 112.875C29.24 110.854 27.649 109.306 27.004 107.242C26.273 104.748 27.692 102.297 27.219 99.8034C26.961 98.5564 26.316 97.4384 25.671 96.3204L25.585 96.1914C25.585 96.4064 25.542 96.6214 25.542 96.8364C26.101 97.6964 26.488 98.6424 26.789 99.6314C27.348 102.168 26.015 104.576 26.531 106.984Z" fill="#31333F"/>
<path d="M47.214 109.18C49.536 108.234 51.858 104.88 50.181 102.859C48.504 100.838 48.934 97.9141 48.934 97.9141C48.547 98.8171 47.859 99.5911 46.913 99.9781C42.183 101.612 41.753 104.364 41.624 106.471C41.495 108.578 44.032 113.093 36.464 115.544C29.412 117.78 34.4 125.864 35.088 126.982C36.636 127.025 38.141 126.939 39.689 126.767C41.323 125.907 43.043 125.133 44.806 124.488C49.321 122.811 47.644 118.812 45.666 116.49C43.688 114.168 44.849 110.126 47.214 109.18Z" fill="#CFE217"/>
<path d="M48.719 98.4699C47.515 100.233 47.3 102.34 46.698 104.318C46.053 106.468 44.677 108.145 43.559 110.037C43.043 110.897 42.656 111.886 42.441 112.875C42.226 113.95 42.226 115.068 42.097 116.186C42.011 117.433 41.667 118.594 41.065 119.669C40.463 120.658 39.775 121.604 39.001 122.464C37.883 123.797 36.765 125.259 36.335 126.936H36.722C37.195 125.302 38.313 123.883 39.388 122.593C40.678 121.002 41.925 119.368 42.312 117.304C42.742 115.025 42.484 112.746 43.645 110.639C44.591 108.876 45.967 107.328 46.698 105.436C47.558 103.2 47.644 100.663 49.02 98.6419C49.192 98.4269 48.848 98.2549 48.719 98.4699Z" fill="#31333F"/>
<path d="M34.5722 126.939C33.6692 124.015 34.4002 120.274 36.4642 117.737C38.7862 114.813 40.1622 112.104 38.5712 109.008C37.6252 107.116 37.1522 105.052 37.1952 102.945C34.8732 107.675 32.5512 109.352 33.0672 111.975C33.5832 114.598 32.9812 115.716 31.3472 119.715C30.2292 122.553 31.3472 125.348 32.1212 126.724C32.9382 126.853 33.7552 126.939 34.5722 126.939Z" fill="#CFE217"/>
<path d="M33.2389 126.852L33.6689 126.895C32.7229 124.186 32.3789 121.348 33.7549 118.682C34.4859 117.263 35.4319 116.016 36.1199 114.597C36.8509 113.049 36.8939 111.587 36.7219 109.91C36.4639 107.717 36.7219 105.481 37.4099 103.374C37.4959 103.159 37.1089 103.03 37.0659 103.288C36.4209 105.094 36.1629 106.986 36.2489 108.921C36.2919 109.953 36.5069 110.942 36.4639 111.931C36.4209 112.877 36.1629 113.78 35.6899 114.597C34.9589 116.059 33.9699 117.392 33.2389 118.854C32.5079 120.445 32.2499 122.165 32.4649 123.885C32.6369 124.874 32.8949 125.906 33.2389 126.852Z" fill="#31333F"/>
<path d="M126.893 149.167C129.086 151.661 126.807 153.596 126.936 157.552C126.936 157.853 127.022 158.197 127.108 158.498C129.129 160.046 131.537 161.078 134.031 161.465C134.074 158.412 139.363 156.176 139.105 152.607C138.89 148.909 133.902 150.93 135.708 146.845C137.514 142.76 136.869 137.557 133.988 135.622C131.838 134.203 129.387 131.064 128.269 129.516C128.269 129.946 128.269 130.376 128.269 130.849C128.484 133.257 127.495 135.923 126.248 137.815C125.087 139.578 123.453 141.04 122.55 142.975C122.464 143.19 122.378 143.362 122.292 143.577C121.475 146.802 125.001 147.017 126.893 149.167Z" fill="#CFE217"/>
<path d="M129.215 141.859C129.688 143.966 131.279 145.557 132.096 147.492C133.085 149.9 132.01 152.179 131.623 154.544C131.193 157.081 132.182 159.188 133.386 161.295L133.859 161.381C133.171 160.349 132.612 159.231 132.182 158.113C131.752 156.866 131.709 155.49 132.01 154.2C132.44 152.05 133.3 149.943 132.569 147.75C131.881 145.729 130.29 144.181 129.645 142.117C128.914 139.623 130.333 137.172 129.86 134.678C129.602 133.431 128.957 132.313 128.312 131.195C128.312 131.152 128.269 131.109 128.226 131.066C128.226 131.281 128.183 131.496 128.183 131.711C128.742 132.571 129.129 133.517 129.43 134.506C130.075 137 128.699 139.408 129.215 141.859Z" fill="#31333F"/>
<path d="M149.898 144.008C152.22 143.062 154.542 139.708 152.865 137.687C151.188 135.666 151.618 132.742 151.618 132.742C151.231 133.645 150.543 134.419 149.597 134.806C144.867 136.44 144.437 139.192 144.351 141.299C144.265 143.406 146.759 147.964 139.191 150.372C132.139 152.608 137.084 160.692 137.815 161.81C139.363 161.853 140.868 161.767 142.373 161.595C144.007 160.735 145.727 159.961 147.49 159.316C152.005 157.639 150.328 153.64 148.35 151.318C146.372 148.996 147.576 144.954 149.898 144.008Z" fill="#CFE217"/>
<path d="M151.403 133.301C150.199 135.064 149.984 137.171 149.425 139.149C148.78 141.299 147.404 142.976 146.286 144.868C145.77 145.728 145.383 146.717 145.168 147.706C144.953 148.781 144.953 149.899 144.824 151.017C144.738 152.264 144.394 153.425 143.792 154.5C143.19 155.489 142.502 156.435 141.728 157.295C140.653 158.628 139.492 160.09 139.062 161.767H139.449C139.922 160.133 141.04 158.714 142.115 157.424C143.405 155.833 144.652 154.199 145.039 152.135C145.469 149.856 145.211 147.577 146.372 145.47C147.318 143.707 148.694 142.159 149.425 140.267C150.285 138.031 150.371 135.494 151.747 133.473C151.876 133.301 151.575 133.086 151.403 133.301Z" fill="#31333F"/>
<path d="M137.256 161.81C136.353 158.886 137.084 155.145 139.148 152.608C141.47 149.684 142.846 146.975 141.255 143.879C140.309 141.987 139.836 139.923 139.879 137.816C137.557 142.546 135.235 144.266 135.751 146.846C136.267 149.426 135.665 150.587 134.031 154.586C132.913 157.424 134.031 160.219 134.805 161.595C135.622 161.681 136.439 161.767 137.256 161.81Z" fill="#CFE217"/>
<path d="M135.923 161.723L136.353 161.766C135.407 159.1 135.063 156.262 136.439 153.553C137.17 152.134 138.116 150.887 138.804 149.468C139.535 147.92 139.578 146.458 139.406 144.781C139.148 142.588 139.406 140.352 140.094 138.245C140.18 138.03 139.836 137.901 139.75 138.159C139.148 139.965 138.847 141.857 138.933 143.792C138.976 144.824 139.191 145.813 139.148 146.802C139.105 147.748 138.847 148.651 138.417 149.468C137.686 150.93 136.697 152.263 135.966 153.725C135.235 155.316 134.977 157.036 135.192 158.756C135.321 159.745 135.579 160.734 135.923 161.723Z" fill="#31333F"/>
<path d="M153.252 131.022C155.445 133.516 153.166 135.451 153.295 139.407C153.295 139.708 153.381 140.052 153.467 140.353C155.488 141.901 157.896 142.933 160.39 143.32C160.433 140.267 165.722 138.031 165.464 134.462C165.249 130.764 160.261 132.785 162.067 128.7C163.873 124.615 163.228 119.412 160.347 117.477C158.197 116.058 155.746 112.919 154.628 111.371C154.628 111.801 154.628 112.231 154.628 112.704C154.843 115.112 153.854 117.735 152.607 119.67C151.446 121.433 149.812 122.895 148.909 124.83C148.823 125.045 148.737 125.217 148.651 125.432C147.877 128.614 151.36 128.872 153.252 131.022Z" fill="#CFE217"/>
<path d="M155.617 123.668C156.09 125.775 157.681 127.366 158.498 129.301C159.487 131.709 158.412 133.988 158.025 136.396C157.595 138.933 158.584 141.04 159.831 143.147L160.304 143.233C159.616 142.201 159.057 141.126 158.627 139.965C158.197 138.718 158.154 137.342 158.455 136.052C158.885 133.902 159.745 131.795 159.014 129.602C158.326 127.581 156.692 126.033 156.09 123.969C155.359 121.475 156.778 119.024 156.305 116.53C156.047 115.283 155.402 114.165 154.757 113.047L154.671 112.918C154.671 113.133 154.628 113.348 154.628 113.563C155.187 114.423 155.574 115.369 155.875 116.358C156.434 118.852 155.058 121.26 155.617 123.668Z" fill="#31333F"/>
<path d="M176.257 125.864C178.579 124.918 180.901 121.564 179.224 119.543C177.547 117.522 177.977 114.598 177.977 114.598C177.59 115.501 176.902 116.275 175.956 116.662C171.226 118.296 170.796 121.048 170.667 123.155C170.538 125.262 173.075 129.777 165.507 132.228C158.455 134.464 163.4 142.548 164.174 143.666C165.722 143.709 167.227 143.623 168.732 143.451C170.366 142.591 172.086 141.817 173.849 141.172C178.364 139.495 176.687 135.496 174.709 133.174C172.731 130.852 173.935 126.81 176.257 125.864Z" fill="#CFE217"/>
<path d="M177.805 115.155C176.601 116.918 176.386 119.025 175.827 121.003C175.182 123.153 173.806 124.83 172.688 126.722C172.172 127.582 171.785 128.571 171.57 129.56C171.355 130.635 171.355 131.753 171.226 132.871C171.14 134.118 170.796 135.279 170.194 136.354C169.592 137.343 168.904 138.289 168.13 139.149C167.055 140.482 165.894 141.944 165.464 143.621H165.851C166.324 141.987 167.442 140.568 168.517 139.235C169.807 137.644 171.054 136.01 171.441 133.946C171.871 131.667 171.613 129.388 172.774 127.281C173.72 125.518 175.096 123.97 175.827 122.078C176.687 119.842 176.773 117.305 178.149 115.284C178.278 115.112 177.934 114.94 177.805 115.155Z" fill="#31333F"/>
<path d="M163.658 143.623C162.755 140.699 163.486 137.001 165.55 134.421C167.872 131.497 169.248 128.788 167.657 125.692C166.711 123.8 166.238 121.736 166.281 119.629C163.959 124.359 161.637 126.079 162.153 128.659C162.669 131.239 162.067 132.4 160.433 136.399C159.315 139.237 160.433 141.989 161.207 143.408C162.024 143.537 162.841 143.623 163.658 143.623Z" fill="#CFE217"/>
<path d="M162.325 143.535L162.755 143.578C161.809 140.869 161.465 138.074 162.841 135.365C163.572 133.946 164.518 132.699 165.206 131.28C165.937 129.732 165.98 128.27 165.808 126.593C165.55 124.4 165.808 122.164 166.496 120.057C166.582 119.842 166.238 119.713 166.152 119.971C165.507 121.777 165.249 123.712 165.335 125.604C165.378 126.636 165.593 127.625 165.55 128.614C165.507 129.56 165.249 130.463 164.819 131.28C164.088 132.742 163.099 134.075 162.368 135.537C161.637 137.128 161.379 138.848 161.594 140.568C161.723 141.6 161.981 142.589 162.325 143.535Z" fill="#31333F"/>
<path d="M109.65 125.99L113.004 127.925L133.214 115.971L129.473 114.036C129.086 113.907 109.65 125.99 109.65 125.99Z" fill="white"/>
<path d="M111.456 37.5391C111.284 36.5931 111.026 35.6471 110.682 34.7011C110.295 33.9271 108.145 32.3791 108.317 31.8201C108.489 31.2611 110.639 32.6801 110.639 32.6801C110.639 32.6801 109.134 29.3691 109.478 28.9821C109.908 28.4661 111.241 31.7341 111.198 31.5191C111.155 31.3041 110.467 28.4231 110.983 27.7781C111.499 27.1331 112.187 31.0891 112.187 31.0891C112.187 31.0891 112.359 28.5521 112.832 28.2081C113.305 27.8641 113.133 31.6051 113.133 31.6051C113.133 31.6051 113.778 29.8851 114.208 29.8851C114.638 29.8851 113.563 33.2391 113.563 33.2391L114.552 37.4531" fill="#FCD1C0"/>
<path d="M148.866 50.3549C149.726 49.9249 150.586 49.4089 151.36 48.8499C152.005 48.2479 152.908 45.7539 153.467 45.7539C154.026 45.7539 153.252 48.2479 153.252 48.2479C153.252 48.2479 156.047 45.8829 156.477 46.0979C157.079 46.3559 154.327 48.5489 154.542 48.4629C154.757 48.3769 157.337 46.8719 158.068 47.2159C158.799 47.5599 155.23 49.2799 155.23 49.2799C155.23 49.2799 157.724 48.7639 158.154 49.1509C158.584 49.5379 154.972 50.3549 154.972 50.3549C154.972 50.3549 156.821 50.5269 156.907 50.9139C156.993 51.3009 153.51 51.2149 153.51 51.2149L149.726 53.3219" fill="#FCD1C0"/>
<path d="M123.023 54.0079C123.023 54.0079 115.154 32.6799 114.036 33.3679C112.918 34.0559 111.542 33.1959 110.725 35.4319C110.166 36.9369 117.046 62.9089 120.185 63.3389C126.764 64.2419 128.484 65.6179 128.484 65.6179" fill="#FFC745"/>
<path d="M117.691 110.079C117.691 110.079 114.982 116.572 118.207 119.496C119.798 120.485 121.475 121.388 123.195 122.076C123.195 122.076 119.798 120.098 120.529 116.228C121.26 112.358 123.883 109.004 123.883 109.004" fill="#3E4359"/>
<path d="M133.137 115.674C135.742 110.631 135.304 105.227 132.16 103.603C129.016 101.98 124.356 104.752 121.752 109.795C119.148 114.838 119.586 120.242 122.73 121.865C125.874 123.489 130.533 120.717 133.137 115.674Z" fill="#1E2128"/>
<path d="M130.28 115.221C131.577 112.71 131.362 110.021 129.8 109.215C128.239 108.408 125.922 109.79 124.626 112.301C123.329 114.812 123.544 117.501 125.105 118.308C126.666 119.114 128.983 117.732 130.28 115.221Z" fill="white"/>
<path d="M85.9143 90.6875C85.9143 90.6875 84.4523 92.7515 84.0223 94.3855C84.0223 94.3855 78.7763 93.4395 76.5833 99.0295C74.3903 104.62 74.2183 113.693 77.3573 120.272L78.9913 118.164C78.9913 118.164 83.8073 119.884 84.5383 121.432C85.2693 122.98 86.5163 132.182 86.5163 132.182C86.5163 132.182 93.5253 137.299 101.394 136.052C109.263 134.805 117.347 121.777 118.078 121.261C118.809 120.745 138.761 109.135 140.309 107.544C144.136 103.631 139.879 96.6215 136.052 94.3855C130.204 90.9025 123.281 91.9775 116.917 92.8805C112.531 93.5255 106.124 94.1705 102.813 97.5245C102.598 97.7395 102.383 97.9975 102.211 98.2985C99.9323 101.954 98.3843 106.082 97.6963 110.339L93.9123 112.274C93.9123 112.274 96.9653 104.534 91.2463 97.9545L93.8263 93.9555" fill="#68E1FD"/>
<path opacity="0.56" d="M115.756 120.273L112.746 118.424C112.746 118.424 107.242 119.284 104.146 116.704C101.05 114.124 101.48 112.146 101.48 112.146L97.6963 110.383L93.9123 112.318C93.2243 117.005 92.9663 122.294 94.2993 126.895C94.9013 129.002 95.9763 131.109 97.9973 132.012C100.534 133.173 103.673 132.055 105.78 130.55C109.693 127.755 112.617 123.885 115.756 120.273Z" fill="#31333F"/>
<path d="M70.3053 136.653C70.3053 136.653 67.5963 143.146 70.8213 146.07C72.2833 147.231 74.0033 148.091 75.8093 148.65C75.8093 148.65 72.4553 146.715 73.1863 142.802C73.9173 138.889 76.5403 135.578 76.5403 135.578" fill="#3E4359"/>
<path d="M85.7229 142.264C88.327 137.221 87.8893 131.816 84.7454 130.193C81.6014 128.569 76.9417 131.342 74.3376 136.385C71.7336 141.427 72.1712 146.832 75.3152 148.455C78.4591 150.079 83.1188 147.307 85.7229 142.264Z" fill="#1E2128"/>
<path d="M82.8654 141.815C84.162 139.304 83.9473 136.615 82.3858 135.808C80.8244 135.002 78.5076 136.384 77.211 138.895C75.9144 141.406 76.1291 144.095 77.6905 144.901C79.2519 145.708 81.5688 144.326 82.8654 141.815Z" fill="white"/>
<path opacity="0.33" d="M118.078 121.262C118.078 121.262 117.433 110.34 128.441 103.417C141.427 95.2035 142.975 105.911 140.309 107.588C130.72 113.608 118.078 121.262 118.078 121.262Z" fill="#31333F"/>
<path d="M96.492 112.231C96.492 112.231 94.815 113.908 93.654 114.51C92.493 115.112 91.246 117.047 91.848 118.853C92.45 120.659 99.717 116.789 101.136 115.542C101.136 115.542 101.394 112.231 100.792 111.242C100.19 110.253 96.492 112.231 96.492 112.231Z" fill="#1E2128"/>
<path d="M105.866 119.883C105.866 119.883 101.394 126.548 103.372 129.171C105.35 131.794 109.478 124.054 109.65 123.194C109.822 122.334 109.65 119.324 109.65 119.324L105.866 119.883Z" fill="#1E2128"/>
<path d="M117.089 84.5396C117.089 84.5396 120.099 81.9596 124.399 84.2816C128.699 86.6036 129.86 86.8186 130.075 90.0866C130.29 93.3546 129.903 94.6446 127.882 96.0206C125.861 97.3966 122.937 98.2996 118.035 102.041C118.035 102.041 114.294 104.492 112.574 103.159" fill="#31333F"/>
<path d="M129.602 87.8477C127.839 90.3847 124.872 91.8897 122.163 93.2657C119.454 94.6417 116.745 96.2757 113.95 97.6087L112.617 103.156C114.337 104.446 118.078 102.038 118.078 102.038C122.937 98.2967 125.861 97.3937 127.925 96.0177C129.989 94.6417 130.376 93.3517 130.118 90.0837C130.075 89.3097 129.903 88.5357 129.602 87.8477Z" fill="#1E2128"/>
<path d="M93.9552 72.0234C93.0522 73.0984 92.0632 74.0874 91.0312 74.9904C89.6122 76.1514 83.0762 80.7524 83.0762 80.7524C83.0762 80.7524 85.8712 83.6334 86.3012 83.3324C86.7312 83.0314 93.3532 79.5484 95.3312 77.6994C96.7932 76.3234 97.9112 75.3344 98.5992 74.5174C97.0082 73.5714 95.5892 72.9694 93.9552 72.0234Z" fill="#FCD1C0"/>
<path d="M99.8029 94.5574L81.4419 82.9904C81.4419 82.9904 79.8939 82.5174 79.3349 83.7644C78.7759 85.0114 79.3349 85.5704 79.3349 85.5704L102.039 99.2444C102.039 99.2444 103.888 98.9004 103.673 96.7074L99.8029 94.5574Z" fill="#1E2128"/>
<path d="M84.9679 79.293C84.3659 79.809 83.7209 80.282 83.0759 80.712C82.3449 81.056 79.7649 81.658 79.4209 82.561C79.0769 83.464 78.4319 84.797 79.4209 86.216C80.4099 87.635 82.3019 87.721 82.7319 87.205C83.1619 86.689 82.8609 85.958 83.2909 85.571C83.7209 85.184 85.0539 85.356 85.9139 84.625C86.0859 84.109 86.3009 83.55 86.5589 83.077C86.6879 82.862 87.3759 82.475 88.6229 81.529C87.2899 80.884 86.2579 80.11 84.9679 79.293Z" fill="#FCD1C0"/>
<path d="M115.842 111.157C115.842 111.157 111.37 117.779 113.348 120.445C115.326 123.111 119.454 115.328 119.626 114.468C119.798 113.608 119.626 110.598 119.626 110.598L115.842 111.157Z" fill="#1E2128"/>
<path d="M115.541 75.5078C115.24 75.7228 100.233 82.8178 98.771 86.2148C97.309 89.6118 105.522 102.727 105.522 102.727C105.522 102.727 108.661 105.135 111.37 101.781C111.37 101.781 109.478 92.2778 108.661 90.8158L115.541 87.8058C114.681 90.6008 114.165 93.5248 113.993 96.4488C113.778 100.835 115.541 111.112 115.541 111.112C115.541 111.112 118.551 112.66 120.228 111.112C121.905 109.564 123.883 91.9768 123.883 91.9768C123.883 91.9768 129.215 88.5368 130.161 85.3118C131.408 81.0118 128.14 76.0238 128.14 76.0238L115.541 75.5078Z" fill="#C45E31"/>
<path d="M105.866 84.2812C105.565 84.4962 90.5579 91.5482 89.0959 94.9882C87.6339 98.4282 95.8899 111.5 95.8899 111.5C95.8899 111.5 99.0289 113.908 101.738 110.554C101.738 110.554 99.8459 101.051 99.0289 99.5893L105.909 96.5793C105.049 99.3743 104.533 102.298 104.361 105.222C104.146 109.608 105.909 119.885 105.909 119.885C105.909 119.885 108.919 121.433 110.596 119.885C112.273 118.337 114.251 100.75 114.251 100.75C114.251 100.75 119.325 95.6762 120.228 92.4512C120.959 89.9572 120.959 87.3343 120.185 84.8403L105.866 84.2812Z" fill="#1E2128"/>
<path d="M133.128 59.2973C132.784 58.3083 132.182 57.4053 131.451 56.6743C128.57 53.8363 120.185 53.3203 120.185 53.3203L119.97 53.2773C119.927 53.4493 119.927 53.6213 119.841 53.7503C116.874 57.1473 115.154 65.6183 115.584 75.5083C119.54 75.8093 127.968 77.3143 129.043 77.0563C129.258 70.9933 130.935 64.9733 133.128 59.2973Z" fill="#FFC745"/>
<path d="M151.919 48.7624C151.747 48.4614 151.618 48.1604 151.446 47.8164C146.458 48.7194 133.945 50.7834 123.238 58.8244L128.484 65.6184C128.484 65.6184 139.191 57.3624 153.553 53.1054C153.166 51.6434 152.607 50.1814 151.919 48.7624Z" fill="#FFC745"/>
<path d="M127.624 52.2036L127.366 55.3426C127.366 55.3426 126.248 56.0736 123.066 54.8266L123.453 51.5586L127.624 52.2036Z" fill="#FCD1C0"/>
<path opacity="0.3" d="M127.624 52.2036L127.366 55.3426C127.366 55.3426 126.248 56.0736 123.066 54.8266L123.453 51.5586L127.624 52.2036Z" fill="#C45E31"/>
<path d="M121.733 47.1264C121.389 47.2124 119.712 54.2214 122.507 54.5654C125.302 54.9094 128.355 52.2434 128.742 51.5984C129.129 50.9534 127.581 45.2774 121.733 47.1264Z" fill="#FCD1C0"/>
<path d="M121.217 44.8477C121.217 44.8477 117.82 47.1267 119.282 48.6747C121.69 51.2547 125.345 50.6957 127.624 49.6207" fill="#68E1FD"/>
<path d="M126.205 41.8399C125.259 41.6679 124.313 41.7539 123.41 42.0979C122.722 42.3559 122.12 42.7859 121.647 43.3449C120.959 44.1189 120.744 45.0219 120.271 45.9249C120.271 45.9249 119.54 47.3439 123.109 48.9779C126.678 50.6119 125.603 50.6979 126.033 52.0739C126.463 53.4499 127.882 53.5789 129.258 52.7619C131.021 51.6439 132.182 49.8379 132.483 47.8169C132.741 45.7529 131.494 44.0759 129.731 43.0869C128.57 42.4419 127.409 42.0549 126.205 41.8399Z" fill="#68E1FD"/>
<path opacity="0.33" d="M126.205 41.8399C125.259 41.6679 124.313 41.7539 123.41 42.0979C122.722 42.3559 122.12 42.7859 121.647 43.3449C120.959 44.1189 120.744 45.0219 120.271 45.9249C120.271 45.9249 119.54 47.3439 123.109 48.9779C126.678 50.6119 125.603 50.6979 126.033 52.0739C126.463 53.4499 127.882 53.5789 129.258 52.7619C131.021 51.6439 132.182 49.8379 132.483 47.8169C132.741 45.7529 131.494 44.0759 129.731 43.0869C128.57 42.4419 127.409 42.0549 126.205 41.8399Z" fill="#31333F"/>
<path d="M103.802 61.1023C103.802 61.1023 101.695 61.3603 100.405 62.0913C98.5559 63.1663 95.1589 66.9073 93.5679 71.8093L98.9859 74.7333L101.738 70.8633C101.738 70.8633 104.791 83.1183 105.651 84.4943C106.511 85.8703 118.723 85.2253 120.185 84.8813C120.185 84.8813 121.002 69.0143 114.724 62.8223C111.8 59.9413 103.802 61.1023 103.802 61.1023Z" fill="#FFC745"/>
<path opacity="0.5" d="M103.802 61.1023C103.802 61.1023 101.695 61.3603 100.405 62.0913C98.5559 63.1663 95.1589 66.9073 93.5679 71.8093L98.9859 74.7333L101.738 70.8633C101.738 70.8633 104.791 83.1183 105.651 84.4943C106.511 85.8703 118.723 85.2253 120.185 84.8813C120.185 84.8813 121.002 69.0143 114.724 62.8223C111.8 59.9413 103.802 61.1023 103.802 61.1023Z" fill="#C45E31"/>
<path d="M110.467 74.3047C110.553 74.6487 109.177 81.7007 108.188 83.7217C107.199 85.7427 101.824 91.1177 101.093 91.4617C100.362 91.8057 97.782 92.4077 97.438 93.3107C97.094 94.2137 96.449 95.5467 97.438 96.9657C98.427 98.3847 100.319 98.4707 100.749 97.9547C101.179 97.4387 100.878 96.7077 101.308 96.3207C101.738 95.9337 103.071 96.1057 103.931 95.3747C104.103 94.8587 104.318 94.2997 104.576 93.8267C104.877 93.3537 108.016 91.8917 113.778 85.6567C113.778 85.6567 116.444 80.0237 117.003 75.0357L110.467 74.3047Z" fill="#FCD1C0"/>
<path d="M109.994 58.9531L110.854 61.9631C110.854 61.9631 110.037 63.0381 106.64 62.9521L105.866 59.7701L109.994 58.9531Z" fill="#FCD1C0"/>
<path opacity="0.3" d="M109.994 58.9531L110.854 61.9631C110.854 61.9631 110.037 63.0381 106.64 62.9521L105.866 59.7701L109.994 58.9531Z" fill="#C45E31"/>
<path d="M102.727 56.2009C102.469 56.4159 103.286 63.5969 105.995 62.9089C108.704 62.2209 110.682 58.7379 110.854 58.0069C111.026 57.2759 107.586 52.4599 102.727 56.2009Z" fill="#FCD1C0"/>
<path d="M101.437 54.2227C101.437 54.2227 99.029 57.5337 100.921 58.4797C104.103 60.0707 107.328 58.3077 109.091 56.5017" fill="#68E1FD"/>
<path d="M105.092 49.7078C104.146 49.8798 103.286 50.3098 102.555 50.9118C101.996 51.3848 101.609 52.0298 101.351 52.6748C100.964 53.6638 101.093 54.5668 100.964 55.5558C100.964 55.5558 100.749 57.1468 104.662 57.4478C108.575 57.7488 107.586 58.2218 108.446 59.3828C109.306 60.5438 110.725 60.1568 111.671 58.9098C112.918 57.2758 113.391 55.1688 112.961 53.1478C112.488 51.1268 110.725 49.9658 108.79 49.6648C107.543 49.4498 106.296 49.4928 105.092 49.7078Z" fill="#68E1FD"/>
<path opacity="0.33" d="M105.092 49.7078C104.146 49.8798 103.286 50.3098 102.555 50.9118C101.996 51.3848 101.609 52.0298 101.351 52.6748C100.964 53.6638 101.093 54.5668 100.964 55.5558C100.964 55.5558 100.749 57.1468 104.662 57.4478C108.575 57.7488 107.586 58.2218 108.446 59.3828C109.306 60.5438 110.725 60.1568 111.671 58.9098C112.918 57.2758 113.391 55.1688 112.961 53.1478C112.488 51.1268 110.725 49.9658 108.79 49.6648C107.543 49.4498 106.296 49.4928 105.092 49.7078Z" fill="#31333F"/>
<path d="M101.351 131.624C96.4493 127.367 93.5683 118.38 94.2133 112.059L93.8263 112.231C93.8263 112.231 96.8793 104.491 91.1603 97.9115L93.7403 93.9125L85.9143 90.6445C85.9143 90.6445 84.4523 92.7085 84.0223 94.3425C84.0223 94.3425 78.7763 93.3965 76.5833 98.9865C74.3903 104.577 74.2183 113.65 77.3573 120.229L78.9913 118.122C78.9913 118.122 83.8073 119.842 84.5383 121.39C85.2693 122.938 86.5163 132.14 86.5163 132.14C86.5163 132.14 93.5253 137.257 101.394 136.01C102.77 135.752 104.103 135.236 105.307 134.505C103.931 133.731 102.598 132.742 101.351 131.624Z" fill="#68E1FD"/>
<path d="M85.527 120.787C85.527 120.787 82.904 118.508 79.851 117.691C76.798 116.874 68.499 132.397 68.499 134.461C68.499 136.525 70.176 139.019 74.39 138.245C74.39 138.245 79.292 136.353 82.947 133.816C85.011 132.311 87.548 131.58 90.085 131.709L85.527 120.787Z" fill="#68E1FD"/>
<path opacity="0.33" d="M85.5273 120.785L85.3123 120.613C82.6893 123.365 80.4103 126.418 78.4753 129.686C77.0133 132.266 76.1533 134.975 75.4653 137.813C78.0883 136.695 80.5823 135.362 82.9473 133.814C85.0113 132.309 87.5483 131.578 90.0853 131.707L85.5273 120.785Z" fill="#31333F"/>
<path d="M84.28 115.81C86.0427 115.101 86.7177 112.651 85.7876 110.338C84.8575 108.024 82.6745 106.723 80.9118 107.432C79.1492 108.14 78.4742 110.59 79.4043 112.904C80.3344 115.217 82.5173 116.518 84.28 115.81Z" fill="#31333F"/>
<path d="M83.4854 114.706C84.7192 114.209 85.1881 112.486 84.5326 110.855C83.8771 109.225 82.3455 108.305 81.1116 108.801C79.8777 109.297 79.4088 111.021 80.0643 112.651C80.7198 114.282 82.2515 115.202 83.4854 114.706Z" fill="white"/>
<path d="M86.8601 85.3125C85.6561 85.3985 84.6241 86.2155 84.1511 87.3335C83.3341 89.2685 83.8501 89.6985 84.6241 90.4295C85.3981 91.1605 93.6971 95.7615 93.6971 95.7615C93.6971 95.7615 95.2021 96.6215 96.5781 94.7295C97.9541 92.8375 97.1371 90.9455 96.2771 90.6445C95.4171 90.3435 86.8601 85.3125 86.8601 85.3125Z" fill="#68E1FD"/>
<path opacity="0.33" d="M86.8601 85.3125C85.6561 85.3985 84.6241 86.2155 84.1511 87.3335C83.3341 89.2685 83.8501 89.6985 84.6241 90.4295C85.3981 91.1605 93.6971 95.7615 93.6971 95.7615C93.6971 95.7615 95.2021 96.6215 96.5781 94.7295C97.9541 92.8375 97.1371 90.9455 96.2771 90.6445C95.4171 90.3435 86.8601 85.3125 86.8601 85.3125Z" fill="#31333F"/>
</svg>
