<svg width="222" height="222" viewBox="0 0 222 222" fill="none" xmlns="http://www.w3.org/2000/svg">
<path d="M108.114 185.281L7.94785 126.096C4.75105 124.32 2.04265 121.345 5.15065 119.436L105.672 61.4938C107.182 60.5614 109.491 59.9398 111 60.8278L216.139 121.833C219.336 123.698 219.913 128.849 216.717 130.713L121.301 185.192C117.216 187.545 112.199 187.59 108.114 185.281Z" fill="#FFA366"/>
<path d="M39.25 76.7699V130.272L54.6568 139.063L72.0172 128.807V75.3047" fill="#DD6F31"/>
<path d="M39.25 76.7692L57.0988 66.6016L72.0172 75.304L54.6568 85.6048L39.25 76.7692Z" fill="#DD6F31"/>
<path opacity="0.49" d="M39.25 76.7692L57.0988 66.6016L72.0172 75.304L54.6568 85.6048L39.25 76.7692Z" fill="white"/>
<path opacity="0.2" d="M54.6572 85.6055V139.063L72.0176 128.807V75.3047L54.6572 85.6055Z" fill="white"/>
<path d="M75.569 88.8906L57.6758 99.0582V141.416L73.0826 150.207L90.443 139.951V97.6374L75.569 88.8906Z" fill="#68E1FD"/>
<path opacity="0.49" d="M57.6758 99.0582L75.569 88.8906L90.443 97.6374L73.0826 107.894L57.6758 99.0582Z" fill="white"/>
<path opacity="0.2" d="M73.083 107.893V150.206L90.4434 139.95V97.6367L73.083 107.893Z" fill="black"/>
<path d="M77.3896 126.008V153.492L92.7964 162.283L110.157 152.027V124.543" fill="#A3E271"/>
<path d="M77.3896 126.007L95.2384 115.84L110.157 124.542L92.7964 134.799L77.3896 126.007Z" fill="#A3E271"/>
<path opacity="0.49" d="M77.3896 126.007L95.2384 115.84L110.157 124.542L92.7964 134.799L77.3896 126.007Z" fill="white"/>
<path opacity="0.1" d="M92.7969 134.799V162.283L110.157 152.027V124.543L92.7969 134.799Z" fill="black"/>
<path d="M96.5703 144.969V164.727L111.977 173.518L129.338 163.218V143.504" fill="#FFAD4A"/>
<path d="M96.5703 144.968L114.419 134.801L129.338 143.503L111.977 153.76L96.5703 144.968Z" fill="#FFAD4A"/>
<path opacity="0.6" d="M96.5703 144.968L114.419 134.801L129.338 143.503L111.977 153.76L96.5703 144.968Z" fill="white"/>
<path opacity="0.2" d="M111.978 153.76V173.518L129.338 163.218V143.504L111.978 153.76Z" fill="white"/>
<path d="M186.302 78.1017L106.827 32.3253C105.095 31.3485 102.919 31.9257 101.943 33.6573C101.632 34.1901 101.454 34.8117 101.454 35.4333V83.0745C101.454 84.1401 102.031 85.1169 102.964 85.6497L187.679 134.534C188.611 135.067 189.766 134.756 190.299 133.824C190.476 133.513 190.565 133.202 190.565 132.847V85.4721C190.565 82.4085 188.922 79.6113 186.302 78.1017Z" fill="#68E1FD"/>
<path opacity="0.2" d="M101.454 35.4323C101.454 33.4343 103.053 31.8359 105.051 31.8359C105.672 31.8359 106.294 32.0135 106.827 32.3243L186.302 78.1007C188.922 79.6103 190.521 82.1411 190.521 85.1603V86.5811L101.454 35.4323Z" fill="black"/>
<path d="M105.603 36.1578C105.966 36.0086 106.071 35.428 105.838 34.8611C105.605 34.2941 105.121 33.9555 104.759 34.1048C104.396 34.254 104.291 34.8346 104.524 35.4015C104.757 35.9685 105.24 36.3071 105.603 36.1578Z" fill="white"/>
<path d="M107.775 37.3024C108.138 37.1531 108.243 36.5725 108.01 36.0056C107.776 35.4387 107.293 35.1 106.93 35.2493C106.568 35.3985 106.462 35.9791 106.696 36.5461C106.929 37.113 107.412 37.4516 107.775 37.3024Z" fill="white"/>
<path d="M110.05 38.4078C110.413 38.2586 110.518 37.678 110.285 37.1111C110.052 36.5441 109.569 36.2055 109.206 36.3548C108.843 36.504 108.738 37.0846 108.971 37.6515C109.204 38.2185 109.687 38.5571 110.05 38.4078Z" fill="white"/>
<path d="M107.314 52.0839V82.6755C107.359 82.9863 107.625 83.2083 107.936 83.1639C108.202 83.1195 108.424 82.9419 108.424 82.6755V52.0839C108.38 51.7731 108.114 51.5511 107.803 51.5955C107.536 51.5955 107.359 51.8175 107.314 52.0839Z" fill="#007058"/>
<path d="M131.779 64.6464V95.238C131.824 95.5488 132.09 95.7708 132.401 95.7264C132.667 95.682 132.889 95.5044 132.889 95.238V64.6464C132.845 64.3356 132.578 64.1136 132.268 64.158C132.001 64.2024 131.824 64.38 131.779 64.6464Z" fill="#007058"/>
<path d="M154.689 79.3897V109.981C154.689 110.292 154.956 110.558 155.267 110.558C155.577 110.558 155.844 110.292 155.844 109.981V79.3897C155.844 79.0789 155.577 78.8125 155.267 78.8125C154.956 78.8569 154.689 79.0789 154.689 79.3897Z" fill="#007058"/>
<path d="M179.421 91.8651V122.457C179.465 122.768 179.732 122.99 180.042 122.945C180.309 122.901 180.531 122.723 180.531 122.457V91.8651C180.486 91.5543 180.22 91.3324 179.909 91.3768C179.687 91.3768 179.465 91.5987 179.421 91.8651Z" fill="#007058"/>
<path d="M167.078 105.319L155.578 86.9822L141.104 96.2174L133.067 76.5482L119.658 85.961L114.33 76.4594L107.404 80.2334L107.138 79.745L114.552 75.749L119.836 85.1618L133.289 75.6602L141.37 95.4182L155.756 86.183L167.255 104.52L180.398 94.6634L180.708 95.1074L167.078 105.319Z" fill="white"/>
<path d="M155.001 89.6439C156.03 89.6439 156.865 88.5903 156.865 87.2907C156.865 85.9911 156.03 84.9375 155.001 84.9375C153.971 84.9375 153.136 85.9911 153.136 87.2907C153.136 88.5903 153.971 89.6439 155.001 89.6439Z" fill="#007058"/>
<path d="M132.356 78.6791C133.386 78.6791 134.221 77.6255 134.221 76.3259C134.221 75.0262 133.386 73.9727 132.356 73.9727C131.326 73.9727 130.491 75.0262 130.491 76.3259C130.491 77.6255 131.326 78.6791 132.356 78.6791Z" fill="#007058"/>
<path d="M107.892 82.14C108.922 82.14 109.757 81.0864 109.757 79.7868C109.757 78.4872 108.922 77.4336 107.892 77.4336C106.862 77.4336 106.027 78.4872 106.027 79.7868C106.027 81.0864 106.862 82.14 107.892 82.14Z" fill="#007058"/>
<path d="M179.998 97.5931C181.028 97.5931 181.862 96.5396 181.862 95.2399C181.862 93.9403 181.028 92.8867 179.998 92.8867C178.968 92.8867 178.133 93.9403 178.133 95.2399C178.133 96.5396 178.968 97.5931 179.998 97.5931Z" fill="#007058"/>
<path d="M117.926 55.8101C120.901 54.8777 124.231 57.2753 125.474 61.3157C126.051 63.0473 126.096 64.9565 125.607 66.6881C125.075 68.4641 123.965 69.7073 122.455 70.1513C122.055 70.2845 121.611 70.3289 121.167 70.3289C119.969 70.2845 118.814 69.8849 117.882 69.0857C116.461 67.9313 115.395 66.3773 114.863 64.6013C113.619 60.6497 114.951 56.7425 117.926 55.8101Z" fill="white"/>
<path d="M120.191 55.7223V63.1815L114.686 59.4519C114.73 59.4519 115.751 54.9675 120.191 55.7223Z" fill="#FFAD4A"/>
<path d="M120.191 63.1827L114.641 63.6267C114.641 63.6267 113.93 61.2291 114.729 59.4531L120.191 63.1827Z" fill="#007058"/>
<path d="M142.48 68.9116C145.455 67.9792 148.785 70.3768 150.028 74.4172C150.605 76.1488 150.65 78.058 150.161 79.7896C149.628 81.5656 148.518 82.8088 147.009 83.2528C146.609 83.386 146.165 83.4304 145.721 83.4304C144.522 83.386 143.368 82.9864 142.436 82.1872C141.015 81.0328 139.949 79.4788 139.416 77.7028C138.173 73.7512 139.505 69.8884 142.48 68.9116Z" fill="white"/>
<path d="M144.744 68.82V76.2792L139.283 72.5496C139.283 72.5496 140.349 68.0652 144.744 68.82Z" fill="#FFAD4A"/>
<path d="M144.744 76.2804L139.194 76.7244C139.194 76.7244 138.484 74.3268 139.283 72.5508L144.744 76.2804Z" fill="#007058"/>
<path d="M144.744 76.2795L150.161 74.9031C150.161 74.9031 149.229 70.0191 144.744 68.8203" fill="#FFAD4A"/>
<path d="M166.101 81.2515C169.076 80.3191 172.406 82.7167 173.649 86.7571C174.226 88.4887 174.27 90.3979 173.782 92.1295C173.249 93.9055 172.139 95.1487 170.63 95.5927C170.23 95.7259 169.786 95.8147 169.342 95.7703C168.143 95.7259 166.989 95.3263 166.056 94.5271C164.636 93.3727 163.57 91.8187 163.037 90.0427C161.838 86.0911 163.126 82.1839 166.101 81.2515Z" fill="white"/>
<path d="M168.365 81.1649V88.6241L162.903 84.8945C162.903 84.8945 163.969 80.3657 168.365 81.1649Z" fill="#FFAD4A"/>
<path d="M168.365 88.6241L162.815 89.0681C162.815 89.0681 162.371 86.5817 162.904 84.8945L168.365 88.6241Z" fill="#007058"/>
<path d="M168.365 88.6233V95.8161C168.365 95.8161 173.826 96.8817 174.137 89.8665C174.137 89.8665 174.359 82.6293 168.365 81.1641V88.6233Z" fill="#FFAD4A"/>
<path d="M116.86 134.044C116.549 134 115.661 134 115.306 134C114.285 134.799 112.909 135.11 111.71 135.199C110.245 135.376 108.557 135.154 107.27 134.178C107.137 135.51 107.003 136.575 107.003 136.575C106.87 138.396 109.268 138.04 110.156 137.996C111.932 137.907 113.663 137.641 115.395 137.197C116.061 137.019 118.281 136.664 118.414 135.554C118.547 134.444 118.148 134.178 116.86 134.044Z" fill="#007058"/>
<path d="M112.687 127.426C112.687 127.426 111.31 133.908 111.932 133.864C112.554 133.819 116.816 133.997 116.816 133.997C116.017 135.595 114.463 136.705 112.642 136.927C109.49 137.371 107.226 134.175 107.226 134.175L108.469 126.094" fill="#FFC692"/>
<path d="M106.604 121.078L105.761 129.603C105.761 129.603 107.226 131.113 112.243 130.935C117.26 130.757 112.243 121.833 112.243 121.833" fill="#FFE0DE"/>
<path opacity="0.2" d="M106.604 121.078L105.761 129.603C105.761 129.603 107.226 131.113 112.243 130.935C117.26 130.757 112.243 121.833 112.243 121.833" fill="black"/>
<path d="M104.117 123.431C104.117 123.431 112.953 123.741 115.528 122.587C118.059 121.433 105.804 116.859 105.804 116.859" fill="#FFE0DE"/>
<path d="M103.807 112.021C103.807 112.021 109.357 107.581 113.042 107.048C116.727 106.515 118.636 110.511 118.37 113.22C118.103 115.928 109.268 117.349 109.268 117.349" fill="#FFE0DE"/>
<path d="M122.011 137.861C121.7 137.816 120.812 137.816 120.457 137.816C119.435 138.616 118.059 138.926 116.86 139.015C115.395 139.193 113.708 138.971 112.42 137.994C112.287 139.326 112.154 140.392 112.154 140.392C112.021 142.212 114.418 141.857 115.306 141.812C117.082 141.724 118.814 141.457 120.545 141.013C121.211 140.836 123.431 140.48 123.565 139.37C123.698 138.26 123.343 138.038 122.011 137.861Z" fill="#007058"/>
<path d="M117.881 131.289C117.881 131.289 116.505 137.771 117.126 137.727C117.748 137.683 122.01 137.86 122.01 137.86C121.211 139.503 119.657 140.569 117.837 140.791C114.684 141.235 112.42 138.038 112.42 138.038L113.663 129.957" fill="#FFC692"/>
<path d="M104.162 112.197C104.162 112.197 109.712 107.757 113.397 107.224C117.083 106.691 118.992 110.687 118.725 113.396C118.459 116.104 109.623 117.525 109.623 117.525" fill="#FFE0DE"/>
<path d="M107.137 113.709C107.847 113.043 117.304 108.648 120.59 110.646C123.875 112.644 123.698 114.153 123.298 116.595C122.899 119.037 119.657 132.224 119.657 132.224C119.657 132.224 116.505 133.734 112.109 132.579L113.042 122.767L100.477 115.885" fill="#FFE0DE"/>
<path d="M107.225 112.685L110.2 114.905L122.899 108.378L114.418 102.34L102.475 109.089L107.225 112.685Z" fill="#007058"/>
<path d="M94.5272 105.403C94.5272 105.403 94.3497 97.8998 97.7241 97.811C101.098 97.7222 105.583 100.12 105.849 104.116C106.027 107.268 106.338 110.421 106.56 113.573C106.737 115.527 106.56 117.525 106.027 119.434C105.672 120.544 105.094 122.764 104.162 123.474C103.363 124.096 101.587 124.185 100.654 124.273C98.5676 124.54 96.4808 124.229 94.5716 123.43C89.8208 121.387 92.7956 108.689 92.7956 108.689" fill="#68E1FD"/>
<path d="M116.639 105.493L116.683 105.449C116.905 105.316 116.994 105.005 116.861 104.783C116.727 104.561 116.417 104.472 116.195 104.605C116.15 104.605 116.106 104.65 116.061 104.694C116.061 104.428 115.839 104.206 115.573 104.206C115.484 104.206 115.395 104.206 115.351 104.25C114.774 104.516 114.241 104.827 113.664 105.094C113.753 105.005 113.797 104.916 113.886 104.827C114.197 104.428 113.797 103.762 113.309 104.072C112.643 104.472 111.977 104.916 111.355 105.404C111.133 105.582 111.089 105.893 111.222 106.115C111.222 106.115 111.222 106.115 111.222 106.159L111.133 106.248C110.911 106.426 110.867 106.692 111 106.914C110.955 107.047 110.955 107.225 111.044 107.358C110.733 107.58 110.911 108.024 111.222 108.157L111.266 108.202L110.689 108.424C110.112 108.646 110.334 109.578 110.955 109.356L113.93 108.335C114.685 108.068 115.484 107.846 116.017 107.225C116.15 107.092 116.195 106.87 116.106 106.692C116.328 106.559 116.505 106.426 116.727 106.292C116.905 106.115 116.949 105.848 116.772 105.671C116.727 105.582 116.683 105.538 116.639 105.493Z" fill="#FFC692"/>
<path d="M104.518 107.358C104.518 107.358 109.846 105.182 111.444 104.738C111.444 104.738 113.087 105.893 112.643 108.912C112.643 108.912 107.848 113.796 104.873 115.305" fill="#68E1FD"/>
<path d="M101.498 91.1091C101.498 91.1091 104.073 96.4815 102.386 98.0799C101.187 99.1899 98.834 99.1455 97.6352 97.0587C96.4364 94.9719 99.1892 90.1323 101.498 91.1091Z" fill="#FFC692"/>
<path d="M99.0118 96.2587C99.0118 96.2587 101.232 94.3939 101.498 91.5079C101.765 88.6219 95.4154 89.6431 94.3942 92.4403C93.373 95.2375 94.8826 99.2779 99.145 98.7007L99.0118 96.2587Z" fill="black"/>
<path d="M96.0368 96.6133C95.5928 96.9685 84.4484 108.335 90.2204 112.153C95.06 115.306 96.8804 98.7001 96.8804 97.4125" fill="black"/>
</svg>
