<svg width="215" height="215" viewBox="0 0 215 215" fill="none" xmlns="http://www.w3.org/2000/svg">
<path d="M12.8141 130.848L98.8571 181.158C102.039 183.007 106.038 182.964 109.177 181.029L203.949 122.893C205.497 121.947 205.97 119.926 205.024 118.421C204.723 117.905 204.293 117.518 203.734 117.217L113.649 70.2607C112.66 69.7447 111.499 69.7877 110.553 70.3037L12.8571 125.172C11.2661 126.075 10.7501 128.053 11.6101 129.644C11.9111 130.117 12.2981 130.547 12.8141 130.848Z" fill="#9FBAFF"/>
<path d="M53.3203 136.396C49.6223 134.246 45.9673 132.01 42.2693 129.903C40.7643 128.957 39.0443 128.355 37.2383 128.226C34.9593 128.14 32.0353 129.774 33.4543 132.354C34.1423 133.644 35.5613 134.504 36.7223 135.235C39.1303 136.74 41.6243 138.202 44.0323 139.707C46.9563 141.513 50.6973 144.566 54.3953 144.136C56.5453 143.878 57.9643 142.201 56.3303 140.395C55.4703 139.449 54.1373 138.89 53.0623 138.245L40.1623 130.935C39.8613 130.763 39.4313 130.849 39.2593 131.193C39.0873 131.537 39.1733 131.924 39.5173 132.096L50.3533 138.245C51.5143 138.89 52.7183 139.535 53.8363 140.223C54.1803 140.438 54.8683 140.696 55.0833 141.04C56.3303 142.975 53.4063 142.889 52.3743 142.631C50.3533 142.158 48.5043 140.911 46.7413 139.793C44.6343 138.503 42.5273 137.213 40.4203 135.923C39.1303 135.149 32.2503 132.053 35.9053 129.731C37.5393 128.656 40.5063 130.419 42.0113 131.322C45.5803 133.386 49.1063 135.493 52.6753 137.557C52.9763 137.772 53.4063 137.686 53.6213 137.385C53.8363 137.084 53.7503 136.654 53.4493 136.439C53.3633 136.439 53.3203 136.439 53.3203 136.396Z" fill="#2E3192"/>
<path d="M125.861 67.6853C125.861 67.6853 123.41 51.3453 128.742 49.5393C134.074 47.7333 141.642 51.9473 143.233 56.9353C144.824 61.9233 147.576 80.9293 145.211 82.6493C142.846 84.3693 126.506 81.6603 125.345 77.1023" fill="#F23DB4"/>
<path d="M138.977 78.6914C138.977 78.6914 141.815 76.0684 143.148 73.3164L142.632 80.7984L138.977 78.6914Z" fill="#581B7A"/>
<path d="M95.9331 152.179L49.6221 125.433L100.104 56.2461L146.415 82.9921L95.9331 152.179Z" fill="#FFB9AD"/>
<path d="M49.6221 86.1741V96.4941V125.433L100.104 95.9351V56.2461L49.6221 86.1741Z" fill="#FF8C79"/>
<path d="M71.9821 72.8864L66.2201 69.5754C66.0051 69.4464 49.5791 79.6804 49.5791 79.6804V87.4634" fill="#FF8C79"/>
<path d="M109.392 65.5786L107.629 64.3316C107.027 63.8586 106.21 63.8156 105.522 64.2026L59.211 91.6366C58.351 92.1526 57.835 93.0556 57.835 94.0446V129.735C57.835 130.079 58.007 130.423 58.265 130.595L58.437 130.681L60.243 131.928L61.06 130.38L60.458 130.208L108.36 102.258V65.7936L109.392 65.5786Z" fill="#2E3192"/>
<path d="M71.4657 96.0654C75.0777 94.3024 79.8937 95.2054 82.2157 98.6454C83.2047 100.107 83.7637 101.999 85.2687 102.902C86.5157 103.59 88.0207 103.59 89.3107 102.945C93.1807 101.225 94.5137 96.8394 95.9757 93.2274C97.6527 89.1854 99.8457 84.1974 103.845 82.0044C105.866 81.0584 107.973 80.2414 110.08 79.5534V67.0404C110.08 66.0084 109.22 65.1914 108.188 65.1914C107.844 65.1914 107.543 65.2774 107.242 65.4494L60.8877 92.8834C60.0277 93.3994 59.5117 94.3024 59.5117 95.2914V118.167C60.4577 113.738 61.9197 109.395 63.8547 105.31C65.5317 101.698 67.8107 97.8284 71.4657 96.0654Z" fill="#9FBAFF"/>
<path d="M110.08 103.416V79.5078C107.973 80.1958 105.866 81.0128 103.845 81.9588C99.8457 84.1948 97.6097 89.1398 95.9757 93.1818C94.5137 96.7938 93.1807 101.18 89.3107 102.9C88.0207 103.545 86.5157 103.502 85.2687 102.857C83.7637 101.954 83.2047 100.062 82.2157 98.5998C79.8937 95.2028 75.0777 94.2568 71.4657 96.0198C67.8537 97.7828 65.5317 101.653 63.8977 105.222C61.9627 109.35 60.5007 113.65 59.5547 118.079V130.893C59.5547 131.538 60.0707 132.054 60.7157 132.054C60.9307 132.054 61.1027 132.011 61.3177 131.882L110.08 103.416Z" fill="#2E3192"/>
<path d="M91.066 91.0922C91.7202 88.5632 91.0204 86.1949 89.503 85.8024C87.9856 85.4099 86.2252 87.1419 85.5711 89.6709C84.917 92.1999 85.6168 94.5682 87.1342 94.9606C88.6516 95.3531 90.4119 93.6211 91.066 91.0922Z" fill="#E0FF4B"/>
<path d="M114.552 73.5736L68.2412 101.008C67.3812 101.524 66.8652 102.427 66.8652 103.416V139.106C66.8652 139.45 67.0372 139.751 67.2952 139.966L67.4672 140.052L69.2732 141.299L70.0902 139.751L69.4882 139.579L117.433 111.586V75.2076C117.433 74.1756 116.573 73.3586 115.541 73.3586C115.154 73.3156 114.853 73.4016 114.552 73.5736Z" fill="#2E3192"/>
<path d="M80.453 105.437C84.065 103.674 88.881 104.576 91.203 108.016C92.192 109.479 92.751 111.328 94.256 112.274C95.503 112.962 97.008 112.962 98.298 112.317C102.168 110.554 103.501 106.211 104.963 102.599C106.597 98.5565 108.833 93.5685 112.832 91.3755C114.853 90.4295 116.917 89.6125 119.067 88.8815V76.4115C119.067 75.3795 118.25 74.5625 117.218 74.5625C116.874 74.5625 116.573 74.6485 116.272 74.8205L69.961 102.255C69.101 102.771 68.585 103.674 68.585 104.62V127.495C69.531 123.067 70.993 118.723 72.885 114.596C74.519 111.069 76.841 107.2 80.453 105.437Z" fill="#9FBAFF"/>
<path d="M119.067 112.791V88.8398C116.96 89.5278 114.853 90.3448 112.832 91.2908C108.833 93.5268 106.597 98.4718 104.963 102.514C103.501 106.126 102.168 110.512 98.298 112.232C97.008 112.877 95.503 112.834 94.256 112.189C92.751 111.286 92.192 109.394 91.203 107.932C88.881 104.535 84.065 103.589 80.453 105.352C76.841 107.115 74.519 111.028 72.885 114.554C70.95 118.682 69.488 122.982 68.542 127.454V140.225C68.542 140.87 69.058 141.386 69.703 141.386C69.918 141.386 70.09 141.343 70.305 141.214L119.067 112.791Z" fill="#2E3192"/>
<path d="M100.07 100.44C100.724 97.9108 100.024 95.5425 98.5069 95.1501C96.9895 94.7576 95.2291 96.4896 94.575 99.0185C93.9209 101.548 94.6207 103.916 96.1381 104.308C97.6555 104.701 99.4158 102.969 100.07 100.44Z" fill="#E0FF4B"/>
<path d="M129.946 77.7033L83.6348 105.137C82.7748 105.653 82.2588 106.556 82.2588 107.545V143.235C82.2588 143.579 82.4308 143.88 82.6888 144.095L82.8608 144.181L84.6668 145.428L85.4838 143.88L84.8818 143.708L132.827 115.715V79.2943C132.827 78.2623 131.967 77.4453 130.935 77.4453C130.548 77.4453 130.247 77.5313 129.946 77.7033Z" fill="#2E3192"/>
<path d="M95.8475 109.565C99.4595 107.802 104.275 108.705 106.597 112.145C107.586 113.607 108.145 115.499 109.65 116.402C110.897 117.09 112.402 117.09 113.692 116.445C117.562 114.725 118.895 110.339 120.357 106.727C121.991 102.685 124.227 97.6974 128.226 95.5044C130.247 94.5584 132.311 93.7414 134.461 93.0534V80.5404C134.461 79.5084 133.644 78.6914 132.612 78.6914C132.268 78.6914 131.924 78.7774 131.666 78.9494L85.3555 106.383C84.4955 106.899 83.9795 107.802 83.9795 108.748V131.667C84.9255 127.238 86.3875 122.895 88.3225 118.767C89.9135 115.198 92.2355 111.371 95.8475 109.565Z" fill="#9FBAFF"/>
<path d="M134.462 116.963V93.0117C132.355 93.6997 130.248 94.5167 128.227 95.4627C124.228 97.6987 121.992 102.644 120.358 106.686C118.896 110.298 117.563 114.684 113.693 116.404C112.403 117.049 110.898 117.006 109.651 116.361C108.146 115.458 107.587 113.566 106.598 112.104C104.276 108.707 99.4595 107.761 95.8475 109.524C92.2355 111.287 89.9135 115.157 88.2795 118.726C86.3445 122.854 84.8825 127.197 83.9365 131.626V144.397C83.9365 145.042 84.4525 145.558 85.0975 145.558C85.3125 145.558 85.4845 145.515 85.6565 145.386L134.462 116.963Z" fill="#2E3192"/>
<path d="M115.647 104.345C116.305 101.793 115.608 99.406 114.09 99.0148C112.572 98.6236 110.808 100.376 110.15 102.929C109.492 105.481 110.189 107.868 111.707 108.259C113.225 108.65 114.989 106.898 115.647 104.345Z" fill="#E0FF4B"/>
<path d="M96.8356 112.404C96.2766 112.748 95.9326 113.307 95.9326 113.952V152.179L146.458 122.681V82.9922L96.8356 112.404Z" fill="#FF8C79"/>
<path d="M134.762 53.7956C135.364 53.5376 135.966 53.3656 136.525 53.1936C138.03 52.7206 139.578 52.3766 141.126 51.9896C140.825 45.1956 136.697 37.5416 129.473 38.1866C128.441 38.2296 127.409 38.6166 126.592 39.2616C125.302 40.3366 124.829 42.0996 125.001 44.1636C125.13 46.0986 126.205 47.8186 127.839 48.8506C132.053 51.5166 133.859 52.2906 134.762 53.7956Z" fill="#581B7A"/>
<path d="M126.119 42.9155C126.119 42.9155 126.42 52.5475 129.774 53.0635C133.128 53.5795 135.45 48.5915 135.45 48.5915C135.45 48.5915 137.256 44.1625 135.45 42.9585C133.644 41.7545 128.742 39.6475 126.119 42.9155Z" fill="#FFB9AD"/>
<path d="M133.859 55.2582C133.429 57.6662 133.257 60.7192 135.45 62.3102C136.869 62.0952 138.288 61.6652 139.621 61.1062C141.083 60.3752 142.416 59.3862 143.62 58.2682C143.663 57.8382 143.663 57.4082 143.62 56.9782C143.448 54.3122 140.137 31.7372 129.903 40.5092L131.537 43.9492C132.354 45.6262 133.257 47.3032 133.73 49.1522C134.246 51.1302 134.246 53.2372 133.859 55.2582Z" fill="#581B7A"/>
<path d="M126.119 39.8627C126.076 39.7767 127.581 37.0247 133.042 37.2827C139.277 37.5837 139.965 44.8937 139.965 44.8937" fill="#581B7A"/>
<path d="M125.775 41.7983C125.689 42.0133 125.388 45.0233 126.119 45.8833C126.119 45.8833 130.032 47.8613 132.225 47.9473C132.225 47.9473 132.225 45.4103 132.526 45.1523C132.827 44.8943 132.354 40.4223 129.473 39.8633" fill="#581B7A"/>
<path d="M131.623 79.2515C131.322 79.0795 130.935 79.2085 130.763 79.5095C130.763 79.5525 130.72 79.5955 130.72 79.6385C130.677 79.8535 130.591 80.0255 130.505 80.2405C130.333 80.3265 130.247 80.4555 130.161 80.5845C130.075 80.7995 129.989 80.9715 129.903 81.1865L129.86 81.1005C130.118 80.5415 129.344 79.8965 128.871 80.3265C128.828 80.2835 128.742 80.2835 128.656 80.2835C128.957 80.0685 129.258 79.8535 129.559 79.6385C130.247 79.1655 129.602 78.0475 128.914 78.5205C127.151 79.7675 124.958 80.5845 123.582 82.3905C123.367 82.6485 122.292 83.9385 122.421 84.2825C122.507 84.4975 122.722 84.6695 122.937 84.7125C123.883 84.8415 124.313 83.8095 125.044 83.2075C124.571 84.4115 123.711 85.4435 123.539 86.8195C123.539 87.1635 123.797 87.4645 124.141 87.4645H124.227L124.098 87.7655C123.711 88.4965 124.872 89.1845 125.216 88.4105L125.431 87.9375C125.56 88.2815 125.99 88.4535 126.334 88.3245C126.377 88.2815 126.463 88.2385 126.506 88.2385C126.721 88.0665 126.893 87.8945 127.065 87.7225C127.323 87.9375 127.667 87.9375 127.925 87.7225C129.129 86.5615 129.645 84.9275 130.419 83.5085C131.236 82.4765 131.924 81.4015 132.483 80.1975C132.956 79.3805 132.053 78.7785 131.623 79.2515Z" fill="#FFB9AD"/>
<path d="M125.603 84.4953L124.227 87.2473C124.098 87.4623 124.442 87.6773 124.571 87.4623L125.947 84.7103C126.076 84.4953 125.732 84.2803 125.603 84.4953Z" fill="#581B7A"/>
<path d="M126.678 85.5271C126.334 86.3441 125.947 87.1611 125.56 87.9781C125.474 88.1931 125.775 88.4081 125.904 88.1931C126.291 87.3761 126.678 86.5591 127.022 85.7421C127.065 85.4841 126.764 85.3121 126.678 85.5271Z" fill="#581B7A"/>
<path d="M127.968 85.1398L126.893 87.6338C126.807 87.8488 127.108 88.0638 127.237 87.8488L128.312 85.3548C128.398 85.1398 128.097 84.9248 127.968 85.1398Z" fill="#581B7A"/>
<path d="M134.289 64.0273C134.289 64.0273 129.688 73.9603 125.345 77.0993C125.345 77.0993 129 85.8283 133.429 83.6353C135.02 82.8613 142.588 75.9813 144.437 70.5633" fill="#F23DB4"/>
<path d="M118.336 70.3058C118.336 70.0048 118.121 69.7468 117.82 69.7038L118.121 69.5318C118.379 69.3598 118.465 69.0158 118.336 68.7148C115.283 70.5208 112.101 72.0258 109.048 73.8318C108.188 74.4338 107.371 75.1218 106.597 75.8528C106.124 76.2828 106.64 77.1428 107.242 76.7988C107.758 76.4978 108.231 76.1968 108.704 75.8958C108.274 76.4118 107.887 76.9278 107.5 77.4438C107.156 77.8738 106.468 79.0778 107.242 78.9918C107.543 78.8198 108.403 78.2178 108.833 77.9168L109.005 77.8308L108.876 77.9168C109.005 77.8738 109.392 77.5728 109.392 77.6158C109.736 77.4438 110.08 77.2288 110.467 77.0138C110.467 77.0568 110.51 77.0998 110.553 77.0998H110.639C110.596 77.1858 110.682 77.2718 110.725 77.2718H110.768C110.94 77.2718 111.112 77.1858 111.284 77.1428C111.499 77.0568 111.671 76.9278 111.8 76.7558L111.843 76.7128C111.929 76.6268 112.015 76.4978 112.058 76.3688C112.101 76.3258 112.101 76.2828 112.058 76.2398L112.144 76.1108C112.273 75.9818 112.402 75.8528 112.531 75.6808L114.165 74.6918L114.38 74.6058L115.627 74.1758C115.713 74.1328 115.756 74.0468 115.713 73.9608C115.67 73.9178 115.627 73.8748 115.541 73.8748L115.455 73.9178L115.799 73.7028L116.315 73.2728C117.218 72.6708 118.078 71.9398 118.809 71.1658C119.239 70.7788 118.809 70.3058 118.336 70.3058Z" fill="#FFB9AD"/>
<path d="M116.143 73.7909C115.498 74.3069 114.724 74.6079 113.907 74.7799C113.649 74.8229 113.133 74.7369 112.875 74.9089C112.746 75.0379 112.66 75.1669 112.617 75.3389C112.488 75.6829 112.316 76.0269 112.101 76.3709C111.886 76.6719 111.327 77.2739 110.854 77.1879C110.209 77.0589 111.198 75.0809 111.37 74.7799C111.413 74.6939 111.37 74.6079 111.284 74.5649C111.241 74.5219 111.155 74.5649 111.112 74.6079C110.854 75.0379 110.682 75.4679 110.51 75.9409C110.338 76.3279 110.295 76.7149 110.295 77.1449C110.467 77.7899 111.456 77.4029 111.757 77.1449C112.058 76.8869 112.316 76.5859 112.531 76.2419C112.66 76.0269 112.703 75.8119 112.832 75.5969C112.875 75.4679 112.961 75.3819 113.047 75.2529C113.219 75.0809 113.348 75.1239 113.563 75.0809C114.552 74.9949 115.498 74.6079 116.272 74.0059C116.487 73.9629 116.315 73.7049 116.143 73.7909Z" fill="#581B7A"/>
<path d="M125.904 53.6211C125.904 53.6211 122.765 61.5761 120.701 63.3821C118.637 65.1881 112.058 69.5741 112.058 69.5741C112.058 69.5741 112.015 74.7771 117.39 75.6801C117.39 75.6801 128.441 69.4021 130.892 67.6391" fill="#F23DB4"/>
<path d="M126.721 62.3517L126.033 71.2958C125.99 71.6398 126.549 71.6398 126.549 71.2958L127.237 62.3517C127.28 62.0078 126.764 62.0078 126.721 62.3517Z" fill="#581B7A"/>
<path d="M109.392 75.3367C108.747 75.8957 108.145 76.4977 107.629 77.1427C107.242 77.6157 106.683 78.1747 106.769 78.8197C106.812 79.0347 107.113 78.9487 107.07 78.7337C106.984 78.1317 107.887 77.3147 108.274 76.8847C108.704 76.4117 109.177 75.9817 109.65 75.5517C109.736 75.4227 109.521 75.2077 109.392 75.3367Z" fill="#581B7A"/>
<path d="M155.015 119.969V139.276L140.051 147.876L127.882 140.652V122.764" fill="#FFB883"/>
<path d="M140.051 147.877V128.871L127.882 123.496V140.653L140.051 147.877Z" fill="#EA8E50"/>
<path d="M127.882 121.734V123.497L129.043 123.841L129.817 122.637" fill="#EA8E50"/>
<path d="M142.717 114.422L155.015 121.689L139.621 130.547C139.191 130.805 127.882 123.409 127.882 123.409L142.717 114.422Z" fill="#EA8E50"/>
<path d="M155.015 121.733V119.97L152.779 118.895L153.037 121.948" fill="#EA8E50"/>
<path d="M142.717 112.703L155.015 119.97L139.621 128.828C139.191 129.086 127.882 121.69 127.882 121.69L142.717 112.703Z" fill="#FFB883"/>
<path d="M152.865 125.43V129.429L141.642 135.793V131.88L152.865 125.43Z" fill="#EA8E50"/>
<path d="M152.993 131.363V135.362L141.813 141.769V137.856L152.993 131.363Z" fill="#EA8E50"/>
<path d="M148.284 130.468C148.32 130.09 148.119 129.761 147.836 129.734C147.552 129.707 147.293 129.992 147.257 130.37C147.221 130.748 147.421 131.077 147.705 131.104C147.989 131.131 148.248 130.846 148.284 130.468Z" fill="#FFB883"/>
<path d="M148.751 136.21C148.787 135.832 148.586 135.503 148.303 135.476C148.019 135.449 147.76 135.734 147.724 136.112C147.687 136.49 147.888 136.819 148.172 136.846C148.456 136.873 148.715 136.588 148.751 136.21Z" fill="#FFB883"/>
<path d="M131.322 130.848L110.897 119.281L103.544 123.882L112.746 133.213L124.614 138.545" fill="#F23DB4"/>
<path d="M123.238 135.45L103.544 123.883V126.85V128.269V148.092L123.238 159.057V158.928L123.41 159.057L131.322 154.241V134.977V130.849L123.238 135.45Z" fill="#581B7A"/>
<path d="M124.657 137.213V147.318L130.333 144.007V133.988L124.657 137.213Z" fill="#F23DB4"/>
<path d="M123.238 135.45V159.057L103.544 148.092V123.883L123.238 135.45Z" fill="#581B7A"/>
<path d="M129.207 150.31C129.445 149.292 129.075 148.336 128.381 148.174C127.687 148.012 126.932 148.706 126.695 149.724C126.457 150.741 126.827 151.698 127.521 151.859C128.215 152.021 128.97 151.328 129.207 150.31Z" fill="#F23DB4"/>
<path d="M139.492 111.07C139.492 111.07 137.471 120.272 137.643 120.788C138.03 122.121 143.62 122.938 145.254 120.788L143.233 111.07H139.492Z" fill="#F23DB4"/>
<path d="M141.298 112.232C142.367 112.232 143.233 111.751 143.233 111.157C143.233 110.563 142.367 110.082 141.298 110.082C140.23 110.082 139.363 110.563 139.363 111.157C139.363 111.751 140.23 112.232 141.298 112.232Z" fill="#581B7A"/>
<path d="M145.211 92.1497C145.211 92.1497 141.47 90.1287 139.191 94.2997C136.912 98.4707 140.266 100.406 143.964 100.578C147.662 100.75 148.35 93.5687 145.211 92.1497Z" fill="#E0FF4B"/>
<path d="M144.48 92.1498C141.427 97.8258 140.954 104.362 140.696 110.683C140.696 111.027 141.212 111.027 141.212 110.683C141.47 104.448 141.9 97.9978 144.953 92.4078C145.082 92.1068 144.652 91.8488 144.48 92.1498Z" fill="#2E3192"/>
<path d="M146.673 102.729C146.673 102.729 141.513 102.514 142.115 105.954C142.717 109.394 147.103 108.706 147.791 106.857C148.479 105.008 146.673 102.729 146.673 102.729Z" fill="#E0FF4B"/>
<path d="M146.587 102.898C144.566 105.564 143.018 108.531 141.986 111.67C141.943 111.756 142.029 111.885 142.115 111.928C142.201 111.971 142.33 111.885 142.373 111.799C143.405 108.66 144.953 105.736 146.931 103.113C147.06 102.898 146.759 102.726 146.587 102.898Z" fill="#2E3192"/>
<path d="M135.407 100.06C135.407 100.06 132.612 104.446 135.923 105.65C139.234 106.854 140.825 102.683 139.535 101.178C138.245 99.6733 135.407 100.06 135.407 100.06Z" fill="#E0FF4B"/>
<path d="M140.954 111.283C139.492 107.284 137.686 103.414 135.579 99.7161C135.536 99.6301 135.407 99.5872 135.321 99.6302C135.235 99.6732 135.192 99.8022 135.235 99.8882C137.342 103.543 139.148 107.37 140.567 111.369C140.653 111.627 141.04 111.541 140.954 111.283Z" fill="#2E3192"/>
</svg>
