<svg width="190" height="190" viewBox="0 0 190 190" fill="none" xmlns="http://www.w3.org/2000/svg">
<path d="M90.2498 174.532C119.862 174.532 143.868 162.657 143.868 148.008C143.868 133.36 119.862 121.484 90.2498 121.484C60.6374 121.484 36.6318 133.36 36.6318 148.008C36.6318 162.657 60.6374 174.532 90.2498 174.532Z" fill="#E1FDFF"/>
<path d="M62.9662 130.15L89.2622 115.254C91.9982 113.696 95.3802 113.696 98.1162 115.254L119.396 127.49C120.612 128.174 121.03 129.732 120.346 130.948C120.194 131.214 120.004 131.404 119.814 131.594L87.3622 159.486L62.3202 134.976C61.1042 133.798 61.1042 131.898 62.2442 130.682C62.4722 130.454 62.7002 130.264 62.9662 130.15Z" fill="#68E1FD"/>
<path opacity="0.15" d="M62.9662 130.15L89.2622 115.254C91.9982 113.696 95.3802 113.696 98.1162 115.254L119.396 127.49C120.612 128.174 121.03 129.732 120.346 130.948C120.194 131.214 120.004 131.404 119.814 131.594L87.3622 159.486L62.3202 134.976C61.1042 133.798 61.1042 131.898 62.2442 130.682C62.4722 130.454 62.7002 130.264 62.9662 130.15Z" fill="#6D320B"/>
<path opacity="0.15" d="M119.206 127.527L97.9259 115.291C96.6339 114.531 95.1519 114.113 93.6699 114.113V153.975L119.624 131.669C120.688 130.757 120.802 129.161 119.89 128.097C119.7 127.869 119.472 127.679 119.206 127.527Z" fill="#6D320B"/>
<path d="M120.498 130.492L93.5181 146.414C90.5921 148.124 86.9441 148.162 84.0181 146.452L61.3701 133.266V160.094C61.3701 162.108 62.4341 163.932 64.1821 164.92L85.1961 176.662C87.0581 177.688 89.3381 177.688 91.2001 176.662L118.104 161.576C119.586 160.74 120.536 159.144 120.536 157.434L120.498 130.492Z" fill="#68E1FD"/>
<path d="M64.0684 134.863L80.5224 144.401L78.3184 130.341L64.7904 127.719C64.4104 130.075 64.1824 132.469 64.0684 134.863Z" fill="#FFA133"/>
<path d="M99.2558 119.891C99.7498 118.561 100.206 117.193 100.662 115.787C101.384 113.849 101.916 111.797 102.182 109.745C101.84 108.795 100.51 108.035 99.5978 107.807C98.4578 107.541 97.2798 108.035 96.1398 107.997C94.6198 107.997 93.4418 107.389 91.9978 106.971C90.5538 106.591 88.9958 106.667 87.5898 107.161C84.8538 107.997 82.0798 107.731 79.7998 105.907C78.5078 104.881 77.5198 104.045 75.8858 103.627C73.3778 102.981 70.7938 103.437 69.1218 105.527C67.6398 107.427 67.2978 109.935 68.8938 111.873C69.7298 112.785 70.8318 113.431 72.0858 113.659C73.1878 113.963 74.2138 114.609 75.3538 114.837H75.4678C76.5318 114.913 77.5958 115.065 78.6598 115.255C79.9898 115.635 81.2438 116.319 82.5358 116.775C84.2838 117.383 85.9558 117.155 87.7418 116.927C90.0218 116.623 91.2378 117.345 92.9858 118.637L93.3278 118.865C94.5818 119.625 96.0258 120.005 97.4698 119.967C98.0778 120.081 98.6858 120.005 99.2558 119.891Z" fill="#6D320B"/>
<path d="M56.6579 103.249C56.2779 102.565 55.8599 101.843 55.5179 101.083C55.4039 99.7147 55.3279 98.3847 55.3659 97.0167C55.4799 96.4467 55.4799 95.8767 55.3659 95.3067C55.3279 94.9267 54.9859 94.6227 54.6059 94.6227C54.5679 94.6227 54.4919 94.6227 54.4539 94.6607C53.9599 94.8887 53.5799 95.3447 53.5419 95.9147C53.4659 96.3707 53.3899 96.8267 53.3139 97.2827C52.6299 96.0287 52.0219 94.7367 51.4899 93.4067C51.1479 92.5707 49.7799 92.9887 50.1219 93.8627L50.5019 94.7747C50.1599 94.2807 49.8179 93.7867 49.3999 93.3307C48.9439 92.7607 47.8039 93.1407 48.1459 93.9387C48.6019 95.0407 49.1339 96.1047 49.7419 97.1307C49.2479 96.5227 48.7539 95.8767 48.2979 95.2307C47.7659 94.4707 46.5879 95.2687 47.1199 96.0287C47.7659 96.9407 48.4499 97.8527 49.2099 98.6887C48.7919 98.4987 48.3739 98.3087 47.9939 98.1567C47.1579 97.8147 46.5119 99.0687 47.3479 99.4107C48.1839 99.7527 48.9439 100.133 49.7419 100.513L49.7799 100.589C50.9959 102.793 52.2879 104.959 53.5799 107.087C54.0359 107.885 55.2519 107.087 54.7579 106.289L54.1499 105.301C54.3779 105.225 54.5679 105.111 54.6819 104.921C55.0239 105.111 55.4419 105.035 55.6699 104.693C55.7459 104.579 55.7839 104.465 55.7839 104.313C56.1639 104.503 56.5819 104.313 56.7719 103.971C56.8099 103.705 56.7719 103.477 56.6579 103.249Z" fill="#ED6B84"/>
<path d="M52.592 97.7016C51.794 98.5756 51.034 99.6015 51.338 100.818C51.414 101.084 51.794 100.97 51.718 100.742C51.414 99.6396 52.136 98.7655 52.858 98.0055C53.048 97.7775 52.782 97.5116 52.592 97.7016Z" fill="#6D320B"/>
<path d="M51.6802 96.9036C51.1862 95.8776 50.7302 94.7756 50.3502 93.7116C50.3122 93.5216 50.0082 93.5976 50.0462 93.7876C50.4262 94.8896 50.8822 95.9916 51.3762 97.0556C51.4902 97.2076 51.7562 97.0556 51.6802 96.9036Z" fill="#6D320B"/>
<path d="M50.312 97.6601C49.476 96.4821 48.83 95.1901 48.336 93.8601C48.26 93.6701 47.994 93.7461 48.032 93.9361C48.526 95.3041 49.172 96.5961 50.008 97.8121C50.16 97.9261 50.426 97.8121 50.312 97.6601Z" fill="#6D320B"/>
<path d="M49.6275 99.1825C48.8675 98.3085 48.1835 97.3585 47.5755 96.3325C47.4995 96.1805 47.1955 96.3325 47.3095 96.4845C47.9175 97.5105 48.6015 98.4985 49.3995 99.4105C49.5515 99.5245 49.7795 99.3345 49.6275 99.1825Z" fill="#6D320B"/>
<path d="M75.9615 112.443L71.0975 111.455C66.9935 111.303 63.0795 109.555 60.2295 106.591C58.5195 104.843 57.0375 102.867 55.7835 100.777C54.3015 101.651 53.0095 102.791 51.9075 104.083C51.3375 104.729 50.8055 105.451 50.3115 106.173C52.4395 110.581 57.7595 117.573 64.2195 120.043C64.2195 120.043 64.2195 124.831 64.4095 130.455C68.7415 133.875 74.5175 134.787 79.6855 132.849C79.6855 132.849 77.6335 114.799 75.9615 112.443Z" fill="#FFC931"/>
<path d="M73.4922 112.254C73.4922 112.254 82.8782 119.322 97.4322 128.366C97.4322 128.366 96.5582 133.23 94.5062 135.054C94.5062 135.054 78.5842 129.468 74.4802 122.286" fill="#FFC931"/>
<path d="M69.2358 107.847C69.2358 107.847 67.5258 112.825 70.7178 115.067C73.9098 117.309 78.2038 112.597 77.0258 108.189C75.8478 103.781 71.2498 103.591 69.2358 107.847Z" fill="#ED6B84"/>
<path d="M77.4059 114.381C76.8739 114.495 76.3419 114.343 75.9619 113.963C75.5059 113.507 75.5439 112.823 75.5439 112.177C75.5819 111.341 75.2019 110.581 74.5179 110.125C73.6819 109.555 72.6559 109.403 71.8959 108.719C71.8199 108.643 71.7439 108.567 71.6679 108.491C71.7819 108.567 71.8579 108.681 72.0099 108.719C73.2259 109.479 75.0499 109.631 75.6199 109.897C76.1899 110.163 75.2779 112.443 76.3039 113.469C77.3299 114.495 79.7239 108.225 78.3559 106.553C76.9879 104.881 72.3519 102.867 70.3379 105.679C70.3759 105.945 70.4519 106.173 70.5279 106.439C70.5659 107.199 70.8699 107.921 71.3259 108.529C72.0859 109.479 73.1499 109.669 74.1379 110.239C74.7839 110.543 75.2019 111.189 75.2399 111.911C75.2019 112.481 75.2779 113.089 75.4299 113.621C75.8099 114.419 76.6839 114.837 77.5199 114.609C77.7099 114.609 77.5959 114.343 77.4059 114.381Z" fill="#6D320B"/>
<path d="M103.284 95.8745C105.792 82.3085 110.124 69.1225 116.166 56.6965C116.47 56.0505 115.52 55.4805 115.178 56.0885C105.906 75.1265 100.662 95.9125 99.7882 117.079C99.6362 120.993 99.5222 124.945 99.7122 128.897C92.6442 108.339 92.8342 85.9945 100.32 65.5885C100.586 64.9045 99.4842 64.6005 99.2182 65.2845C91.9982 85.0065 91.5042 106.515 97.7362 126.541C90.8962 117.269 86.2602 106.515 84.2462 95.1525C81.8522 81.5485 83.1822 67.6405 84.5122 53.9985C84.5882 53.2765 83.4482 53.2765 83.3722 53.9985C82.0042 68.0965 80.6742 82.4605 83.3722 96.5205C85.7282 108.567 90.9342 119.853 98.5722 129.467C98.6102 129.543 98.6862 129.581 98.7622 129.619C98.9522 130.113 99.1042 130.607 99.2942 131.101C99.0282 131.139 98.8382 131.367 98.8382 131.633C98.7242 142.349 100.624 153.027 104.424 163.059C104.69 163.743 105.792 163.439 105.526 162.755C102.106 153.787 100.244 144.325 100.016 134.711C101.992 145.693 105.374 156.409 110.048 166.593C110.352 167.239 111.34 166.669 111.036 165.985C107.008 157.207 103.93 147.973 101.916 138.511C101.992 138.397 102.03 138.207 101.992 138.093C100.434 131.101 100.624 123.653 100.928 116.509C101.232 109.631 102.03 102.715 103.284 95.8745Z" fill="#29ABE2"/>
<path d="M121.714 76.6478C122.094 76.0398 121.106 75.4698 120.726 76.0398C110.58 91.5818 100.928 108.682 100.738 127.606C100.7 127.682 100.662 127.796 100.662 127.872C100.662 128.138 100.7 128.404 100.738 128.67C100.738 129.278 100.738 129.81 100.776 130.38C100.434 130.418 100.206 130.684 100.206 131.026C100.206 131.064 100.206 131.064 100.206 131.102C100.548 132.508 100.89 133.952 101.308 135.32C103.284 145.428 106.286 155.346 110.238 164.846C110.504 165.53 111.606 165.226 111.34 164.542C108.794 158.424 106.666 152.154 104.918 145.77C107.274 151.47 110.162 156.904 113.544 162.034C113.924 162.642 114.912 162.072 114.532 161.426C109.516 153.826 105.64 145.542 102.98 136.802C102.448 134.104 102.106 131.406 101.916 128.67C101.688 109.594 111.492 92.3418 121.714 76.6478Z" fill="#29ABE2"/>
<path d="M102.752 133.611C102.904 133.383 102.866 133.041 102.6 132.889C102.524 132.851 102.41 132.813 102.296 132.813C102.41 132.699 102.524 132.585 102.638 132.471C102.79 132.281 102.79 132.015 102.6 131.863C102.562 131.825 102.524 131.825 102.524 131.787C102.448 131.635 102.334 131.483 102.182 131.445L102.524 131.141L102.6 131.065L102.714 130.989C102.942 130.799 102.942 130.457 102.752 130.229C102.676 130.115 102.524 130.077 102.41 130.077C102.562 129.963 102.676 129.849 102.79 129.697V129.583C103.018 129.393 103.056 129.051 102.866 128.823C102.752 128.671 102.562 128.633 102.372 128.633C101.536 128.747 100.738 129.051 100.092 129.583C99.8642 129.773 99.8642 130.115 100.054 130.305C100.13 130.381 100.206 130.419 100.282 130.457C100.396 130.495 100.51 130.495 100.662 130.495C100.32 130.647 100.016 130.799 99.7122 131.027C99.4842 131.217 99.4842 131.559 99.6742 131.749C99.9022 132.015 100.206 132.205 100.586 132.205C100.358 132.433 100.168 132.661 99.9782 132.927C99.8262 133.155 99.9022 133.497 100.13 133.649C100.244 133.725 100.396 133.763 100.51 133.725C100.662 133.687 100.814 133.649 100.966 133.573C100.738 133.801 100.586 134.067 100.472 134.371C100.282 134.903 100.928 135.207 101.308 134.941C101.802 134.561 102.22 134.143 102.638 133.687L102.676 133.649L102.752 133.611Z" fill="#ED6B84"/>
<path d="M100.244 128.25C99.7878 127.034 98.4198 128.326 97.6598 129.2C97.6218 129.238 97.5838 129.238 97.5458 129.276C97.3938 129.428 97.2418 129.542 97.0518 129.656C96.5958 131.176 96.0258 132.62 95.3418 134.026C95.6838 134.216 96.0258 134.368 96.4058 134.444C96.9378 134.558 97.5078 134.52 98.0018 134.368C99.1038 133.95 99.0658 132.81 98.8758 131.822C99.0658 131.48 99.1418 131.062 99.1038 130.682C99.1038 130.568 99.0658 130.492 99.0278 130.378C99.8258 129.884 100.624 129.2 100.244 128.25Z" fill="#ED6B84"/>
<path d="M140.372 27.2488C129.77 25.6148 121.638 37.5468 123.424 47.7308C123.69 49.1748 125.894 56.8508 128.06 59.4728L127.984 59.5488C126.844 59.3208 125.742 59.8908 125.286 60.9548C124.678 62.3608 125.818 63.7668 127.148 64.1468C128.478 64.6408 129.922 63.9568 130.416 62.6268C130.682 61.8668 130.606 61.0308 130.15 60.3468C137.142 60.4228 144.438 57.0408 148.998 51.9488C156.56 43.5888 153.52 29.2628 140.372 27.2488Z" fill="#9EDC33"/>
<path d="M126.92 47.9212C127.452 43.6272 129.048 39.4852 131.518 35.9132C135.166 30.7072 140.6 27.9332 146.566 29.4912C144.666 28.3132 142.576 27.5532 140.372 27.2492C129.732 25.6152 121.6 37.5092 123.424 47.6932C124.184 50.8852 125.248 54.0012 126.578 56.9652C126.16 54.0012 126.54 50.7712 126.92 47.9212Z" fill="#95CE29"/>
<path d="M106.893 12.6567C96.2155 13.6447 91.1995 27.1727 95.4175 36.6347C96.0255 38.0027 100.015 44.8807 102.751 46.9327L102.675 47.0087C101.535 47.0467 100.585 47.8827 100.395 49.0227C100.167 50.5047 101.573 51.6067 102.941 51.6827C104.347 51.8347 105.601 50.8087 105.715 49.4027C105.791 48.6427 105.525 47.8447 104.955 47.3127C111.757 45.7167 117.989 40.6247 121.219 34.5827C126.577 24.5887 120.155 11.4407 106.893 12.6567Z" fill="#FFC931"/>
<path d="M98.8755 35.9878C98.3435 31.6558 98.8755 27.2858 100.433 23.2198C102.713 17.2538 107.311 13.2638 113.467 13.3398C111.339 12.6558 109.135 12.4278 106.893 12.6558C96.2155 13.6818 91.1995 27.2098 95.4175 36.6718C96.8995 39.5978 98.6855 42.3338 100.737 44.9178C99.6355 42.0678 99.2175 38.8378 98.8755 35.9878Z" fill="#FFA133"/>
<path d="M116.089 30.4027C105.373 29.7567 98.3815 42.3727 101.117 52.3667C101.497 53.8107 104.385 61.2207 106.817 63.6527L106.741 63.7287C105.601 63.5767 104.537 64.2987 104.195 65.3627C103.777 66.8067 104.993 68.0987 106.323 68.3647C107.691 68.7067 109.059 67.9087 109.439 66.5407C109.629 65.7807 109.477 64.9827 108.983 64.3367C115.937 63.8047 122.891 59.7387 126.995 54.1907C133.721 45.1847 129.389 31.2007 116.089 30.4027Z" fill="#68E1FD"/>
<path d="M104.614 52.2527C104.728 47.9207 105.944 43.6647 108.072 39.8647C111.226 34.3547 116.432 31.0487 122.474 32.0747C120.498 31.0867 118.332 30.5167 116.09 30.4027C105.412 29.7567 98.3823 42.3727 101.118 52.3667C102.144 55.4827 103.512 58.4467 105.108 61.2967C104.424 58.3707 104.5 55.1407 104.614 52.2527Z" fill="#29ABE2"/>
<path d="M86.6777 25.27C75.9997 26.258 70.9836 39.786 75.2016 49.248C75.8096 50.616 79.7996 57.494 82.5356 59.546L82.4597 59.622C81.3197 59.66 80.3697 60.496 80.1797 61.636C79.9517 63.118 81.3576 64.22 82.7256 64.296C84.1316 64.448 85.3856 63.422 85.4997 62.016C85.5757 61.218 85.3097 60.458 84.7396 59.926C91.5417 58.33 97.7736 53.238 101.004 47.196C106.324 37.202 99.9397 24.054 86.6777 25.27Z" fill="#FF8597"/>
<path d="M78.6216 48.5659C78.0896 44.2339 78.6216 39.8639 80.1796 35.7979C82.4596 29.8319 87.0576 25.8419 93.2136 25.9179C91.0856 25.2339 88.8816 25.0059 86.6396 25.2339C75.9616 26.2219 70.9456 39.7499 75.1636 49.2119C76.6456 52.1379 78.4316 54.8739 80.4836 57.4579C79.3816 54.6839 78.9636 51.4159 78.6216 48.5659Z" fill="#ED6B84"/>
<path d="M133.532 55.5596C123.386 52.1396 113.316 62.5136 113.354 72.8496C113.354 74.3316 114.228 82.2356 115.9 85.2376L115.786 85.3136C114.722 84.8956 113.506 85.2756 112.898 86.2256C112.1 87.5176 112.936 89.0756 114.152 89.6836C115.368 90.3676 116.926 89.9496 117.61 88.6956C117.99 88.0116 118.028 87.2136 117.762 86.4916C124.602 87.7836 132.392 85.6556 137.788 81.4376C146.718 74.4076 146.148 59.7776 133.532 55.5596Z" fill="#FF8597"/>
<path d="M116.736 73.6477C117.99 69.4677 120.232 65.7056 123.31 62.5896C127.794 58.0676 133.646 56.2817 139.232 58.8277C137.56 57.3457 135.622 56.2436 133.494 55.5596C123.348 52.1396 113.278 62.5136 113.316 72.8496C113.506 76.1177 114 79.3856 114.836 82.5396C114.988 79.4996 115.9 76.3837 116.736 73.6477Z" fill="#ED6B84"/>
<path d="M99.788 49.2895C89.11 50.2775 84.094 63.8055 88.312 73.2675C88.92 74.6355 92.91 81.5135 95.646 83.5655L95.57 83.6415C94.43 83.6795 93.48 84.5155 93.29 85.6555C93.062 87.1375 94.468 88.2395 95.836 88.3155C97.242 88.4675 98.496 87.4415 98.61 86.0355C98.686 85.2375 98.42 84.4775 97.85 83.9455C104.652 82.3495 110.884 77.2575 114.114 71.2155C119.472 61.2215 113.05 48.0735 99.788 49.2895Z" fill="#9EDC33"/>
<path d="M91.77 72.6206C91.238 68.2886 91.77 63.9186 93.328 59.8526C95.608 53.8866 100.206 49.8966 106.362 49.9726C104.234 49.2886 102.03 49.0606 99.788 49.2886C89.11 50.2766 84.094 63.8046 88.312 73.2666C89.794 76.1926 91.58 78.9286 93.632 81.5126C92.492 78.7006 92.074 75.4706 91.77 72.6206Z" fill="#95CE29"/>
<path d="M55.7086 73.4913C55.3666 73.0733 50.9206 70.4133 50.9206 70.4133C50.0086 69.3873 48.2986 69.7293 46.0946 71.6673C46.0946 71.6673 46.0186 69.5393 43.4726 69.1973C40.9266 68.8553 40.2046 69.9953 40.2046 69.9953C40.2046 69.9953 39.3686 65.9673 34.2386 67.4873C29.6406 68.8553 30.2866 73.4913 30.2866 73.4913C30.2866 73.4913 27.3986 72.7693 25.1186 75.9233C23.7126 77.9373 22.9906 80.3693 23.0286 82.8013C23.0286 82.8013 18.2026 84.5493 17.5946 88.9193C17.5566 89.2993 17.5186 89.6793 17.5186 90.0593V90.1733C17.5186 91.1233 17.5946 92.0733 17.7846 92.9853C17.8606 93.5173 18.2026 93.9733 18.6586 94.2773L23.7886 97.2033C23.9406 95.9493 23.7506 94.6573 23.2566 93.4413L48.6026 78.7733C49.7806 77.6713 50.7306 76.3033 51.3386 74.8213L53.2766 74.3273C53.2386 74.3653 56.0506 73.9093 55.7086 73.4913Z" fill="#68E1FD"/>
<path opacity="0.1" d="M55.7086 73.4913C55.3666 73.0733 50.9206 70.4133 50.9206 70.4133C50.0086 69.3873 48.2986 69.7293 46.0946 71.6673C46.0946 71.6673 46.0186 69.5393 43.4726 69.1973C40.9266 68.8553 40.2046 69.9953 40.2046 69.9953C40.2046 69.9953 39.3686 65.9673 34.2386 67.4873C29.6406 68.8553 30.2866 73.4913 30.2866 73.4913C30.2866 73.4913 27.3986 72.7693 25.1186 75.9233C23.7126 77.9373 22.9906 80.3693 23.0286 82.8013C23.0286 82.8013 18.2026 84.5493 17.5946 88.9193C17.5566 89.2993 17.5186 89.6793 17.5186 90.0593V90.1733C17.5186 91.1233 17.5946 92.0733 17.7846 92.9853C17.8606 93.5173 18.2026 93.9733 18.6586 94.2773L23.7886 97.2033C23.9406 95.9493 23.7506 94.6573 23.2566 93.4413L48.6026 78.7733C49.7806 77.6713 50.7306 76.3033 51.3386 74.8213L53.2766 74.3273C53.2386 74.3653 56.0506 73.9093 55.7086 73.4913Z" fill="#6D320B"/>
<path d="M26.5239 97.621L53.4659 82.003C53.4659 82.003 56.7719 79.1151 56.5439 75.8471C56.3159 72.5791 54.1879 72.0851 50.9579 74.8971C50.9579 74.8971 50.8819 72.1611 48.3359 72.4271C46.9299 72.5031 45.6379 73.225 44.8399 74.365C44.8399 74.365 45.3339 69.539 40.2799 71.021C37.6199 71.781 35.6439 73.985 35.2259 76.721C35.2259 76.721 32.3379 75.9991 30.0579 79.1531C28.6519 81.1671 27.9299 83.5611 27.9299 85.9931C27.9299 85.9931 23.1039 87.741 22.4959 92.111C21.8879 96.481 23.9779 98.533 26.5239 97.621Z" fill="#68E1FD"/>
<path d="M37.0884 123.499C36.8983 123.233 34.1244 121.599 34.1244 121.599C33.5164 120.953 32.4904 121.181 31.0844 122.397C31.0084 121.561 30.2864 120.877 29.4504 120.877C27.8544 120.649 27.3984 121.371 27.3984 121.371C27.3984 121.371 26.8664 118.863 23.6744 119.813C22.0024 120.269 20.9384 121.903 21.1664 123.613C21.1664 123.613 19.3804 123.157 17.9364 125.133C17.0624 126.387 16.6064 127.907 16.6064 129.427C16.6064 129.427 13.6044 130.529 13.1864 133.265C13.1484 133.493 13.1484 133.759 13.1104 133.987V134.063C13.1104 134.671 13.1484 135.279 13.2624 135.849C13.3384 136.191 13.5284 136.495 13.8324 136.647L17.0244 138.433C17.1384 137.635 17.0244 136.837 16.7204 136.077L32.5664 126.881C33.3263 126.197 33.8964 125.361 34.2764 124.411L35.4544 124.107C35.4924 124.031 37.2784 123.765 37.0884 123.499Z" fill="#68E1FD"/>
<path opacity="0.15" d="M37.0884 123.499C36.8983 123.233 34.1244 121.599 34.1244 121.599C33.5164 120.953 32.4904 121.181 31.0844 122.397C31.0084 121.561 30.2864 120.877 29.4504 120.877C27.8544 120.649 27.3984 121.371 27.3984 121.371C27.3984 121.371 26.8664 118.863 23.6744 119.813C22.0024 120.269 20.9384 121.903 21.1664 123.613C21.1664 123.613 19.3804 123.157 17.9364 125.133C17.0624 126.387 16.6064 127.907 16.6064 129.427C16.6064 129.427 13.6044 130.529 13.1864 133.265C13.1484 133.493 13.1484 133.759 13.1104 133.987V134.063C13.1104 134.671 13.1484 135.279 13.2624 135.849C13.3384 136.191 13.5284 136.495 13.8324 136.647L17.0244 138.433C17.1384 137.635 17.0244 136.837 16.7204 136.077L32.5664 126.881C33.3263 126.197 33.8964 125.361 34.2764 124.411L35.4544 124.107C35.4924 124.031 37.2784 123.765 37.0884 123.499Z" fill="#6D320B"/>
<path d="M18.8485 138.586L35.6825 128.82C35.6825 128.82 37.7345 127.034 37.6205 124.982C37.5065 122.93 36.1385 122.588 34.1245 124.374C34.1245 124.374 34.0865 122.664 32.4905 122.854C31.6165 122.892 30.8185 123.348 30.2865 124.032C30.2865 124.032 30.5905 120.992 27.4365 121.942C25.7645 122.398 24.5105 123.804 24.2445 125.514C24.2445 125.514 22.4585 125.058 21.0145 127.034C20.1405 128.288 19.6845 129.77 19.6845 131.29C19.6845 131.29 16.6825 132.392 16.2645 135.128C15.8465 137.864 17.2145 139.156 18.8485 138.586Z" fill="#68E1FD"/>
<path d="M176.852 102.563C176.434 102.031 170.468 98.4587 170.468 98.4587V98.4967C169.252 97.1287 166.972 97.6227 164.008 100.169C164.008 100.169 163.894 97.3567 160.512 96.9007C157.13 96.4447 156.18 97.9647 156.18 97.9647C156.18 97.9647 155.04 92.6067 148.276 94.6207C142.12 96.4447 142.994 102.639 142.994 102.639C142.994 102.639 139.156 101.689 136.116 105.869C134.254 108.567 133.266 111.759 133.304 115.027C133.304 115.027 126.882 117.345 126.046 123.197C125.97 123.691 125.932 124.223 125.932 124.717V124.869C125.894 126.123 126.008 127.377 126.274 128.631C126.388 129.353 126.844 129.961 127.452 130.341L134.292 134.217C134.52 132.507 134.254 130.797 133.608 129.239L167.39 109.631C168.986 108.149 170.24 106.363 171.076 104.349L173.66 103.665C173.584 103.703 177.27 103.095 176.852 102.563Z" fill="#68E1FD"/>
<path opacity="0.15" d="M176.852 102.563C176.434 102.031 170.468 98.4587 170.468 98.4587V98.4967C169.252 97.1287 166.972 97.6227 164.008 100.169C164.008 100.169 163.894 97.3567 160.512 96.9007C157.13 96.4447 156.18 97.9647 156.18 97.9647C156.18 97.9647 155.04 92.6067 148.276 94.6207C142.12 96.4447 142.994 102.639 142.994 102.639C142.994 102.639 139.156 101.689 136.116 105.869C134.254 108.567 133.266 111.759 133.304 115.027C133.304 115.027 126.882 117.345 126.046 123.197C125.97 123.691 125.932 124.223 125.932 124.717V124.869C125.894 126.123 126.008 127.377 126.274 128.631C126.388 129.353 126.844 129.961 127.452 130.341L134.292 134.217C134.52 132.507 134.254 130.797 133.608 129.239L167.39 109.631C168.986 108.149 170.24 106.363 171.076 104.349L173.66 103.665C173.584 103.703 177.27 103.095 176.852 102.563Z" fill="#6D320B"/>
<path d="M137.94 134.709L173.85 113.847C173.85 113.847 178.258 109.971 177.992 105.639C177.726 101.307 174.876 100.623 170.544 104.347C170.544 104.347 170.468 100.737 167.048 101.079C163.628 101.421 162.374 103.663 162.374 103.663C162.374 103.663 163.058 97.2032 156.256 99.2172C152.684 100.205 150.062 103.207 149.492 106.855C149.492 106.855 145.654 105.905 142.614 110.123C140.752 112.821 139.764 116.013 139.802 119.243C139.802 119.243 133.38 121.561 132.544 127.413C131.708 133.265 134.52 135.925 137.94 134.709Z" fill="#68E1FD"/>
</svg>
