<svg width="203" height="203" viewBox="0 0 203 203" fill="none" xmlns="http://www.w3.org/2000/svg">
<path d="M105.56 188.871C138.902 188.871 165.932 177.601 165.932 163.699C165.932 149.797 138.902 138.527 105.56 138.527C72.2171 138.527 45.1875 149.797 45.1875 163.699C45.1875 177.601 72.2171 188.871 105.56 188.871Z" fill="#D36D29"/>
<path d="M100.364 175.028C108.57 175.028 115.223 173.683 115.223 172.024C115.223 170.365 108.57 169.02 100.364 169.02C92.1568 169.02 85.5039 170.365 85.5039 172.024C85.5039 173.683 92.1568 175.028 100.364 175.028Z" fill="#93430D"/>
<path d="M164.471 52.4141C164.471 52.4141 166.663 54.3223 163.943 58.1793C161.223 62.0363 132.356 62.8077 129.108 44.1723C125.86 25.5369 164.471 52.4141 164.471 52.4141Z" fill="#68E1FD"/>
<path opacity="0.61" d="M164.673 52.9419C165.688 53.7945 165.404 54.9313 165.038 56.1087C164.551 57.9357 163.049 59.3161 161.181 59.6409C159.436 60.0875 157.649 60.3311 155.863 60.3717C153.589 60.4529 151.275 60.3311 149.001 60.0063C146.525 59.6815 144.129 59.0725 141.815 58.2199C139.46 57.3673 137.268 56.1493 135.319 54.6471C131.99 52.0893 129.757 48.3541 129.067 44.2129C128.823 42.7513 128.701 41.0867 129.351 39.7063C129.879 38.6913 130.813 38.0011 131.949 37.7981C133.37 37.5545 134.832 37.5951 136.253 37.9605C138.08 38.3665 139.907 38.9349 141.653 39.6657C143.683 40.4777 145.632 41.3709 147.58 42.3859C149.529 43.4009 151.478 44.4565 153.386 45.5527C155.091 46.5677 156.797 47.5827 158.542 48.6383C159.842 49.4503 161.1 50.2623 162.399 51.1149C163.049 51.5615 163.739 51.9675 164.348 52.4547C164.348 52.3735 164.632 52.8607 164.673 52.9419Z" fill="black"/>
<path d="M98.9828 130.202L84.7728 107.141L76.3686 93.4586C75.719 92.5248 75.11 91.5098 74.5416 90.4948C74.501 90.4136 74.4198 90.2106 74.501 90.4948C74.4604 90.3324 74.4604 90.17 74.4604 89.967C74.3792 89.0332 74.298 88.0994 74.1762 87.2062L72.5928 70.9256C72.5522 70.5196 71.9026 70.5196 71.9432 70.9256L73.3236 85.3386C73.486 86.9626 73.3642 88.952 73.8108 90.4948C74.095 91.185 74.501 91.8346 74.9476 92.4436L92.6086 121.107L98.3738 130.486C98.5768 130.851 99.1452 130.486 98.9422 130.161L98.9828 130.202Z" fill="#42210B"/>
<path d="M56.7176 81.5217L73.8914 90.5349C74.2568 90.7379 74.5816 90.1695 74.2162 89.9665L57.083 80.9533C56.677 80.7503 56.3522 81.3187 56.7176 81.5217Z" fill="#42210B"/>
<path d="M64.9598 76.1632L75.6376 93.4994C75.8406 93.8648 76.409 93.4994 76.206 93.1746L65.5282 75.8384C65.2846 75.5136 64.7162 75.879 64.9598 76.1632Z" fill="#42210B"/>
<path d="M100.769 128.985L93.989 99.9964L89.8478 82.2542C89.523 80.8332 89.1982 79.4122 88.8328 77.9912C88.711 77.5446 88.7516 77.707 88.7516 77.5852C88.8734 76.7732 89.0358 76.0018 89.2794 75.1898L93.1364 57.4476C93.177 57.2852 93.0552 57.0822 92.8928 57.0416C92.7304 57.001 92.568 57.0822 92.5274 57.2446L89.0764 73.038C88.7516 74.459 88.0208 76.2454 88.102 77.707C88.2644 78.722 88.4674 79.6964 88.7922 80.6302L97.3994 117.495L100.12 129.107C100.201 129.553 100.81 129.391 100.769 128.985Z" fill="#42210B"/>
<path d="M75.5969 62.8475L88.1829 77.5853C88.4671 77.9101 88.9137 77.4229 88.6295 77.1387L76.0435 62.4415C75.7999 62.0761 75.3533 62.5227 75.5969 62.8475Z" fill="#42210B"/>
<path d="M84.0826 60.6163L88.914 81.0787C88.9952 81.4847 89.6448 81.3223 89.5636 80.9163L84.7322 60.4539C84.6104 60.0479 84.0014 60.2103 84.0826 60.6163Z" fill="#42210B"/>
<path d="M105.154 127.119L106.859 94.2736L107.914 73.933C107.996 72.2278 108.117 70.482 108.199 68.7362C108.199 68.5332 108.28 67.9648 108.199 68.249C108.483 67.5182 108.808 66.7874 109.173 66.0972L117.252 47.8678C117.415 47.5024 116.846 47.1776 116.684 47.543L109.417 63.9454C108.808 65.2852 107.874 66.7874 107.59 68.2084C107.427 69.4264 107.387 70.685 107.387 71.903L105.194 114.086L104.504 127.16C104.504 127.322 104.666 127.484 104.829 127.484C104.991 127.444 105.154 127.322 105.154 127.119Z" fill="#42210B"/>
<path d="M98.0894 51.2343L107.63 68.3675C107.752 68.5299 107.915 68.5299 108.077 68.4487C108.199 68.3675 108.239 68.2051 108.199 68.0427L98.6578 50.8689C98.536 50.7065 98.3736 50.7065 98.2112 50.7877C98.0894 50.9095 98.0488 51.0719 98.0894 51.2343Z" fill="#42210B"/>
<path d="M108.767 49.4077L107.387 71.7377C107.387 71.9001 107.549 72.0625 107.752 72.0219C107.915 72.0219 108.036 71.9001 108.036 71.7377L109.417 49.4077C109.417 49.2453 109.254 49.0829 109.051 49.1235C108.889 49.1235 108.767 49.2453 108.767 49.4077Z" fill="#42210B"/>
<path d="M108.118 129.146L116.928 96.3813L122.937 74.0513L124.885 66.7433C125.048 65.9313 125.251 65.0787 125.535 64.2667C126.144 63.2517 126.834 62.3179 127.565 61.4247L131.381 56.0655L136.903 48.3109C137.147 47.9861 136.578 47.6613 136.335 47.9861L125.454 63.2517C125.007 63.8607 124.682 64.5915 124.561 65.3223L122.896 71.4529L110.838 116.235L107.427 128.902C107.387 129.064 107.468 129.267 107.63 129.308C107.833 129.47 108.036 129.389 108.118 129.146C108.118 129.186 108.077 129.186 108.118 129.146Z" fill="#42210B"/>
<path d="M118.065 45.9596L125.089 64.0266C125.251 64.392 125.86 64.2296 125.738 63.8642L118.674 45.8378C118.552 45.3912 117.903 45.5536 118.065 45.9596Z" fill="#42210B"/>
<path d="M129.636 45.9585L124.074 67.5171C123.992 67.6795 124.114 67.8825 124.277 67.9231C124.439 67.9637 124.642 67.8825 124.683 67.7201V67.6795L130.245 46.1209C130.285 45.9585 130.204 45.7555 130.001 45.7149C129.879 45.6743 129.717 45.7961 129.636 45.9585Z" fill="#42210B"/>
<path d="M48.5572 112.501L67.8828 113.8C68.0452 113.8 68.2076 113.638 68.2076 113.476C68.2076 113.313 68.0452 113.151 67.8828 113.151L48.5572 111.852C48.3948 111.852 48.2324 112.014 48.2324 112.176C48.2324 112.339 48.3948 112.501 48.5572 112.501Z" fill="#42210B"/>
<path d="M53.9166 104.301C65.65 112.3 77.5052 120.176 89.401 127.849C91.9588 129.473 94.8008 130.935 96.8308 133.168C97.115 133.493 97.5616 133.006 97.2774 132.721C95.5722 130.854 93.4204 129.717 91.3092 128.337L79.2916 120.582C74.2572 117.334 69.2634 114.045 64.3102 110.635L54.2414 103.774C53.876 103.53 53.5918 104.058 53.9166 104.301Z" fill="#42210B"/>
<path d="M58.1799 96.7489L67.8021 113.882C67.9239 114.004 68.1269 114.045 68.2487 113.963C68.3705 113.882 68.4111 113.679 68.3299 113.557L58.7077 96.4241C58.6265 96.2617 58.4235 96.2211 58.2611 96.3023C58.1393 96.3835 58.0987 96.5865 58.1799 96.7489Z" fill="#42210B"/>
<path d="M14.088 88.669C14.088 88.669 11.0024 97.8446 19.8126 107.589C28.6228 117.333 45.7154 123.423 52.7392 118.145C59.763 112.867 63.7418 67.151 105.885 52.6568C148.027 38.1626 165.161 53.55 165.161 53.55C165.161 53.55 149.367 27.6472 119.039 19.2836C88.7108 10.92 29.922 26.3074 14.088 88.669Z" fill="#68E1FD"/>
<path d="M121.191 127.32C120.907 127.32 120.582 127.402 120.298 127.442C120.014 125.331 118.958 125.818 118.958 125.818L119.283 127.889L115.832 131.137L117.659 132.68C117.659 132.68 121.475 130.69 122.003 130.284C122.369 130.041 122.247 129.188 122.206 128.823C122.166 128.457 122.125 128.214 122.084 127.889C122.003 127.523 121.638 127.239 121.191 127.32Z" fill="#F7BCAA"/>
<path d="M107.388 125.902C108.2 126.39 112.99 130.612 113.721 130.693C114.452 130.774 118.796 128.298 118.796 128.298C118.796 128.298 121.638 130.044 120.095 132.317C120.095 132.317 114.899 136.296 111.326 134.875" fill="#E71624"/>
<path d="M130.245 158.058C130.245 158.058 130.245 157.977 132.194 157.977C134.143 157.977 135.442 156.962 135.929 157.612C136.416 158.261 132.519 161.469 129.636 161.712L126.997 159.154C126.997 159.154 129.311 157.206 130.245 158.058Z" fill="#2D313A"/>
<path d="M118.796 161.265C118.796 161.265 121.232 163.904 121.435 165.163C121.638 166.422 123.993 168.208 125.211 167.964C126.429 167.721 125.941 165.772 125.779 165.122C125.617 164.473 123.749 162.159 123.749 162.159L122.247 159.52" fill="#2D313A"/>
<path d="M96.2627 135.604C96.2627 135.604 95.0853 131.747 96.5469 130.367C98.0085 128.986 105.844 125.048 107.387 125.901C108.93 126.753 111.569 132.031 111.65 132.64C111.731 133.249 105.601 136.579 105.601 136.579L102.19 138.649" fill="#E71624"/>
<path d="M97.0752 138.651C97.0752 138.651 99.5518 135.322 101.216 136.175C102.881 137.027 109.174 147.624 109.174 147.624C107.794 148.477 106.332 149.207 104.83 149.857C102.11 150.953 98.6992 146.934 98.6992 146.934L97.0752 138.651Z" fill="#2D313A"/>
<path d="M112.828 151.115C112.828 151.115 108.403 154.972 102.597 154.16C96.791 153.348 96.2632 143.685 97.0752 138.691C97.0752 138.691 98.7398 148.638 102.84 149.45C106.941 150.262 111.975 145.309 111.975 145.309L112.828 151.115Z" fill="#FF235B"/>
<path d="M110.027 147.215L106.17 149.082C106.17 149.082 107.51 153.548 107.266 153.833C107.023 154.117 112.828 151.884 113.64 151.072C114.452 150.26 110.027 147.215 110.027 147.215Z" fill="#961238"/>
<path d="M123.344 161.222C122.004 157.731 120.42 154.32 118.634 151.072C116.157 146.972 115.345 143.602 112.016 141.978C108.687 140.354 106.251 143.642 106.251 143.642L111.245 150.26C113.031 152.615 115.914 158.746 117.416 162.115C119.324 162.318 121.679 162.318 123.344 161.222Z" fill="#68E1FD"/>
<path d="M112.788 137.432C112.788 137.432 121.354 142.507 123.587 144.456C125.008 145.674 131.098 157.692 131.098 157.692C131.098 157.692 128.622 160.899 126.145 160.087L120.502 149.084L111.164 143.685C111.123 143.685 109.458 136.62 112.788 137.432Z" fill="#68E1FD"/>
<path d="M103.815 140.312L101.176 144.048C101.176 144.048 103.165 149.285 109.133 147.62" fill="#68E1FD"/>
<path d="M101.176 144.09L99.3486 140.233L103.043 136.133L104.87 140.112L101.176 144.09Z" fill="#E71624"/>
<path d="M102.028 134.508C102.028 134.508 108.646 130.367 110.311 130.367C111.975 130.367 114.452 138.65 114.452 138.65C114.452 138.65 113.64 142.791 110.311 143.643C108.687 144.09 107.022 144.374 105.317 144.455C105.317 144.455 101.176 137.797 101.176 136.985C101.338 136.092 101.622 135.28 102.028 134.508Z" fill="#2D313A"/>
<path d="M104.911 125.943C106.007 126.309 106.86 127.161 107.225 128.258C107.834 130.125 108.362 132.683 108.362 132.683L109.986 130.937C109.986 130.937 108.89 125.781 106.657 124.847C104.424 123.913 104.911 125.943 104.911 125.943Z" fill="#2D313A"/>
<path d="M98.6992 128.417C98.6992 128.417 101.907 130.893 102.678 134.101C103.449 137.308 104.343 134.588 104.343 134.588C104.343 134.588 102.313 128.295 100.77 127.523C100.08 127.158 99.1864 127.402 98.821 128.132C98.7804 128.214 98.7398 128.335 98.6992 128.417Z" fill="#2D313A"/>
<path d="M104.342 122.817C104.342 122.817 105.56 127.039 103.977 128.176C102.921 128.907 101.135 128.622 100.688 127.932C100.242 127.242 98.8207 122.411 99.7139 122.167C100.607 121.923 104.342 122.817 104.342 122.817Z" fill="#F7BCAA"/>
<path d="M103.49 124.438C103.246 124.52 102.962 124.601 102.678 124.641C102.515 124.723 102.434 124.926 102.515 125.088C102.556 125.21 102.678 125.291 102.84 125.291C103.205 125.25 103.53 125.169 103.855 125.047C103.977 124.966 104.058 124.844 104.017 124.682V124.641C103.977 124.479 103.855 124.357 103.693 124.398C103.571 124.357 103.53 124.357 103.49 124.438Z" fill="#2D313A"/>
<path d="M101.947 124.238C101.379 124.441 100.81 124.685 100.283 124.969C100.08 125.416 100.161 125.903 100.445 126.309C100.77 126.634 102.394 126.228 102.597 125.822C102.8 125.416 103.328 124.157 101.947 124.238Z" fill="#2D313A"/>
<path d="M102.718 125.575C102.84 125.372 102.881 125.128 102.881 124.885C102.881 124.722 102.84 124.316 102.597 124.316C102.556 124.316 102.515 124.316 102.475 124.316L101.622 124.601C101.379 124.682 101.135 124.763 100.891 124.885C100.607 125.128 100.485 125.494 100.567 125.859C100.607 126.265 101.541 125.981 101.744 125.94C101.906 125.9 102.069 125.859 102.231 125.778C102.353 125.778 102.678 125.697 102.718 125.575Z" fill="#2D313A"/>
<path d="M104.992 123.383C104.464 123.545 103.936 123.748 103.449 124.032C103.246 124.398 103.287 124.885 103.571 125.21C103.815 125.413 104.87 125.21 105.439 124.966C105.52 124.357 105.357 123.789 104.992 123.383Z" fill="#2D313A"/>
<path d="M105.439 124.723C105.439 124.317 105.358 123.951 105.155 123.586L104.83 123.708C104.586 123.789 104.343 123.87 104.099 123.992C103.815 124.195 103.653 124.52 103.734 124.885C103.774 125.251 104.708 124.966 104.911 124.926C105.074 124.885 105.236 124.845 105.398 124.763L105.439 124.723Z" fill="#2D313A"/>
<path d="M100.445 126.267L100.242 125.861C100.039 125.17 100.404 124.44 101.054 124.237C101.135 124.237 101.216 124.196 101.297 124.196C102.394 123.952 104.708 123.465 104.708 123.465L104.951 123.384C104.951 123.384 105.317 122.978 104.464 121.76C103.612 120.542 101.703 120.136 99.714 121.11C97.7246 122.085 97.2374 124.683 98.6178 126.591C99.9982 128.5 100.932 128.175 100.932 128.175C100.932 128.175 101.216 128.175 101.216 127.931C101.054 127.322 100.77 126.794 100.445 126.267Z" fill="#2D313A"/>
<path d="M98.7397 134.711L100.404 130.691L103.409 131.544C103.409 131.544 103.327 139.664 98.9021 140.517C94.4767 141.369 95.8571 131.625 95.8571 131.625" fill="#E71624"/>
<path d="M100.811 130.368C100.811 130.368 101.054 128.663 101.663 128.622C102.272 128.582 102.191 129.475 102.191 129.475C102.191 129.475 103.815 128.622 104.83 130.043C105.277 130.693 103.003 132.276 103.003 132.276L100.445 131.14L100.811 130.368Z" fill="#F7BCAA"/>
<path d="M105.357 144.455C105.357 144.455 102.759 147.419 100.566 146.445C98.3738 145.47 104.87 140.07 104.87 140.07L105.357 144.455Z" fill="#2D313A"/>
<path d="M99.9979 131.381C99.0641 132.883 98.3333 134.466 97.8867 136.172C97.8867 136.253 97.9273 136.334 98.0085 136.334C98.0897 136.334 98.1709 136.293 98.1709 136.253C98.6175 134.588 99.3483 132.964 100.282 131.503C100.363 131.381 100.12 131.218 99.9979 131.381Z" fill="#2D313A"/>
<path d="M116.157 146.037C114.939 144.576 113.315 143.52 111.447 143.073C111.366 143.033 111.285 143.114 111.244 143.195C111.204 143.276 111.285 143.358 111.366 143.398C113.152 143.845 114.776 144.86 115.913 146.281C116.076 146.443 116.319 146.2 116.157 146.037Z" fill="#2D313A"/>
</svg>
