<svg width="215" height="215" viewBox="0 0 215 215" fill="none" xmlns="http://www.w3.org/2000/svg">
<path d="M106.726 183.87C155.434 183.87 194.919 168.622 194.919 149.814C194.919 131.005 155.434 115.758 106.726 115.758C58.0186 115.758 18.5332 131.005 18.5332 149.814C18.5332 168.622 58.0186 183.87 106.726 183.87Z" fill="#E29D64"/>
<path d="M100.233 161.164C99.9753 160.82 99.1153 159.358 98.8573 159.014L84.2373 70.8643C84.2373 70.8643 90.6013 71.7243 91.4613 69.4883L106.984 157.122C106.812 158.455 106.683 159.788 106.597 161.121L101.695 162.97C101.308 162.282 100.792 161.68 100.233 161.164Z" fill="#68E1FD"/>
<path d="M98.8574 159.017C98.8574 159.017 104.318 161.124 107.027 156.695L106.64 172.089L98.8574 159.017Z" fill="#FDF2D6"/>
<path d="M106.597 172.045L106.812 163.703C106.812 163.703 105.436 165.853 102.254 164.735L106.597 172.045Z" fill="#7F252B"/>
<path d="M88.2356 72.2048C90.2421 71.8235 91.696 70.6065 91.4832 69.4867C91.2704 68.3668 89.4714 67.7681 87.4649 68.1494C85.4585 68.5307 84.0046 69.7477 84.2174 70.8675C84.4302 71.9874 86.2292 72.5861 88.2356 72.2048Z" fill="#68E1FD"/>
<path opacity="0.7" d="M88.2356 72.2048C90.2421 71.8235 91.696 70.6065 91.4832 69.4867C91.2704 68.3668 89.4714 67.7681 87.4649 68.1494C85.4585 68.5307 84.0046 69.7477 84.2174 70.8675C84.4302 71.9874 86.2292 72.5861 88.2356 72.2048Z" fill="black"/>
<path d="M65.1448 162.929L62.0488 162.069L62.5218 158.242C62.5218 158.242 65.8758 158.801 65.1448 162.929Z" fill="black"/>
<path d="M60.888 151.876C60.888 151.876 59.77 164.733 60.071 164.862C60.372 164.991 63.382 165.292 63.382 165.034C63.382 164.776 63.554 159.186 63.554 159.186C63.554 159.186 65.059 161.68 65.145 162.927C65.145 162.927 68.714 160.863 69.402 159.229C70.09 157.595 67.854 150.758 67.037 150.371" fill="#FDF2D6"/>
<path d="M72.8854 169.638L69.3594 165.897L71.6814 162.973C71.6384 162.973 73.7884 167.703 72.8854 169.638Z" fill="black"/>
<path d="M67.6389 154.801L66.0049 170.195C66.0049 170.195 68.6709 171.098 69.1439 171.012C69.8319 170.797 70.4339 170.496 71.0359 170.109L71.6379 164.949C71.6379 164.949 73.1859 166.454 72.8849 169.593C72.8849 169.378 75.3359 168.561 75.6369 168.432C76.6259 168.002 77.5719 167.486 78.4749 166.884C79.4209 166.239 82.9039 163.358 81.0119 162.197C79.4209 161.208 74.2609 161.681 74.2609 161.681L74.1749 155.317" fill="#FDF2D6"/>
<path d="M61.4477 99.5903C61.4907 99.3753 61.3617 99.2033 61.1467 99.1603C61.1037 99.1603 61.1037 99.1603 61.0607 99.1603C61.6197 97.3973 62.1787 96.0643 62.7807 95.3763L77.7017 93.6133C77.7017 93.6133 80.7117 104.277 81.8297 122.638C82.7327 136.871 75.7237 158.07 75.7237 158.07C75.7237 158.07 68.4997 159.919 65.0167 156.35L65.1457 153.297C63.3397 153.297 61.5337 153.125 59.7707 152.867C58.0507 135.108 59.4267 117.177 61.4477 99.5903Z" fill="#BA5038"/>
<path d="M64.6721 155.488L66.5641 142.287C67.1661 138.073 68.0691 133.773 68.1121 129.473C68.1121 125.302 66.6501 121.389 65.9621 117.347C65.2741 113.434 65.1021 109.392 65.4461 105.436C65.5321 104.49 66.8651 104.49 66.7791 105.436C66.3921 109.865 66.6931 114.38 67.5961 118.723C68.4131 122.636 69.5741 126.334 69.4021 130.419C69.2301 134.504 68.4131 138.632 67.8541 142.674C67.2091 147.06 66.6071 151.446 65.9621 155.875C65.8331 156.778 64.5431 156.391 64.6721 155.488Z" fill="black"/>
<path d="M80.3671 87.8069C80.8401 87.2909 81.3131 86.818 81.7861 86.345L81.8291 86.3019C83.0761 84.7539 84.4521 83.3349 85.9141 82.0019L87.8061 77.9169C87.9351 77.6159 88.2791 77.444 88.5801 77.53C88.6661 77.573 88.7521 77.6159 88.8381 77.7019C89.3541 78.1319 88.8811 79.938 88.7091 80.454C88.4941 81.099 88.8811 80.024 88.6231 80.669C88.5801 80.755 88.4941 81.271 88.3651 81.314C89.4831 80.755 90.7301 80.4109 92.0201 80.3679C92.4071 80.3679 92.6651 80.6689 92.6651 81.0559C92.6651 81.1849 92.6221 81.2709 92.5791 81.3569C92.4501 81.5719 92.2351 81.7439 92.0201 81.8729L92.1491 81.83C93.0521 81.701 93.6971 82.0879 93.4391 83.0769C93.4391 83.1629 93.3961 83.249 93.3101 83.335C93.2671 83.55 93.0951 83.6789 92.9231 83.7219C92.9231 83.7649 92.9661 83.8079 92.9661 83.8509C93.1811 84.0229 93.3101 84.2809 93.3101 84.5819C93.2671 85.1409 92.7941 85.528 92.2351 85.485L91.8911 85.5279C92.0201 86.4309 91.2031 86.9039 90.3861 87.0329C89.4401 87.2049 88.4941 87.2909 87.5481 87.4629L85.7851 89.699C85.3121 90.301 84.6241 91.6769 83.8071 91.8059C82.9901 91.9349 82.6031 90.688 83.4631 90.516C83.2911 90.559 83.5491 90.3439 83.6351 90.2579C83.8071 90.0429 83.9791 89.8709 84.1081 89.6559C83.6781 90.2149 83.1191 90.688 82.5171 91.075C82.1731 91.247 81.7861 91.1179 81.6141 90.8169C81.5281 90.6879 81.5281 90.516 81.5711 90.344C81.7001 89.828 81.9151 89.3549 82.1301 88.8819C82.0011 88.7959 81.9151 88.667 81.8721 88.495C81.8291 88.495 81.8291 88.5379 81.7861 88.5379C81.6571 88.6239 81.5281 88.71 81.3561 88.71L81.2701 88.7959C80.7111 89.398 79.7651 88.4519 80.3671 87.8069Z" fill="#FE6162"/>
<path d="M67.5964 71.8974C67.5964 71.8974 76.1964 71.1234 78.2174 75.6814C80.2384 80.2394 79.2494 86.6894 79.2494 86.6894L84.4954 82.6904C84.4954 82.6904 87.0754 85.8294 87.3764 87.7214C87.6774 89.6134 82.4744 95.4184 77.2284 96.7084C71.9824 97.9984 62.5224 98.3854 61.0604 95.2034C59.5984 92.0214 59.4694 82.5184 61.1894 78.8634C62.9094 75.2084 67.5964 71.8974 67.5964 71.8974Z" fill="#FAB965"/>
<path d="M75.207 63.8984C75.207 63.8984 75.637 70.2194 73.702 71.6814C71.767 73.1434 68.585 70.7354 68.585 70.7354" fill="#FE6162"/>
<path d="M73.6161 60.7169C74.4761 61.3619 75.1211 62.2649 75.5081 63.2539C77.0991 67.2099 72.8421 72.1549 69.0151 72.9289L67.0371 72.2839C67.0371 72.2839 64.4141 68.4139 64.4141 66.2639C64.4141 64.2859 65.1881 62.0069 66.6501 60.6309C68.7141 58.7819 71.6381 59.1259 73.6161 60.7169Z" fill="black"/>
<path d="M69.0583 72.9302C69.0583 72.9302 76.1963 93.5272 70.8213 96.9242C65.4463 100.321 54.9113 97.2252 56.9753 92.1082C59.0393 86.9912 67.0803 72.2852 67.0803 72.2852" fill="black"/>
<path d="M108.059 25.2859L112.617 24.2539L162.841 52.9779L162.024 151.276L160.132 152.351" fill="#BA5038"/>
<path d="M108.059 25.2852L107.5 122.293L160.132 152.35V54.5252L108.059 25.2852Z" fill="#FAB965"/>
<path d="M109.908 30.5312V120.917L157.767 147.233V57.4062L109.908 30.5312Z" fill="#FDF2D6"/>
<path d="M152.22 73.7452V132.44L116.401 113.821V64.2852" fill="#FAB965"/>
<path d="M113.735 50.0977L152.693 70.8237C152.693 70.8237 154.198 112.835 143.921 123.929L108.919 105.224C108.919 105.224 121.002 76.2417 113.735 50.0977Z" fill="#68E1FD"/>
<path d="M119.914 63.8705L119.728 64.2578L147.81 77.7909L147.997 77.4035L119.914 63.8705Z" fill="white"/>
<path d="M119.912 69.847L119.726 70.2344L147.808 83.7674L147.995 83.3801L119.912 69.847Z" fill="white"/>
<path d="M119.906 76.347L119.72 76.7344L147.802 90.2674L147.989 89.8801L119.906 76.347Z" fill="white"/>
<path d="M119.905 82.3236L119.719 82.7109L147.801 96.244L147.988 95.8567L119.905 82.3236Z" fill="white"/>
<path d="M119.912 87.0462L119.726 87.4336L147.808 100.967L147.995 100.579L119.912 87.0462Z" fill="white"/>
<path d="M119.907 92.683L119.721 93.0703L147.803 106.603L147.99 106.216L119.907 92.683Z" fill="white"/>
<path d="M117.992 60.6335C116.96 62.1815 115.971 63.6865 114.939 65.2345C114.509 64.7615 114.079 64.3315 113.692 63.8155C112.918 62.8695 111.413 64.0305 112.187 64.9765C112.875 65.7935 113.606 66.6105 114.38 67.3415C114.638 67.5565 114.939 67.5995 115.24 67.4705C115.541 67.4705 115.799 67.3415 115.928 67.0835C117.089 65.3205 118.293 63.5575 119.454 61.7515C120.185 60.7625 118.637 59.6015 117.992 60.6335Z" fill="#7F252B"/>
<path d="M117.476 69.446C116.444 70.994 115.455 72.499 114.423 74.047C113.993 73.617 113.563 73.144 113.176 72.628C112.402 71.682 110.94 72.843 111.671 73.789C112.359 74.606 113.09 75.423 113.864 76.154C114.122 76.369 114.423 76.412 114.724 76.283C115.025 76.283 115.283 76.154 115.412 75.896L118.938 70.564C119.669 69.575 118.164 68.414 117.476 69.446Z" fill="#7F252B"/>
<path d="M117.476 78.2624L114.423 82.8634C113.993 82.4334 113.563 81.9604 113.176 81.4444C112.402 80.4984 110.94 81.6594 111.671 82.6054C112.359 83.4224 113.09 84.2394 113.864 84.9704C114.122 85.1854 114.423 85.2284 114.724 85.0994C115.025 85.0994 115.283 84.9704 115.412 84.7124C116.573 82.9494 117.777 81.1864 118.938 79.3804C119.669 78.3914 118.164 77.2304 117.476 78.2624Z" fill="#7F252B"/>
</svg>
