<svg width="215" height="215" viewBox="0 0 215 215" fill="none" xmlns="http://www.w3.org/2000/svg">
<path d="M113.864 187.78C161.313 187.78 199.778 175.016 199.778 159.271C199.778 143.526 161.313 130.762 113.864 130.762C66.4152 130.762 27.9502 143.526 27.9502 159.271C27.9502 175.016 66.4152 187.78 113.864 187.78Z" fill="#B74BAD"/>
<path d="M96.6636 177.763C115.591 177.763 130.935 173.624 130.935 168.518C130.935 163.413 115.591 159.273 96.6636 159.273C77.7362 159.273 62.3926 163.413 62.3926 168.518C62.3926 173.624 77.7362 177.763 96.6636 177.763Z" fill="#7F247B"/>
<path d="M77.8301 70.3477C77.8301 70.3477 104.361 91.2027 129.344 90.7727C129.344 90.7727 122.894 95.5887 130.247 97.6957C137.6 99.8027 147.361 95.3737 148.608 100.233C149.855 105.092 144.824 111.198 152.177 112.703C159.53 114.208 167.184 112.703 167.184 112.703C167.184 112.703 150.715 123.109 138.46 121.604C126.205 120.099 86.3871 113.649 82.1301 88.7087" fill="#68E1FD"/>
<path d="M96.6641 124.614C97.0511 124.442 106.726 127.022 106.726 127.022L108.876 132.182L102.297 134.504" fill="#154549"/>
<path d="M127.495 132.139C126.764 132.053 121.303 129.989 121.088 129C120.873 128.011 127.753 129.086 127.753 129.086L127.452 125.689L92.9229 123.926C94.4279 124.485 95.8468 125.173 97.3518 125.775C99.8028 126.721 102.211 127.71 104.576 128.871C105.479 129.301 105.092 130.505 104.318 130.806C100.405 132.397 96.8788 134.848 94.0408 138.03C98.0828 137.084 119.239 132.397 121.733 137.127C122.851 139.234 123.84 144.867 125.775 145.168C127.71 145.469 128.312 140.61 128.57 137.256C128.828 133.902 128.183 132.225 127.495 132.139Z" fill="#68E1FD"/>
<path d="M111.843 77.9587C112.445 76.3677 112.961 74.7337 113.52 73.0996C114.251 70.8207 115.111 68.4126 115.326 65.9616C114.896 64.8436 113.391 63.9407 112.316 63.6827C110.983 63.3387 109.564 63.9407 108.188 63.8977C106.382 63.8547 104.963 63.1667 103.329 62.6937C101.609 62.2637 99.7597 62.3496 98.0827 62.9516C94.8577 63.9406 91.5467 63.5966 88.8807 61.4896C87.3327 60.2856 86.1717 59.2966 84.2367 58.7806C81.2697 58.0066 78.2167 58.5656 76.2387 61.0596C74.4757 63.2956 74.0887 66.2626 75.9807 68.5846C76.9267 69.7456 78.3027 70.2616 79.7217 70.6916C81.0117 71.0786 82.2587 71.8527 83.5917 72.0677L83.7207 72.1106C84.9677 72.3256 86.2577 72.2396 87.5047 72.6266C89.0957 73.0996 90.5577 73.8737 92.1057 74.4327C94.1697 75.1637 96.1477 74.9056 98.2977 74.6047C101.007 74.2606 102.426 75.1206 104.533 76.6256C104.662 76.7116 104.791 76.7977 104.92 76.8837C106.382 77.7867 108.102 78.2167 109.822 78.1737C110.467 78.1737 111.155 78.0877 111.843 77.9587Z" fill="#154549"/>
<path d="M63.0382 60.3726C62.5652 59.5556 62.0922 58.6956 61.6622 57.7926C61.5332 56.2016 61.4472 54.5676 61.4902 52.9766C61.6192 52.2886 61.6192 51.6006 61.4902 50.9556C61.4472 50.4826 61.0172 50.1386 60.5442 50.1816C60.5012 50.1816 60.4152 50.1816 60.3722 50.2246C59.7702 50.4826 59.3402 51.0416 59.2972 51.6866C59.2112 52.2026 59.1252 52.7616 59.0392 53.3206C58.2222 51.8586 57.4912 50.3106 56.8892 48.7196C56.5022 47.7306 54.8682 48.2466 55.2982 49.2356L55.7282 50.3106C55.3412 49.7086 54.9112 49.1496 54.4382 48.6336C53.8792 47.9886 52.5462 48.3756 52.9332 49.3646C53.4492 50.6546 54.0942 51.9446 54.8252 53.1486C54.2232 52.4176 53.6642 51.6436 53.1052 50.8696C52.4602 50.0096 51.0842 50.9126 51.6862 51.8156C52.4602 52.8906 53.2772 53.9656 54.1372 54.9546C53.6642 54.7396 53.1912 54.5246 52.6752 54.3096C51.6862 53.8796 50.9122 55.3846 51.9012 55.8146C52.8902 56.2446 53.7932 56.6746 54.7392 57.1476C54.7392 57.1906 54.7822 57.2336 54.7822 57.2336C56.2442 59.8566 57.7492 62.3936 59.2972 64.9306C59.8562 65.8336 61.2752 64.9306 60.7162 63.9846L60.0282 62.7806C60.2862 62.6946 60.5012 62.5226 60.6302 62.3076C61.0602 62.5656 61.5762 62.3936 61.7912 62.0066C61.8772 61.8776 61.9202 61.7486 61.9202 61.6196C62.3502 61.8346 62.8662 61.6626 63.0812 61.2326C63.2102 60.9316 63.2102 60.6306 63.0382 60.3726Z" fill="#FFC285"/>
<path d="M58.2218 53.7942C57.2758 54.8262 56.3728 56.0302 56.7598 57.4922C56.8458 57.7932 57.3188 57.6642 57.2328 57.4062C56.8888 56.1162 57.7488 55.0412 58.5658 54.1812C58.7808 53.9232 58.4368 53.5792 58.2218 53.7942Z" fill="#154549"/>
<path d="M57.1469 52.846C56.5449 51.599 56.0289 50.352 55.5989 49.062C55.5129 48.847 55.1689 48.933 55.2549 49.148C55.7279 50.481 56.2439 51.771 56.8459 53.018C56.9319 53.233 57.2329 53.061 57.1469 52.846Z" fill="#154549"/>
<path d="M55.5127 53.7489C54.5667 52.3729 53.7497 50.8679 53.1907 49.2769C53.1047 49.0619 52.7607 49.1479 52.8467 49.3629C53.4057 50.9969 54.2227 52.5449 55.2117 53.9209C55.3407 54.0929 55.6417 53.9209 55.5127 53.7489Z" fill="#154549"/>
<path d="M54.7395 55.5583C53.8365 54.5263 53.0195 53.4083 52.3315 52.2043C52.2025 51.9893 51.9015 52.1613 52.0305 52.3763C52.7185 53.5803 53.5785 54.7413 54.5245 55.8163C54.6535 55.9883 54.9115 55.7303 54.7395 55.5583Z" fill="#154549"/>
<path d="M71.3375 88.7539C71.3375 88.7539 64.9735 109.523 67.7255 127.153C69.6605 139.451 88.9675 140.139 88.9675 140.139L116.746 160.392C116.746 160.392 114.209 166.154 122.035 156.264C122.035 156.264 109.694 139.58 105.351 135.237C101.008 130.894 98.3415 116.704 96.6645 112.404C93.6115 104.492 86.2585 92.4519 85.2265 92.3229" fill="#38727A"/>
<path d="M86.0435 85.0984C85.1835 80.7554 83.2484 75.8104 84.8825 71.7254C84.7104 71.1664 83.2055 71.0374 82.9905 70.7364L80.4535 69.7904C75.5945 69.6184 70.9935 67.5544 67.5965 64.0714C65.5755 62.0074 63.8124 59.6854 62.3074 57.1914C60.5444 58.2234 58.9965 59.5564 57.7065 61.1044C57.0185 61.8784 56.3735 62.6954 55.8145 63.5984C58.3085 68.8014 63.1245 76.3264 70.7785 79.2504C70.7785 79.2504 71.0365 82.1314 71.2945 88.7964C71.2945 88.7964 77.0565 93.9994 86.2155 92.1934C86.1725 89.5274 86.1295 87.7214 86.0435 85.0984Z" fill="#F77819"/>
<path d="M83.6348 70.6055C83.6348 70.6055 93.3098 80.5385 111.628 89.7835C111.628 89.7835 110.596 95.5455 108.188 97.6955C108.188 97.6955 87.0748 88.1495 82.2158 79.5925" fill="#F77819"/>
<path d="M76.3683 63.7687C76.3683 63.7687 74.3473 69.6597 78.0883 72.3257C81.8293 74.9917 86.9463 69.4017 85.5273 64.1987C84.1083 58.9957 78.7333 58.6947 76.3683 63.7687Z" fill="#FFC285"/>
<path d="M86.0432 71.4671C85.3982 71.5961 84.7532 71.4241 84.3232 70.9511C83.7642 70.3921 83.8072 69.6181 83.8072 68.8441C83.8502 67.8981 83.3772 66.9521 82.5602 66.4361C81.5712 65.7481 80.3242 65.5761 79.4642 64.7591C79.3782 64.6731 79.2922 64.5871 79.2062 64.5011C79.3352 64.5871 79.4642 64.7161 79.5932 64.8021C81.0552 65.6621 83.2052 65.8771 83.8932 66.2641C84.5812 66.6511 83.5062 69.2741 84.7102 70.4781C85.9142 71.6821 88.7952 64.2861 87.1182 62.2651C85.4412 60.2441 79.9802 57.9221 77.6152 61.2331C77.6152 61.2331 77.7012 61.6201 77.8732 62.0931C77.9162 62.9961 78.2602 63.8561 78.8192 64.5441C79.7222 65.6621 81.0122 65.8771 82.1732 66.5651C82.9472 66.9521 83.4202 67.6831 83.5062 68.5431C83.5492 69.2311 83.4202 69.9621 83.7212 70.6071C84.1512 71.5101 85.1832 72.0261 86.1722 71.8111C86.3442 71.7681 86.2582 71.4241 86.0432 71.4671Z" fill="#154549"/>
<path d="M125.56 167.358C125.13 166.756 122.765 161.424 123.324 160.564C123.883 159.704 127.925 165.38 127.925 165.38L130.118 162.8L107.156 136.957C107.801 138.419 108.317 139.924 108.919 141.386C109.951 143.794 110.94 146.202 111.757 148.696C112.058 149.642 110.94 150.201 110.209 149.857C106.296 148.137 102.383 146.718 98.1689 146.933C101.695 149.169 117.691 161.295 117.949 166.713C118.078 169.078 113.907 173.636 115.068 175.227C116.229 176.818 120.099 173.808 122.679 171.658C125.259 169.508 125.99 167.96 125.56 167.358Z" fill="#68E1FD"/>
<path d="M89.0962 140.396C90.2142 141.256 91.5472 141.901 92.5362 142.933C92.4932 142.89 92.4932 142.804 92.4502 142.761C84.0652 133.215 78.6902 121.39 77.0132 108.791C76.8842 107.974 75.6372 108.318 75.7662 109.135C77.3142 120.444 81.7862 131.151 88.7092 140.224C88.8382 140.224 88.9672 140.31 89.0962 140.396Z" fill="#154549"/>
<path d="M75.8955 80.067C75.8955 80.067 76.9705 76.369 77.5725 76.541C78.1745 76.713 78.4755 80.669 78.6905 80.755C79.3355 80.927 81.3995 81.228 81.7005 81.744C81.9155 82.131 79.0345 82.948 79.0345 82.948C79.0345 82.948 80.5825 86.904 79.9375 87.205C79.2925 87.506 77.2715 84.281 76.9275 84.195C76.3685 84.066 74.2615 86.388 73.8745 85.7C73.4875 85.012 75.1645 82.088 75.1645 82.088C75.1645 82.088 73.0575 80.153 73.3585 79.293C73.4445 78.949 75.8955 80.067 75.8955 80.067Z" fill="#68E1FD"/>
<path d="M148.608 104.793C148.608 104.793 138.331 108.921 122.55 106.255C122.55 106.255 134.633 110.125 148.221 109.48C148.221 109.48 148.35 106.986 148.608 104.793Z" fill="#68E1FD"/>
<path d="M129.387 90.7731C129.387 90.7731 116.831 91.0311 105.608 85.9141C105.608 85.9141 119.067 92.7511 127.151 93.2671L129.387 90.7731Z" fill="#68E1FD"/>
<path d="M167.227 112.746C167.227 112.746 152.65 125.474 132.698 120.701C132.698 120.701 151.704 120.701 161.723 113.348L167.227 112.746Z" fill="#68E1FD"/>
<path d="M121.045 98.1693C119.884 97.3953 118.637 96.7073 117.347 96.1483C118.25 96.4063 119.153 96.7073 120.056 97.0512C121.088 97.4383 121.733 95.8473 120.701 95.5033C119.454 95.0303 118.164 94.6433 116.874 94.2993C117.39 94.2133 117.949 94.1273 118.465 93.9983C119.54 93.7833 119.325 92.1063 118.25 92.3212C117.175 92.5362 116.229 92.7082 115.197 92.8372C115.154 92.8372 115.111 92.7943 115.111 92.7943C113.907 92.1923 112.703 91.5903 111.499 91.0312C111.069 92.9233 110.295 94.6862 109.22 96.2772C110.209 97.4812 111.155 98.7283 112.015 100.061C112.316 100.663 112.66 101.265 113.133 101.738C113.434 102.125 113.95 102.168 114.337 101.867C114.38 101.824 114.423 101.781 114.466 101.738C114.81 101.179 114.853 100.491 114.509 99.9322C114.294 99.4592 114.036 98.9433 113.821 98.4703C115.326 99.2443 116.788 100.104 118.207 101.05C119.11 101.652 120.142 100.319 119.239 99.7172L118.25 99.0722C118.895 99.3302 119.583 99.5453 120.271 99.7603C121.045 99.8463 121.905 98.7283 121.045 98.1693Z" fill="#68E1FD"/>
<path d="M115.627 97.6109C116.831 98.2989 117.949 99.0729 119.067 99.8899C119.239 100.019 119.497 99.7609 119.325 99.6319C118.207 98.8149 117.046 98.0409 115.842 97.3099C115.584 97.1809 115.412 97.5249 115.627 97.6109Z" fill="#68E1FD"/>
<path d="M116.445 95.9764C118.036 96.5784 119.541 97.3954 120.874 98.3844C121.046 98.5134 121.304 98.2554 121.132 98.1264C119.756 97.0944 118.208 96.2774 116.617 95.6754C116.402 95.5894 116.23 95.8904 116.445 95.9764Z" fill="#68E1FD"/>
<path d="M116.1 94.0432C117.433 94.3872 118.723 94.8602 119.97 95.4622C120.185 95.5482 120.357 95.2472 120.142 95.1612C118.852 94.5592 117.519 94.0432 116.143 93.6992C116.057 93.6992 115.971 93.7852 115.971 93.9142C116.014 93.9572 116.057 94.0002 116.1 94.0432Z" fill="#68E1FD"/>
<path opacity="0.61" d="M148.608 104.793C148.608 104.793 138.331 108.921 122.55 106.255C122.55 106.255 134.633 110.125 148.221 109.48C148.221 109.48 148.35 106.986 148.608 104.793Z" fill="#154549"/>
<path opacity="0.61" d="M129.387 90.7731C129.387 90.7731 116.831 91.0311 105.608 85.9141C105.608 85.9141 119.067 92.7511 127.151 93.2671L129.387 90.7731Z" fill="#154549"/>
<path opacity="0.61" d="M167.227 112.746C167.227 112.746 152.65 125.474 132.698 120.701C132.698 120.701 151.704 120.701 161.723 113.348L167.227 112.746Z" fill="#154549"/>
<path d="M121.045 98.1693C119.884 97.3953 118.637 96.7073 117.347 96.1483C118.25 96.4063 119.153 96.7073 120.056 97.0512C121.088 97.4383 121.733 95.8473 120.701 95.5033C119.454 95.0303 118.164 94.6433 116.874 94.2993C117.39 94.2133 117.949 94.1273 118.465 93.9983C119.54 93.7833 119.325 92.1063 118.25 92.3212C117.175 92.5362 116.229 92.7082 115.197 92.8372C115.154 92.8372 115.111 92.7943 115.111 92.7943C113.907 92.1923 112.703 91.5903 111.499 91.0312C111.069 92.9233 110.295 94.6862 109.22 96.2772C110.209 97.4812 111.155 98.7283 112.015 100.061C112.316 100.663 112.66 101.265 113.133 101.738C113.434 102.125 113.95 102.168 114.337 101.867C114.38 101.824 114.423 101.781 114.466 101.738C114.81 101.179 114.853 100.491 114.509 99.9322C114.294 99.4592 114.036 98.9433 113.821 98.4703C115.326 99.2443 116.788 100.104 118.207 101.05C119.11 101.652 120.142 100.319 119.239 99.7172L118.25 99.0722C118.895 99.3302 119.583 99.5453 120.271 99.7603C121.045 99.8463 121.905 98.7283 121.045 98.1693Z" fill="#FFC285"/>
<path d="M115.627 97.6109C116.831 98.2989 117.949 99.0729 119.067 99.8899C119.239 100.019 119.497 99.7609 119.325 99.6319C118.207 98.8149 117.046 98.0409 115.842 97.3099C115.584 97.1809 115.412 97.5249 115.627 97.6109Z" fill="#154549"/>
<path d="M116.445 95.9764C118.036 96.5784 119.541 97.3954 120.874 98.3844C121.046 98.5134 121.304 98.2554 121.132 98.1264C119.756 97.0944 118.208 96.2774 116.617 95.6754C116.402 95.5894 116.23 95.8904 116.445 95.9764Z" fill="#154549"/>
<path d="M116.1 94.0432C117.433 94.3872 118.723 94.8602 119.97 95.4622C120.185 95.5482 120.357 95.2472 120.142 95.1612C118.852 94.5592 117.519 94.0432 116.143 93.6992C116.057 93.6992 115.971 93.7852 115.971 93.9142C116.014 93.9572 116.057 94.0002 116.1 94.0432Z" fill="#154549"/>
<path d="M71.2943 87.9375L70.8213 90.5175C70.8213 90.5175 77.7013 96.4085 86.2583 93.6995L86.2153 90.7755C81.0553 92.1085 75.5943 91.0335 71.2943 87.9375Z" fill="#68E1FD"/>
<path d="M164.604 78.7749L167.743 76.7109L173.591 80.1509L172.301 83.4619L164.604 78.7749Z" fill="#FAE60B"/>
<path d="M168.602 94.2976L170.709 87.6756L164.646 78.7746L172.343 83.3326L174.88 77.1836L177.589 86.6006L185.157 91.7176L179.223 93.0076L181.373 102.382L175.052 93.6526L168.602 94.2976Z" fill="#F9C60B"/>
<path d="M177.504 86.6031L185.072 91.7201L188.297 89.6991L180.643 84.4961L177.504 86.6031Z" fill="#FAE60B"/>
<path d="M174.795 77.1851L177.977 75.1641L180.643 84.4951L177.504 86.6021L174.795 77.1851Z" fill="#F5B00F"/>
<path d="M179.138 93.0083L181.288 102.382L184.384 100.318L182.578 92.2773L179.138 93.0083Z" fill="#F5B00F"/>
<path d="M24.5527 58.3062L27.6917 56.2852L33.4967 59.6822L32.2497 63.0362L24.5527 58.3062Z" fill="#FAE60B"/>
<path d="M28.5087 73.8758L30.6157 67.2537L24.5527 58.3528C24.5527 58.3528 32.2497 62.9108 32.2497 62.8678C32.2497 62.8248 34.7867 56.7188 34.7867 56.7188L37.4957 66.1358L45.0637 71.2528L39.1297 72.5428L41.2797 81.9168L34.9587 73.1878L28.5087 73.8758Z" fill="#F9C60B"/>
<path d="M37.4531 66.1343L45.0211 71.2943L48.2461 69.2303L40.5491 64.0703L37.4531 66.1343Z" fill="#FAE60B"/>
<path d="M34.7441 56.7163L37.9261 54.6953L40.5491 64.0693L37.4531 66.1333L34.7441 56.7163Z" fill="#F5B00F"/>
<path d="M39.0439 72.5826L41.1939 81.9136L44.3329 79.8496L42.4839 71.8086L39.0439 72.5826Z" fill="#F5B00F"/>
<path d="M118.078 34.5713L120.142 33.2383L123.969 35.4743L123.152 37.6673L118.078 34.5713Z" fill="#FAE60B"/>
<path d="M120.701 44.8051L122.077 40.4191L118.078 34.5711C118.078 34.5711 123.152 37.5811 123.109 37.5381C123.066 37.4951 124.786 33.5391 124.786 33.5391L126.549 39.7311L131.494 43.0851L127.581 43.9451L129 50.0941L124.829 44.3751L120.701 44.8051Z" fill="#F9C60B"/>
<path d="M126.549 39.7315L131.537 43.0855L133.644 41.7525L128.613 38.3555L126.549 39.7315Z" fill="#FAE60B"/>
<path d="M124.786 33.54L126.893 32.207L128.613 38.356L126.549 39.732L124.786 33.54Z" fill="#F5B00F"/>
<path d="M127.624 43.9457L129.043 50.0947L131.107 48.7187L129.903 43.4297L127.624 43.9457Z" fill="#F5B00F"/>
</svg>
