<svg width="212" height="134" viewBox="0 0 212 134" fill="none" xmlns="http://www.w3.org/2000/svg">
<path d="M102.816 132.213L4.11639 73.8762C0.994389 72.0922 -1.72621 69.2378 1.35119 67.32L100.408 10.232C101.88 9.29538 104.154 8.71558 105.671 9.60758L209.276 69.7284C212.398 71.557 212.978 76.6414 209.856 78.47L115.795 132.124C111.781 134.443 106.875 134.488 102.816 132.213Z" fill="#6182E0"/>
<path d="M89.5258 34.8071C89.5258 34.8071 88.054 49.9265 82.5236 50.9523C76.9932 51.9781 80.5612 32.7109 80.5612 32.7109" fill="#FCB273"/>
<path opacity="0.1" d="M89.5258 34.8071C89.5258 34.8071 88.054 49.9265 82.5236 50.9523C76.9932 51.9781 80.5612 32.7109 80.5612 32.7109" fill="#1A1F25"/>
<path d="M80.6053 88.9979C80.6053 88.9979 80.9621 93.9039 80.6053 95.3757C80.2485 96.8475 79.5795 100.505 78.4199 101.977C77.2603 103.448 77.3941 106.08 80.7391 105.545C84.0841 105.009 86.7601 98.2301 87.3845 96.4015C88.0089 94.5729 85.7789 86.2773 85.7789 86.2773" fill="#68E1FD"/>
<path d="M157.317 32.7556C154.954 22.899 146.703 12.2842 136.578 9.83118C130.424 8.40398 123.957 9.60818 118.738 13.2208C112.673 17.4132 111.335 23.8356 107.811 29.812C101.344 40.8728 85.11 46.4478 81.2298 58.6236C78.5984 66.7854 83.6828 74.7242 89.8376 79.764C110.666 96.6674 144.651 86.8554 155.177 62.7714C159.146 53.8068 159.726 42.8798 157.317 32.7556Z" fill="#85C440"/>
<path opacity="0.2" d="M157.363 32.6217C154.999 22.7651 146.748 12.1503 136.624 9.69729C136.178 9.60809 135.732 9.51889 135.286 9.42969C137.828 10.6785 140.058 12.4625 141.886 14.6479C148.086 21.9623 149.022 32.5325 148.532 41.7201C148.309 46.1801 147.551 50.8185 145.454 54.7879C143.269 58.8911 140.013 60.9873 135.776 62.6821C131.941 64.2431 128.462 65.7149 125.117 68.2125C123.065 69.7735 121.014 71.2453 118.65 72.3157C113.655 74.5457 107.946 74.2781 102.772 72.7617C94.4767 70.2641 86.5379 64.6445 81.8103 57.1963C81.6319 57.6423 81.4535 58.0437 81.3197 58.4897C78.6883 66.6515 83.7727 74.5903 89.9275 79.6301C110.756 96.5335 144.741 86.7215 155.266 62.6375C159.191 53.6283 159.771 42.6567 157.363 32.6217Z" fill="#053855"/>
<path d="M103.352 39.3555C103.352 39.3555 80.8287 48.6769 76.9931 51.9327C73.1575 55.1885 71.6856 57.1063 72.5776 62.4583C73.4696 67.8103 80.6056 88.9507 80.6056 88.9507C82.791 89.3075 84.9764 88.5939 86.5374 87.0329L83.8615 62.2353C83.8615 62.2353 101.345 56.2589 106.384 53.7167" fill="#45535E"/>
<path opacity="0.27" d="M103.352 39.3555C103.352 39.3555 80.8287 48.6769 76.9931 51.9327C73.1575 55.1885 71.6856 57.1063 72.5776 62.4583C73.4696 67.8103 80.6056 88.9507 80.6056 88.9507C82.791 89.3075 84.9764 88.5939 86.5374 87.0329L83.8615 62.2353C83.8615 62.2353 101.345 56.2589 106.384 53.7167" fill="#1A1F25"/>
<path d="M86.8502 99.5234C86.8502 99.5234 86.4042 108.265 85.646 109.112C84.8878 109.96 81.0522 110.495 81.2306 112.413C81.409 114.331 85.9136 114.42 88.1882 113.617C90.4628 112.814 92.8712 108.131 93.897 106.169C94.9228 104.206 95.2796 104.162 94.789 102.958C94.2984 101.753 91.667 96 91.667 96" fill="#68E1FD"/>
<path d="M108.124 44.0828C108.124 44.0828 107.276 33.245 117.49 18.75C117.49 18.75 129.799 23.433 138.853 31.3272C138.853 31.3272 138.318 43.726 127.837 56.5262C127.792 56.5708 113.52 49.8362 108.124 44.0828Z" fill="#68E1FD"/>
<path opacity="0.27" d="M138.854 31.3281C138.854 31.3281 134.349 33.2459 131.316 39.8467C128.283 46.4475 124.983 53.0929 127.793 56.5271C127.793 56.5717 136.713 47.6071 138.854 31.3281Z" fill="#1A1F25"/>
<path opacity="0.27" d="M123.645 46.4945C117.803 41.5885 117.223 33.6943 118.516 26.6475C118.561 26.3799 118.382 26.1569 118.159 26.1123C117.892 26.0677 117.669 26.2462 117.624 26.4692C116.286 33.8728 116.955 42.0345 123.065 47.1635C123.244 47.3419 123.556 47.2974 123.69 47.119C123.868 46.9406 123.824 46.6729 123.645 46.4945Z" fill="#1A1F25"/>
<path d="M106.251 45.6014C106.251 45.6014 86.0023 60.587 85.1103 65.9836C84.2183 71.3802 86.8497 99.5228 86.8497 99.5228C86.8497 99.5228 91.3989 101.887 92.7815 99.5228C94.1641 97.159 95.9481 73.0304 96.7063 70.4882C97.4645 67.946 120.701 61.0776 121.593 54.5214C122.485 47.9652 119.631 43.6836 119.631 43.6836" fill="#45535E"/>
<path d="M95.2343 12.3756C94.6545 12.2418 85.1101 17.8168 83.7275 21.0726C82.3449 24.3284 80.6055 32.7132 80.6055 32.7132L89.5255 34.8094C89.5255 34.8094 91.2649 28.6546 91.9785 28.6546C92.6921 28.6546 98.0441 31.7766 99.0699 34.8094C100.096 37.8422 101.166 41.99 101.166 41.99C101.166 41.99 102.682 46.9852 110.131 47.6988C117.579 48.4124 119.764 45.6026 119.764 45.6026C119.586 41.5886 119.318 37.6192 118.961 33.6052C118.694 30.394 118.382 27.1382 117.891 23.927C116.999 17.7722 114.457 10.993 107.365 10.2348C101.969 9.69963 95.2343 12.3756 95.2343 12.3756Z" fill="#FE4754"/>
<path d="M83.3266 28.6082C83.3266 28.6082 75.5216 44.4858 77.2164 48.6336C78.9112 52.7814 83.2374 52.1124 85.0214 48.0092C86.8054 43.906 87.6082 30.1692 87.6082 30.1692C87.6082 30.1692 92.0236 27.5824 92.7372 24.7726C92.7372 24.7726 94.3428 23.9252 94.9672 24.7726C95.5916 25.62 96.0822 26.289 96.6174 25.9322C97.1526 25.5754 95.2794 21.4722 93.763 20.7586C92.2466 20.045 89.5706 20.2234 88.7678 20.4018C87.965 20.5802 83.3266 28.6082 83.3266 28.6082Z" fill="#FCB273"/>
<path d="M95.2794 22.319C94.5658 22.0514 93.763 22.0068 93.0048 22.1852C92.648 22.2744 92.7818 22.8096 93.1386 22.7204C93.8968 22.542 94.7442 22.4974 95.4132 23.0326C95.5024 23.1218 95.6362 23.1218 95.7254 23.0772C95.5916 22.8542 95.4132 22.5866 95.2794 22.319Z" fill="#1A1F25"/>
<path d="M93.8965 20.7131C93.1828 20.4901 92.4692 20.5347 91.7556 20.8023C91.3988 20.9361 91.5772 21.4713 91.8894 21.3375C92.5584 21.0699 93.272 21.0699 93.8965 21.3375C94.1194 21.4267 94.2979 21.2037 94.2533 20.9807C94.1641 20.8915 94.0302 20.8023 93.8965 20.7131Z" fill="#1A1F25"/>
<path d="M110.577 30.3936V33.9616C110.488 34.2738 110.354 41.722 109.06 43.1492C107.767 44.5764 94.6545 55.0574 93.7625 55.5926C92.8705 56.1278 87.9645 57.6442 86.3589 59.0714C84.7533 60.4986 83.8613 61.0338 83.8613 62.238C83.8613 63.4422 83.8613 64.4234 85.1547 65.9398C86.4481 67.4562 86.6265 67.0102 86.8941 66.6534C86.8941 67.0994 87.2509 67.4562 87.6969 67.4562C87.8307 67.4562 88.0091 67.4116 88.1429 67.3224C88.8565 67.0102 88.9457 66.6534 88.9457 66.475C89.0349 66.7426 89.3471 66.8764 89.6147 66.7872C89.6593 66.7872 89.6593 66.7426 89.7039 66.7426C90.3729 66.475 90.1499 63.8436 90.6405 63.4422C91.1311 63.0408 95.4127 60.5432 96.1263 59.5174C96.1263 59.5174 112.762 51.4448 115.973 47.5646C118.694 44.2642 118.649 33.3818 118.605 29.9922C115.973 30.795 113.208 30.9288 110.577 30.3936Z" fill="#FCB273"/>
<path d="M88.8117 62.8173C88.8563 62.5497 88.9901 62.2821 89.2131 62.0591C89.4361 61.7469 88.9455 61.4793 88.7225 61.7915C88.2765 62.4605 88.0981 62.5051 88.2319 63.3525C88.3657 64.4675 88.5441 65.5379 88.6779 66.6529C88.7225 67.0097 89.3023 66.8759 89.2131 66.5191C89.1239 65.7163 88.9901 64.9135 88.9009 64.1107C88.8117 63.7093 88.7671 63.2633 88.8117 62.8173Z" fill="#1A1F25"/>
<path d="M87.5629 67.097C87.3845 66.2496 87.2507 65.4022 87.1615 64.5548C87.1169 63.9304 86.8047 62.5924 87.3845 62.1464C87.6521 61.9234 87.2507 61.522 86.9831 61.745C86.3587 62.2356 86.4925 63.083 86.4925 63.7966C86.5371 64.9562 86.7155 66.1158 86.9385 67.2754C87.0723 67.6322 87.6521 67.4538 87.5629 67.097Z" fill="#1A1F25"/>
<path d="M86.5823 67.0965C86.3147 66.3383 86.0917 65.5801 85.9133 64.8219C85.7795 64.2421 85.1996 62.6365 85.6456 62.1459C85.9132 61.8783 85.4673 61.4769 85.2443 61.7445C84.7537 62.2797 84.932 62.9933 85.0658 63.6623C85.2888 64.7773 85.5565 65.8477 85.9133 66.9181C86.0917 67.0519 86.3593 67.1411 86.5823 67.0965Z" fill="#1A1F25"/>
<path d="M119.006 29.1866C117.088 29.588 110.889 31.1936 109.774 29.2758C109.194 28.2054 109.239 26.1538 109.016 24.9496L108.168 20.1774C108.034 19.4638 106.919 19.776 107.053 20.4896C107.455 22.8088 107.856 25.128 108.302 27.4472C108.48 28.3838 108.391 30.3016 109.239 30.9706C110.131 31.6396 112.361 31.2382 113.431 31.149C115.393 31.0152 117.356 30.7476 119.274 30.3016C120.032 30.1678 119.72 29.0528 119.006 29.1866Z" fill="#FE4754"/>
<path opacity="0.1" d="M119.006 29.1866C117.088 29.588 110.889 31.1936 109.774 29.2758C109.194 28.2054 109.239 26.1538 109.016 24.9496L108.168 20.1774C108.034 19.4638 106.919 19.776 107.053 20.4896C107.455 22.8088 107.856 25.128 108.302 27.4472C108.48 28.3838 108.391 30.3016 109.239 30.9706C110.131 31.6396 112.361 31.2382 113.431 31.149C115.393 31.0152 117.356 30.7476 119.274 30.3016C120.032 30.1678 119.72 29.0528 119.006 29.1866Z" fill="#1A1F25"/>
<path d="M98.1781 9.38672L102.861 14.3373C102.861 14.3373 102.995 19.4217 98.8917 20.2245C94.7885 21.0273 93.2275 17.3701 93.2275 17.3701" fill="#FCB273"/>
<path opacity="0.1" d="M98.1781 9.38672L102.861 14.3373C102.861 14.3373 102.995 19.4217 98.8917 20.2245C94.7885 21.0273 93.2275 17.3701 93.2275 17.3701" fill="#1A1F25"/>
<path d="M98.5349 12.6413C98.5349 12.6413 100.185 7.02172 97.2415 3.54292C94.2979 0.0641156 91.5327 -0.292684 89.0351 0.153316C86.5375 0.599316 86.1361 1.93732 84.5751 2.38332C83.0141 2.82932 80.2489 2.29411 80.5165 5.23771C80.7841 8.18131 82.1221 7.95832 82.1221 7.95832C82.1221 7.95832 79.5799 7.69072 80.6949 10.2775C81.8099 12.8643 84.1291 15.2281 87.5187 13.5779" fill="#1A1F25"/>
<path d="M98.3121 11.168C98.3121 11.168 99.2933 7.59998 98.2229 7.51078C97.1525 7.42158 96.6173 9.33938 96.6173 9.33938C96.3497 8.58118 96.0375 7.82298 95.6361 7.10938C92.6033 9.11638 88.2325 8.71497 84.7983 7.64457C83.9955 8.62577 84.1293 11.3018 84.8429 12.6844C84.8429 12.6844 89.3029 22.4964 94.2535 20.3556C99.2041 18.2148 98.3121 11.168 98.3121 11.168Z" fill="#FCB273"/>
<path d="M24.5888 53.5824C24.5888 53.5824 21.6898 73.3402 34.1332 73.4293C46.086 73.474 43.0086 53.3594 43.0086 53.3594C43.0086 53.3594 34.3116 45.7774 24.5888 53.5824Z" fill="#68E1FD"/>
<path opacity="0.15" d="M24.5888 53.5824C24.5888 53.5824 21.6898 73.3402 34.1332 73.4293C46.086 73.474 43.0086 53.3594 43.0086 53.3594C43.0086 53.3594 34.3116 45.7774 24.5888 53.5824Z" fill="#1A1F25"/>
<path d="M33.7765 57.375C38.8506 57.375 42.9641 55.6777 42.9641 53.584C42.9641 51.4903 38.8506 49.793 33.7765 49.793C28.7023 49.793 24.5889 51.4903 24.5889 53.584C24.5889 55.6777 28.7023 57.375 33.7765 57.375Z" fill="#68E1FD"/>
<path opacity="0.4" d="M33.7765 57.375C38.8506 57.375 42.9641 55.6777 42.9641 53.584C42.9641 51.4903 38.8506 49.793 33.7765 49.793C28.7023 49.793 24.5889 51.4903 24.5889 53.584C24.5889 55.6777 28.7023 57.375 33.7765 57.375Z" fill="#1A1F25"/>
<path d="M19.2808 24.7278C19.2808 24.7278 12.8584 23.2114 15.3114 17.8594C15.3114 17.8594 19.7268 18.7068 19.2808 24.7278Z" fill="#938F05"/>
<path d="M23.1616 30.1255C23.1616 30.1255 22.2696 25.5763 25.8376 23.7031C25.8376 23.7031 28.692 28.4753 23.1616 30.1255Z" fill="#938F05"/>
<path d="M27.1756 37.0836C27.1756 37.0836 26.1052 31.6424 30.3868 29.457C30.3868 29.457 33.7764 35.1658 27.1756 37.0836Z" fill="#938F05"/>
<path d="M30.2527 44.7103C30.2527 44.7103 29.2269 39.2691 33.4639 37.0391C33.4639 37.0837 36.8981 42.7925 30.2527 44.7103Z" fill="#938F05"/>
<path d="M22.8048 30.2127C22.8048 30.2127 20.5302 26.1541 16.65 27.0461C16.6054 27.0461 17.4974 32.5765 22.8048 30.2127Z" fill="#938F05"/>
<path d="M26.8636 37.2592C26.8636 37.2592 23.9646 32.5316 19.3262 33.7804C19.3262 33.7804 20.6642 40.292 26.8636 37.2592Z" fill="#938F05"/>
<path d="M29.9402 44.7981C29.9402 44.7981 26.5506 40.3827 22.0906 42.1667C22.046 42.1221 24.0976 48.4999 29.9402 44.7981Z" fill="#938F05"/>
<path d="M32.304 57.4648H32.3932C32.7054 57.4648 32.973 57.4648 33.2852 57.5094C33.2852 57.4648 33.2852 57.4648 33.2852 57.4202C31.9026 45.1998 27.0858 33.6484 19.4592 24.0594C19.0578 23.5688 18.3442 24.2824 18.7456 24.773C26.2384 34.1836 30.9214 45.4674 32.304 57.4648C32.304 57.4202 32.304 57.4202 32.304 57.4648Z" fill="#1A1F25"/>
<path d="M47.5132 33.4263C47.5132 33.4263 52.999 32.0883 50.9028 27.5391C50.9028 27.5391 47.1118 28.2973 47.5132 33.4263Z" fill="#938F05"/>
<path d="M44.1683 38.0639C44.1683 38.0639 44.9265 34.1391 41.8491 32.5781C41.8491 32.5781 39.3961 36.6813 44.1683 38.0639Z" fill="#938F05"/>
<path d="M40.7339 44.0406C40.7339 44.0406 41.6259 39.3576 37.9687 37.4844C37.9687 37.4844 35.0251 42.3904 40.7339 44.0406Z" fill="#938F05"/>
<path d="M38.0579 50.5956C38.0579 50.5956 38.9499 45.9126 35.2927 44.0394C35.3373 43.9948 32.3937 48.9008 38.0579 50.5956Z" fill="#938F05"/>
<path d="M44.4805 38.1529C44.4805 38.1529 46.3983 34.6741 49.7879 35.4323C49.7879 35.4323 48.9851 40.1599 44.4805 38.1529Z" fill="#938F05"/>
<path d="M41.001 44.2188C41.001 44.2188 43.4986 40.1602 47.468 41.2306C47.468 41.186 46.3084 46.8056 41.001 44.2188Z" fill="#938F05"/>
<path d="M38.3701 50.6405C38.3701 50.6405 41.2691 46.8495 45.1047 48.3659C45.1047 48.3659 43.3653 53.8071 38.3701 50.6405Z" fill="#938F05"/>
<path d="M47.3349 32.8455C41.6707 39.9815 37.7905 48.4109 36.0957 57.3755C36.4079 57.3309 36.6755 57.2863 36.9877 57.2417C38.6825 48.5447 42.4289 40.3829 47.9147 33.4253C48.2715 33.0239 47.6471 32.3995 47.3349 32.8455Z" fill="#1A1F25"/>
</svg>
